{"glyphs":{"0":{"ha":724,"x_min":43,"x_max":676,"o":"m 353 865 q 379 860 361 864 q 422 846 397 856 q 474 819 446 836 q 531 778 501 803 q 553 757 538 772 q 581 726 569 742 q 613 677 596 707 q 644 608 629 647 q 667 522 658 569 q 676 422 676 475 q 675 383 676 407 q 668 331 674 360 q 651 266 663 301 q 618 190 639 231 q 586 138 600 158 q 557 103 572 118 q 466 18 506 44 q 400 -24 426 -8 q 346 -10 381 -19 q 263 25 311 -1 q 232 43 247 33 q 193 75 217 53 q 166 101 175 90 q 147 122 157 111 q 115 168 136 136 q 78 240 93 200 q 67 272 71 256 q 58 304 63 289 q 49 348 56 317 q 43 418 43 379 q 67 566 44 506 q 114 663 90 626 q 131 689 118 671 q 163 726 143 707 q 179 743 164 728 q 210 771 194 758 q 223 783 217 778 q 236 793 229 788 q 282 826 256 808 q 353 865 308 843 m 286 754 q 265 749 279 754 q 231 724 250 744 q 189 643 204 694 q 174 519 174 592 q 177 465 174 492 q 185 414 181 438 q 193 373 189 390 q 200 347 197 356 q 213 315 206 331 q 226 283 219 299 q 257 232 236 267 q 319 160 278 197 q 398 109 364 119 q 449 99 432 99 q 484 106 469 99 q 509 125 499 114 q 526 148 519 136 q 536 167 533 160 q 551 219 549 199 q 554 253 553 239 q 557 274 557 264 q 557 296 557 285 q 554 342 557 306 q 541 428 551 378 q 510 535 531 478 q 453 642 489 592 q 445 653 450 649 q 436 665 440 658 q 428 675 432 671 q 419 685 424 679 q 408 695 415 689 q 393 708 401 701 q 378 719 385 714 q 369 726 371 725 q 337 744 361 732 q 286 754 313 756 z "},"1":{"ha":724,"x_min":104,"x_max":518,"o":"m 453 775 l 453 231 q 454 204 454 217 q 456 178 454 192 q 461 147 458 161 q 478 118 464 133 q 492 104 483 111 q 518 88 501 97 l 425 -24 l 388 1 q 378 8 382 4 q 368 15 374 13 l 335 36 q 294 61 315 49 q 253 88 274 74 q 270 106 260 94 q 288 126 281 118 q 303 161 299 142 q 310 213 307 181 l 310 642 l 306 711 q 283 728 300 715 q 243 746 265 740 q 210 724 224 733 q 185 706 197 715 q 160 684 174 696 q 128 654 147 672 l 104 679 q 172 747 138 714 q 202 776 188 763 q 232 806 217 790 q 263 838 247 821 q 294 869 279 854 l 453 775 z "},"2":{"ha":724,"x_min":78,"x_max":653,"o":"m 653 151 l 506 -24 q 465 -5 486 -14 q 425 13 444 4 q 392 29 408 21 q 357 44 375 38 q 333 55 344 50 q 310 64 321 60 q 276 76 293 71 q 244 81 260 81 q 218 76 229 81 q 201 69 207 72 q 158 38 176 58 q 108 -24 140 17 l 78 -4 q 110 44 93 19 q 142 89 126 68 q 158 109 150 99 q 175 131 167 119 q 195 154 185 142 q 215 178 206 167 q 224 185 219 182 q 232 194 228 189 q 240 203 236 199 q 249 211 244 208 l 263 225 q 269 233 265 228 q 276 240 274 238 l 328 292 q 342 306 335 299 q 356 322 349 314 q 374 344 365 333 q 392 367 382 356 q 406 386 399 376 q 419 406 413 396 q 456 497 450 456 q 463 557 463 539 q 459 600 463 571 q 439 665 456 629 q 421 697 433 676 q 388 737 408 717 q 342 772 368 757 q 282 786 315 786 q 237 778 254 786 q 208 757 219 769 q 198 747 204 754 q 188 729 192 740 q 183 713 185 722 q 182 696 182 703 q 208 618 182 657 q 214 610 211 614 q 219 603 217 607 q 244 584 235 588 q 261 581 254 581 q 287 587 274 581 q 303 594 300 593 l 322 568 l 174 433 q 122 488 139 461 q 100 528 106 515 q 86 572 90 547 q 82 617 82 596 q 88 666 82 632 q 125 744 93 700 q 140 763 128 749 q 165 790 151 778 q 185 806 174 799 q 206 821 196 814 q 259 847 225 832 q 342 861 293 861 q 367 860 349 861 q 408 854 385 860 q 460 838 432 849 q 515 807 488 828 q 533 792 522 801 q 554 771 543 783 q 596 707 574 750 q 618 601 618 664 q 608 534 618 565 q 585 476 599 503 q 555 430 571 450 q 525 394 539 410 q 481 349 501 368 q 442 314 461 331 q 402 281 422 297 q 357 246 382 265 q 315 212 336 229 q 274 176 294 194 q 299 186 283 178 q 306 189 299 186 q 324 196 314 192 q 347 203 335 200 q 368 206 358 206 q 398 199 386 206 q 426 185 410 193 q 503 146 475 161 q 554 131 531 131 q 575 134 567 131 q 590 144 583 138 q 606 158 597 150 q 625 175 614 165 l 653 151 z "},"3":{"ha":724,"x_min":79,"x_max":629,"o":"m 271 246 q 249 224 258 235 q 240 200 240 213 q 242 188 240 194 q 251 171 244 182 q 283 139 263 156 q 328 108 304 122 q 374 85 351 94 q 411 75 396 75 q 435 83 425 76 q 450 96 444 89 q 478 136 467 113 q 489 199 489 160 q 486 236 489 217 q 468 292 483 256 q 458 311 463 301 q 447 331 454 321 q 435 348 443 338 q 415 370 426 358 q 389 393 403 382 q 358 413 375 404 q 311 428 338 424 q 265 432 285 432 q 227 429 244 432 q 193 422 210 426 l 188 454 q 269 478 238 468 q 322 504 300 489 q 375 555 350 521 q 400 642 400 589 q 390 701 400 675 q 372 739 381 728 q 364 750 369 744 q 347 763 358 756 q 315 781 331 775 q 271 788 299 788 q 251 787 264 788 q 224 779 239 786 q 183 753 206 772 q 161 694 161 733 q 167 664 161 675 q 181 646 174 653 q 213 626 196 631 q 261 621 229 622 l 260 588 q 244 587 257 588 q 213 589 231 586 q 175 600 194 592 q 140 626 156 608 q 118 669 121 650 q 115 694 115 688 q 122 735 115 717 q 140 769 129 754 q 162 797 150 785 q 183 815 174 808 q 221 837 201 828 q 243 847 240 846 q 291 859 264 856 q 338 863 318 863 q 360 862 342 863 q 403 855 378 861 q 456 836 428 849 q 507 799 483 824 q 544 737 538 767 q 551 693 551 707 q 547 655 551 682 q 518 596 543 628 q 503 578 513 589 q 478 557 493 568 q 458 542 465 546 q 426 526 450 538 q 459 513 440 519 q 496 496 478 507 q 573 434 546 468 q 613 368 600 400 q 627 311 625 336 q 629 278 629 286 q 613 202 629 236 q 586 153 597 168 q 517 84 563 118 q 403 18 471 50 q 376 6 388 11 q 350 -4 364 1 q 317 -16 335 -11 q 285 -26 300 -21 q 189 34 228 3 q 133 83 150 65 q 108 110 118 97 q 79 149 99 122 q 138 194 108 174 q 163 213 150 204 q 188 231 175 222 q 219 251 203 242 q 251 271 236 261 l 271 246 z "},"4":{"ha":724,"x_min":79,"x_max":661,"o":"m 531 300 q 558 298 536 299 q 601 315 579 297 q 622 339 617 328 q 627 353 625 346 q 631 363 629 361 l 661 360 q 654 310 658 335 q 647 265 650 286 q 642 238 644 250 q 632 218 639 225 q 617 214 626 215 l 531 213 q 532 167 531 190 q 549 124 533 143 q 566 106 556 114 q 596 82 576 97 l 506 -25 l 350 85 q 374 121 365 106 q 388 149 383 136 q 392 178 392 163 q 393 214 393 193 l 219 214 q 169 209 189 213 q 136 196 149 206 q 124 186 128 190 q 110 171 121 182 l 79 172 q 85 235 81 194 q 99 331 89 276 q 126 448 108 385 q 175 578 144 511 q 205 637 190 610 q 243 700 219 664 q 276 750 260 726 q 313 799 293 774 q 371 865 339 832 q 425 834 399 850 q 479 801 451 818 q 523 774 501 788 q 567 744 544 760 q 549 719 556 729 q 539 698 543 708 q 533 677 535 688 q 529 651 531 667 l 531 300 m 392 300 l 392 694 l 324 735 q 297 702 307 718 q 274 667 286 686 q 210 547 235 604 q 168 428 186 490 q 156 374 158 392 q 153 338 153 357 q 154 324 153 328 q 165 309 157 315 q 179 300 172 303 l 392 300 z "},"5":{"ha":724,"x_min":92,"x_max":621,"o":"m 560 876 l 529 772 q 524 751 526 761 q 517 731 521 742 q 499 697 508 706 q 475 688 490 688 q 412 690 438 688 q 356 694 386 692 q 292 699 324 697 q 229 704 261 701 l 199 489 l 315 588 q 365 585 343 588 q 415 575 386 583 q 463 556 439 568 q 515 525 488 544 q 581 456 563 489 q 607 403 600 422 q 615 373 610 393 q 621 326 621 353 q 620 309 621 318 q 618 290 619 300 q 593 210 611 247 q 538 133 575 174 q 508 104 524 118 q 478 78 493 90 q 417 35 458 63 q 324 -24 376 8 q 276 1 303 -12 q 215 40 250 15 q 174 72 196 54 q 147 96 153 90 q 124 121 143 100 q 92 163 106 142 q 127 192 110 178 q 163 221 144 206 q 192 242 179 233 q 214 258 204 251 q 232 270 224 265 q 250 281 240 275 l 271 256 q 256 237 267 250 q 247 208 246 224 q 263 173 247 189 q 299 142 279 157 q 346 111 322 124 q 411 88 369 99 q 429 101 418 92 q 453 126 440 110 q 489 201 483 165 q 494 251 494 238 q 486 309 494 283 q 465 353 478 335 q 451 372 458 364 q 440 382 443 379 q 428 394 433 389 q 411 406 422 399 q 357 432 386 424 q 301 440 328 440 q 265 435 294 440 q 206 411 235 431 q 183 392 194 403 q 160 369 171 381 l 135 379 l 201 856 q 221 855 211 856 q 238 854 231 854 q 262 850 250 851 q 288 847 274 849 q 331 844 308 844 q 375 840 353 843 q 406 838 390 839 q 439 838 422 838 q 456 838 443 838 q 483 844 469 838 q 513 865 503 851 q 526 886 524 879 l 560 876 z "},"6":{"ha":724,"x_min":88,"x_max":642,"o":"m 444 651 q 454 674 454 665 q 418 729 454 690 q 383 760 399 749 q 343 785 367 771 q 317 755 331 771 q 289 710 304 739 q 243 575 253 640 q 232 442 233 510 l 457 594 q 490 574 472 588 q 525 546 508 561 q 556 515 542 531 q 578 488 569 499 q 619 411 597 460 q 642 294 642 363 q 620 181 642 225 q 571 107 599 138 q 554 89 564 100 q 529 65 544 78 q 445 13 488 33 q 363 -24 403 -7 q 260 38 306 3 q 223 72 242 51 q 201 96 204 92 q 163 149 183 117 q 126 225 143 182 q 99 319 110 268 q 88 426 88 369 q 88 460 88 439 q 94 508 89 481 q 108 567 99 535 q 133 633 117 599 q 151 665 142 651 q 174 696 160 679 q 228 756 201 733 q 269 790 254 779 q 310 815 289 804 q 348 833 331 825 q 377 845 365 840 q 393 851 389 850 q 417 858 404 854 q 442 864 429 861 q 461 852 453 858 q 489 831 469 846 q 526 798 511 813 q 551 770 540 783 q 573 743 563 757 q 597 711 583 729 q 577 696 585 700 q 547 678 569 692 q 504 651 525 664 q 461 628 483 639 l 444 651 m 236 392 q 251 310 242 344 q 289 228 261 275 q 315 190 303 206 q 332 167 326 174 q 350 146 338 160 q 382 117 363 132 q 403 102 393 110 q 425 88 414 94 q 437 80 432 82 q 456 74 442 78 q 490 119 478 93 q 507 169 501 146 q 513 210 513 193 q 514 228 514 226 q 508 283 514 242 q 478 368 501 324 q 467 389 474 378 q 446 418 460 400 q 438 428 444 419 q 422 447 432 438 q 400 463 413 456 q 375 471 388 471 q 319 450 351 471 q 236 392 286 429 z "},"7":{"ha":724,"x_min":83,"x_max":601,"o":"m 601 849 q 592 816 597 832 q 579 783 586 800 q 542 683 563 733 q 524 638 533 660 q 506 593 515 617 q 476 524 490 558 q 447 453 461 489 q 438 426 446 449 q 420 374 429 404 q 403 308 411 343 q 396 244 396 274 q 396 233 396 239 q 399 215 396 226 q 419 174 403 196 q 460 151 436 151 q 478 156 469 151 q 504 171 488 160 l 528 147 l 376 -24 q 367 -15 371 -19 q 358 -7 363 -11 q 335 16 347 4 q 303 54 322 28 q 269 111 285 78 q 253 197 253 144 q 254 228 253 208 q 264 274 256 247 q 317 397 281 331 q 390 518 354 463 q 442 599 417 558 q 489 679 468 639 q 510 725 501 701 q 472 696 489 707 q 433 685 456 685 q 401 689 418 685 q 351 701 383 693 q 338 705 351 701 q 306 712 325 708 q 267 718 288 715 q 229 721 246 721 q 196 716 210 721 q 170 699 182 711 q 145 668 158 688 q 114 619 132 649 l 83 635 l 194 872 q 277 856 236 864 q 360 840 318 847 q 411 830 386 835 q 461 822 436 825 q 484 819 472 821 q 508 818 496 818 q 537 826 525 818 q 572 863 549 835 l 601 849 z "},"8":{"ha":724,"x_min":76,"x_max":646,"o":"m 518 436 q 572 399 544 419 q 634 326 622 357 q 646 271 646 294 q 634 211 646 251 q 575 115 622 171 q 523 63 550 85 q 473 26 496 42 q 433 3 450 11 q 407 -8 415 -6 q 361 -24 375 -24 q 288 -3 342 -24 q 176 60 233 17 q 105 131 133 93 q 76 215 76 169 q 83 257 76 229 q 118 321 90 285 q 165 372 138 346 q 243 435 193 397 q 234 442 239 438 q 225 449 229 446 q 208 458 217 454 q 193 469 200 463 q 161 496 182 475 q 130 534 146 511 q 114 592 114 557 q 126 648 114 624 q 147 683 139 672 q 156 696 151 690 q 164 707 160 701 q 206 751 175 722 q 281 813 236 781 q 302 828 292 821 q 324 842 313 835 q 355 861 344 856 q 376 867 365 867 q 397 863 386 867 q 410 857 407 858 q 474 817 446 839 q 515 786 503 796 q 583 716 565 743 q 601 663 601 689 q 576 599 601 631 q 524 535 551 567 q 494 502 508 518 q 464 469 479 486 l 518 436 m 431 490 q 482 560 467 535 q 497 607 497 585 q 495 622 497 613 q 483 644 493 631 q 457 672 474 657 q 421 701 440 686 q 383 728 401 715 q 350 747 364 740 q 333 755 344 750 q 308 760 322 760 q 287 755 299 760 q 256 729 275 750 q 247 719 253 726 q 233 703 240 713 q 222 682 226 693 q 217 660 217 671 q 224 636 217 650 q 247 606 231 622 q 260 594 256 599 q 272 586 265 590 q 285 576 278 582 q 307 563 293 571 q 328 549 318 556 q 350 536 339 543 q 391 511 369 524 q 431 490 413 499 m 283 413 q 251 387 268 400 q 222 358 235 374 q 200 326 208 343 q 192 293 192 310 q 199 261 192 276 q 216 233 207 246 q 235 210 225 219 q 249 197 244 201 q 266 180 258 188 q 285 165 274 172 q 307 149 290 161 q 347 123 324 136 q 395 100 369 110 q 446 90 421 90 q 500 106 481 90 q 526 133 519 122 q 541 165 539 151 q 543 185 543 178 q 533 224 543 207 q 503 263 524 242 q 438 317 471 294 q 369 363 406 339 q 349 375 358 369 q 331 386 340 381 q 283 413 310 399 z "},"9":{"ha":724,"x_min":68,"x_max":646,"o":"m 267 178 q 262 168 265 175 q 258 157 258 161 q 278 135 258 146 q 301 122 286 129 q 331 109 315 115 q 360 98 346 103 q 381 90 374 93 q 418 82 399 83 q 445 120 432 101 q 469 161 458 139 q 488 211 479 183 q 501 278 496 239 q 506 324 506 300 q 506 348 507 336 q 504 372 506 360 q 435 315 469 343 q 365 258 401 286 q 346 242 356 251 q 325 226 336 233 q 316 220 321 224 q 306 214 311 217 q 283 222 297 217 q 249 235 268 226 q 207 256 229 243 q 164 290 185 269 q 141 313 151 301 q 115 350 131 325 q 84 413 100 374 q 68 507 68 451 q 69 536 68 517 q 76 582 69 556 q 88 619 81 597 q 113 669 96 642 q 157 728 129 697 q 228 792 185 760 q 258 813 243 803 q 290 833 274 824 q 328 853 308 844 q 369 871 349 861 q 399 858 388 863 q 419 848 411 853 q 432 839 426 843 q 444 829 438 835 q 464 815 454 822 q 483 801 474 808 q 529 755 507 779 q 564 711 551 731 q 590 665 575 693 q 617 602 604 638 q 638 525 629 567 q 646 436 646 483 q 644 390 646 422 q 631 315 642 358 q 597 223 619 272 q 532 125 574 174 q 494 83 517 106 q 435 33 472 61 q 410 15 422 24 q 386 0 399 7 q 333 -28 358 -17 q 283 -14 306 -21 q 238 3 260 -7 q 190 24 215 13 q 133 54 165 36 q 157 89 144 72 q 183 124 169 106 q 211 159 197 142 q 239 194 225 176 l 267 178 m 501 424 q 490 490 497 450 q 456 590 483 529 q 442 618 453 594 q 417 663 431 642 q 392 694 403 682 q 372 715 381 707 q 333 749 354 732 q 289 767 311 767 q 256 753 269 767 q 238 733 243 740 q 222 708 229 722 q 211 683 214 694 q 201 646 206 669 q 196 589 196 622 q 197 565 196 585 q 203 516 197 544 q 224 456 210 488 q 267 397 239 424 q 283 383 272 392 q 308 367 293 375 q 339 354 322 360 q 374 349 356 349 q 399 354 385 349 q 440 376 413 358 q 501 424 467 394 z "},"\u0005":{"ha":463,"x_min":32,"x_max":431,"o":"m 58 1025 q 81 974 67 999 q 115 931 94 950 q 165 901 136 913 q 229 890 193 890 q 338 924 290 890 q 403 1025 385 958 l 431 1025 q 418 952 428 996 q 386 869 408 908 q 326 801 364 829 q 231 772 289 772 q 142 797 178 772 q 82 860 106 822 q 47 942 58 897 q 32 1025 35 986 l 58 1025 z "},"\u0006":{"ha":463,"x_min":158,"x_max":307,"o":"m 158 885 l 232 958 l 307 885 l 232 810 l 158 885 z "},"\b":{"ha":463,"x_min":118,"x_max":344,"o":"m 231 1008 q 310 976 276 1008 q 344 896 344 944 q 312 815 344 849 q 231 782 279 782 q 151 815 183 782 q 118 896 118 849 q 127 940 118 919 q 152 976 136 961 q 188 1000 168 992 q 231 1008 208 1008 m 232 969 q 179 948 201 969 q 157 894 157 926 q 178 842 157 864 q 232 821 200 821 q 284 842 263 821 q 306 894 306 864 q 284 948 306 926 q 232 969 263 969 z "},"\n":{"ha":463,"x_min":93,"x_max":514,"o":"m 294 775 l 356 1028 l 514 1028 l 332 775 l 294 775 m 93 775 l 154 1028 l 313 1028 l 131 775 l 93 775 z "},"\u000b":{"ha":463,"x_min":78,"x_max":385,"o":"m 190 11 q 165 -22 179 -3 q 151 -67 151 -42 q 163 -109 151 -87 q 192 -149 174 -131 q 235 -178 211 -167 q 288 -189 260 -189 q 340 -180 319 -189 q 374 -161 360 -171 l 385 -178 q 306 -231 349 -210 q 214 -251 263 -251 q 164 -244 189 -251 q 120 -222 139 -236 q 90 -185 101 -207 q 78 -133 78 -162 q 85 -89 78 -110 q 106 -51 93 -68 q 133 -17 118 -33 q 161 11 147 -1 l 190 11 z "},"\f":{"ha":463,"x_min":32,"x_max":431,"o":"m 431 1029 l 303 775 l 157 775 l 32 1029 l 72 1029 l 231 883 l 390 1029 l 431 1029 z "},"\r":{"ha":376,"x_min":28,"x_max":388,"o":"m 335 619 q 319 614 333 619 q 294 601 306 608 q 275 581 285 597 q 264 552 267 567 q 260 510 261 538 l 260 231 q 260 190 260 206 q 265 163 261 174 q 288 142 272 142 q 319 154 303 142 q 364 190 336 167 l 388 165 l 346 124 q 314 91 331 107 q 282 58 297 75 q 249 21 264 39 q 219 -15 235 3 q 165 34 196 7 q 79 93 135 61 q 89 110 83 101 q 99 128 94 118 q 114 191 113 156 q 115 254 115 226 l 115 494 q 115 523 115 510 q 114 550 115 536 q 110 574 113 563 q 93 586 108 586 q 75 579 83 586 q 49 558 67 572 l 28 582 l 175 742 q 236 678 208 700 q 288 649 264 656 q 309 646 299 646 q 331 646 319 646 l 335 619 z "},"\u0019":{"ha":174,"x_min":-271,"x_max":436,"o":"m -271 -46 l 347 943 l 436 943 l -182 -46 l -271 -46 z "},"\u001a":{"ha":694,"x_min":24,"x_max":708,"o":"m 496 921 l 428 790 q 388 805 408 797 q 347 821 367 813 q 301 842 324 832 q 257 864 279 853 l 257 700 l 460 700 l 497 739 q 522 711 510 725 q 550 683 535 697 q 611 648 586 651 q 651 644 636 644 l 656 618 q 601 586 617 604 q 583 529 586 568 l 583 192 q 590 155 583 168 q 613 142 596 142 q 642 153 625 142 q 686 189 658 165 l 708 165 q 694 149 701 157 q 679 133 686 142 l 621 75 q 542 -17 576 29 q 524 0 533 -8 q 506 17 515 8 q 485 35 493 28 q 466 51 476 43 q 441 68 456 58 q 401 93 426 78 q 415 115 410 106 q 425 136 421 125 q 432 161 429 147 q 438 197 435 175 q 395 152 415 174 q 354 107 375 131 q 324 76 339 92 q 296 46 310 61 q 267 15 281 31 q 239 -17 254 -1 q 200 13 217 0 q 166 39 183 26 q 128 63 149 51 q 81 89 108 75 q 96 122 92 110 q 103 144 100 133 q 108 182 107 160 q 110 236 108 204 l 110 581 l 24 614 l 24 643 l 110 693 l 107 799 l 336 996 l 496 921 m 608 953 l 522 781 l 483 803 l 569 972 l 608 953 m 256 206 q 257 193 256 203 q 263 175 258 183 q 288 149 269 160 q 319 139 307 139 q 330 140 326 139 q 338 144 333 142 q 378 181 351 153 q 438 244 406 208 l 438 581 l 256 581 l 256 206 z "},"\u001b":{"ha":694,"x_min":24,"x_max":735,"o":"m 563 1001 l 585 996 q 583 930 583 963 q 581 864 582 897 q 581 809 581 836 q 582 754 581 782 l 582 317 q 583 232 582 272 q 589 178 583 192 q 602 158 592 172 q 632 144 613 144 q 674 165 654 146 q 710 200 694 185 l 735 181 l 581 -19 q 526 17 553 0 q 468 54 500 35 q 437 72 453 64 q 404 89 421 81 q 423 124 415 106 q 435 182 431 142 q 397 142 415 163 q 358 100 378 121 q 336 76 347 88 q 314 53 325 64 q 246 -19 281 15 q 208 8 226 -6 q 169 36 190 22 q 126 63 149 50 q 79 90 103 76 q 85 101 82 96 q 92 113 89 107 q 106 170 104 140 q 108 226 108 200 l 108 581 l 24 617 l 24 644 l 108 697 l 106 801 q 144 834 125 818 q 182 867 163 850 q 225 903 204 885 q 267 940 246 921 q 304 974 286 957 q 338 1006 322 990 q 391 985 365 996 q 449 961 417 974 q 481 951 465 956 q 508 944 496 947 l 563 1001 m 254 701 l 438 701 l 438 807 q 394 820 415 814 q 351 833 374 826 q 303 850 328 840 q 254 871 278 860 l 254 701 m 253 272 q 254 216 254 240 q 260 181 254 192 q 287 150 267 163 q 325 138 307 138 q 332 138 328 138 q 343 143 336 139 q 382 177 354 150 q 438 236 410 204 l 438 582 l 253 582 l 253 272 z "},"\u001c":{"ha":926,"x_min":19,"x_max":950,"o":"m 568 514 l 568 744 l 583 849 q 538 808 556 825 q 510 776 521 792 q 497 742 500 760 q 493 697 493 724 l 493 514 l 568 514 m 493 444 l 493 340 q 485 303 490 318 q 469 273 481 289 q 435 237 457 257 q 381 185 414 217 q 447 206 413 196 q 535 219 481 217 q 551 249 544 235 q 561 278 557 263 q 567 313 565 293 q 568 363 568 333 l 568 444 l 493 444 m 32 514 l 264 514 l 336 547 q 336 585 336 564 q 335 626 336 606 q 332 663 335 646 q 325 689 329 681 q 302 710 317 706 q 285 714 288 714 l 285 742 l 421 811 q 374 828 397 819 q 328 847 351 836 q 310 856 324 849 q 276 872 296 864 q 233 888 256 881 q 190 896 211 894 q 174 896 182 896 q 157 894 165 896 q 157 878 157 892 q 164 851 157 864 q 179 828 168 844 q 190 792 190 811 q 174 753 189 768 q 150 733 158 739 q 108 717 135 725 q 44 699 81 708 l 35 721 q 43 734 39 728 q 47 751 47 740 q 41 776 47 764 q 29 801 35 789 q 24 817 26 808 q 19 832 22 825 q 91 891 57 864 q 161 950 125 918 l 253 1029 q 315 1021 283 1026 q 426 983 376 1008 q 500 944 475 957 q 544 926 524 933 q 585 913 564 919 q 612 929 599 921 q 638 947 625 938 q 684 981 661 963 q 729 1014 707 999 l 750 1000 q 740 969 744 983 q 732 938 735 954 q 727 899 729 921 q 725 847 725 878 l 725 514 l 904 514 l 903 444 l 725 444 l 725 415 q 724 401 725 413 q 721 379 724 390 q 699 340 715 360 q 647 285 683 321 q 610 249 628 267 q 575 215 593 232 q 599 209 586 213 q 624 201 611 206 q 658 190 640 196 q 693 178 675 185 q 705 173 693 178 q 733 163 717 168 q 768 153 750 157 q 801 149 786 149 q 822 151 808 149 q 856 168 836 154 q 899 228 890 194 q 911 292 908 261 l 950 290 q 950 263 950 279 q 943 224 950 247 q 913 160 935 196 q 828 72 890 125 q 786 38 807 54 q 744 8 765 22 q 713 -7 729 0 q 682 -14 697 -14 q 638 -1 661 -14 q 563 40 614 13 q 485 78 532 57 q 379 99 438 99 q 327 94 351 99 q 274 78 303 89 q 208 49 244 67 q 122 8 172 32 l 104 46 q 140 63 119 53 q 181 85 160 74 q 222 112 201 97 q 258 142 242 126 q 284 171 269 153 q 313 219 299 189 q 326 256 321 238 q 335 294 332 274 q 338 342 338 315 q 338 406 339 369 q 327 413 332 408 q 317 419 322 417 q 265 444 286 436 l 32 444 l 32 514 z "},"\u001d":{"ha":376,"x_min":-1,"x_max":411,"o":"m -1 478 l 110 524 l 110 590 l 21 626 l 21 654 l 106 706 l 106 819 q 105 833 106 826 q 104 846 104 839 q 94 897 101 876 q 78 931 86 918 q 51 958 67 947 q 33 969 35 969 l 51 997 q 81 981 63 993 q 118 944 99 968 q 128 929 122 938 q 142 907 135 921 q 154 922 149 915 q 167 935 160 928 q 174 945 171 940 q 183 954 178 950 q 196 968 190 961 q 208 982 201 975 q 220 995 214 989 q 233 1008 226 1001 l 254 1001 q 250 883 250 940 q 251 799 250 842 q 253 715 253 757 l 254 582 l 328 611 l 353 542 l 256 504 l 257 319 q 258 233 257 271 q 267 178 260 194 q 283 158 272 165 q 296 150 293 151 q 303 149 297 149 l 307 149 q 340 161 324 149 q 386 206 357 174 l 411 186 l 260 -14 q 198 26 229 6 q 133 65 167 46 q 106 79 119 72 q 79 93 93 86 q 89 107 82 97 q 100 129 96 117 q 109 173 107 149 q 111 236 111 197 q 111 336 111 282 q 110 447 111 390 l 22 413 l -1 478 z "},"\u001e":{"ha":665,"x_min":0,"x_max":729,"o":"m 729 924 q 628 841 678 883 q 531 754 579 799 q 444 672 486 714 q 360 586 403 629 q 392 581 372 585 q 434 571 411 578 q 483 550 457 564 q 535 514 510 536 q 563 485 547 503 q 592 443 578 468 q 615 385 606 418 q 625 308 625 351 q 619 251 625 286 q 593 168 614 215 q 551 97 575 131 q 494 28 528 64 q 414 -50 460 -8 q 308 -147 368 -92 q 283 -142 296 -144 q 249 -132 271 -140 q 211 -118 229 -125 q 174 -111 193 -111 q 149 -115 158 -111 q 133 -122 139 -119 q 103 -145 115 -132 q 78 -174 90 -158 l 47 -150 l 197 65 q 247 40 225 50 q 290 24 269 31 q 334 12 311 17 q 389 1 357 7 q 403 19 394 8 q 422 49 411 31 q 450 112 433 68 q 467 217 467 156 q 456 298 467 267 q 436 349 446 329 q 414 385 426 368 q 392 408 403 399 q 378 421 382 417 q 366 427 375 422 q 346 438 357 432 q 285 450 318 450 q 215 426 249 450 q 132 353 181 403 l 107 382 q 140 417 122 400 q 174 453 157 435 q 200 479 188 465 q 225 507 213 493 l 432 714 q 404 721 415 718 q 383 726 393 724 q 361 733 372 729 q 335 744 350 738 q 315 753 328 747 q 286 767 301 758 q 261 781 275 772 q 233 799 247 790 q 203 813 218 807 q 174 818 188 818 q 129 803 150 818 q 89 768 108 788 q 59 736 74 751 q 29 706 44 721 l 0 729 l 238 1008 q 328 947 288 972 q 403 906 368 922 q 468 881 438 889 q 529 874 499 874 q 558 875 546 874 q 586 881 571 876 q 636 906 611 889 q 703 956 661 924 l 729 924 m 671 1288 l 543 1033 l 397 1033 l 272 1288 l 313 1288 l 471 1142 l 631 1288 l 671 1288 z "},"\u001f":{"ha":492,"x_min":44,"x_max":521,"o":"m 521 643 q 479 612 497 626 q 444 583 461 597 q 410 551 428 568 q 369 513 393 535 q 333 478 350 496 q 301 443 317 461 q 331 429 314 438 q 374 400 347 421 q 393 383 386 389 q 407 371 400 376 q 413 363 410 367 q 418 356 415 358 q 426 347 422 351 q 433 338 431 343 q 465 282 447 319 q 482 196 482 244 q 472 131 482 174 q 415 32 463 89 q 376 -10 399 13 q 328 -53 353 -32 q 280 -95 304 -75 q 238 -132 256 -115 q 210 -157 218 -150 q 192 -164 203 -164 q 178 -162 185 -164 q 163 -157 171 -160 q 124 -153 143 -153 q 116 -153 121 -153 q 108 -154 111 -153 q 101 -156 104 -156 q 93 -157 97 -157 q 84 -155 92 -157 q 75 -144 76 -153 q 81 -129 76 -136 q 96 -108 86 -122 q 123 -74 107 -93 q 157 -43 139 -54 q 175 -35 168 -36 q 188 -33 182 -33 q 210 -37 199 -33 q 224 -42 222 -40 q 240 -48 232 -44 q 256 -51 247 -51 q 283 -35 269 -51 q 308 8 297 -18 q 324 64 318 33 q 331 122 331 94 q 330 143 331 128 q 324 178 329 158 q 308 220 319 197 q 278 267 297 243 q 265 281 274 272 q 247 297 257 290 q 212 319 228 313 q 188 326 196 326 q 178 325 181 326 q 172 322 175 324 q 146 300 165 317 q 104 263 126 283 l 82 289 q 123 326 103 307 q 164 364 143 344 q 197 395 182 381 q 229 425 213 410 q 244 439 238 433 q 260 453 251 444 l 278 471 q 295 487 286 478 q 313 503 304 496 q 291 512 303 508 q 268 519 279 515 q 179 556 225 533 q 160 564 168 560 q 140 568 151 568 q 118 560 124 565 q 96 538 103 550 q 74 503 89 525 l 44 518 l 163 742 q 223 702 192 722 q 311 658 254 682 q 334 649 322 654 q 357 642 346 644 q 389 635 375 636 q 410 633 403 633 q 457 642 436 633 q 506 667 478 651 l 521 643 m 518 1069 l 390 815 l 244 815 l 119 1069 l 160 1069 l 318 924 l 478 1069 l 518 1069 z "}," ":{"ha":492,"x_min":0,"x_max":0,"o":""},"!":{"ha":435,"x_min":135,"x_max":369,"o":"m 233 289 q 233 342 233 310 q 228 417 232 375 q 218 511 225 460 q 197 619 211 563 q 184 669 190 644 q 168 718 178 693 q 152 756 161 738 q 135 794 143 775 q 179 843 161 824 q 210 878 197 863 q 232 907 222 893 q 253 939 242 921 q 276 902 267 917 q 298 873 286 888 q 326 840 310 858 q 369 792 342 822 q 352 758 360 772 q 338 726 344 743 q 324 688 331 710 q 308 632 317 665 q 288 542 296 583 q 274 460 279 500 q 267 378 269 419 q 263 288 264 336 l 233 289 m 250 224 q 275 189 264 203 q 297 163 286 175 q 320 138 307 151 q 354 104 333 125 q 322 67 335 83 q 299 37 310 51 q 276 7 288 22 q 251 -29 265 -8 q 235 -5 243 -17 q 218 18 226 7 q 197 43 207 31 q 175 68 186 56 q 160 85 168 78 q 146 103 153 93 q 178 135 165 122 q 202 161 192 149 q 224 188 213 174 q 250 224 235 201 z "},"\"":{"ha":550,"x_min":114,"x_max":436,"o":"m 378 640 l 346 972 q 346 1003 344 990 q 363 1029 347 1017 q 380 1038 372 1036 q 393 1040 388 1040 q 435 1008 425 1040 q 436 997 436 1001 q 436 990 436 992 l 397 640 l 378 640 m 146 640 l 114 972 q 114 998 114 979 q 135 1032 114 1017 q 161 1040 147 1040 q 185 1032 171 1040 q 200 1014 197 1025 q 204 990 203 1003 l 165 640 l 146 640 z "},"#":{"ha":406,"x_min":26,"x_max":525,"o":"m 453 844 q 437 828 444 836 q 422 811 429 819 q 415 801 418 806 q 404 796 411 796 l 403 796 q 401 797 401 796 q 399 797 400 797 q 359 815 379 806 q 319 832 339 824 q 292 847 306 839 q 263 861 278 854 l 263 219 q 263 201 263 215 q 269 171 263 186 q 289 149 278 154 q 307 144 300 144 q 333 159 321 146 q 365 197 346 172 q 384 224 375 211 q 404 251 393 236 l 432 232 l 258 -21 q 215 10 236 -6 q 169 39 193 25 q 126 65 147 53 q 81 89 104 78 q 93 115 88 104 q 102 139 99 126 q 108 167 106 151 q 110 208 110 183 l 110 583 l 26 619 l 26 651 l 111 699 l 107 803 q 150 839 131 822 q 177 862 163 850 q 204 885 192 874 q 228 904 215 894 q 251 924 240 914 q 258 929 254 926 q 264 935 261 932 q 301 967 282 950 q 339 1000 319 983 q 374 984 357 992 q 410 968 392 976 q 440 954 425 961 q 471 942 456 947 q 497 932 483 936 q 525 924 510 928 q 508 903 518 914 q 486 882 497 893 l 453 844 z "},"$":{"ha":708,"x_min":39,"x_max":669,"o":"m 404 936 q 517 909 467 926 q 600 876 568 892 l 546 754 l 404 794 l 404 538 l 579 628 q 629 557 611 593 q 656 489 647 521 q 667 431 665 457 q 669 388 669 404 q 650 276 669 329 q 595 176 631 224 q 511 84 560 128 q 404 0 463 40 l 404 -121 l 331 -121 l 331 14 l 39 96 l 117 219 l 331 161 l 331 465 l 168 382 q 120 431 143 406 q 79 485 97 456 q 50 552 61 515 q 39 635 39 589 q 52 725 39 675 q 99 819 65 775 q 188 897 132 864 q 331 939 244 931 l 331 996 l 404 996 l 404 936 m 331 815 l 182 857 q 156 803 171 836 q 142 721 142 771 q 158 632 142 671 q 199 564 175 593 q 249 515 222 535 q 294 481 275 494 l 331 499 l 331 815 m 404 140 l 499 115 q 549 204 531 156 q 567 306 567 253 q 562 353 567 324 q 543 415 557 383 q 505 475 529 446 q 442 524 481 504 l 404 504 l 404 140 z "},"%":{"ha":1013,"x_min":53,"x_max":957,"o":"m 272 875 q 328 849 292 867 q 397 789 364 832 q 408 774 404 779 q 418 760 413 769 q 438 713 431 736 q 449 669 444 690 q 453 633 453 649 q 454 610 454 618 q 446 539 454 578 q 422 471 438 500 q 413 453 418 461 q 400 436 407 444 q 385 415 397 431 q 356 383 372 399 q 308 347 332 361 q 256 318 283 333 q 210 335 231 326 q 168 358 190 343 q 82 458 111 396 q 53 590 53 521 q 83 720 53 663 q 171 819 114 778 q 190 833 172 821 q 222 853 207 846 q 247 865 235 860 q 272 875 260 869 m 774 864 l 306 1 l 236 1 l 704 864 l 774 864 m 215 799 q 167 747 185 793 q 149 639 149 701 q 150 601 149 618 q 157 564 151 583 q 188 483 168 513 q 224 438 208 453 q 264 407 244 415 q 297 399 283 399 q 345 435 329 399 q 361 531 361 472 q 360 566 361 540 q 351 625 358 592 q 328 694 343 658 q 288 760 314 731 q 256 787 276 772 q 215 799 236 801 m 772 546 q 822 524 801 535 q 867 494 843 514 q 899 464 882 483 q 932 404 915 444 q 953 331 949 364 q 957 282 957 299 q 953 238 957 265 q 939 178 950 210 q 906 111 928 146 q 847 46 885 76 q 813 20 832 31 q 757 -10 794 10 q 709 8 729 0 q 665 33 689 17 q 606 94 628 60 q 573 160 585 128 q 558 221 561 193 q 556 263 556 249 q 561 319 556 283 q 592 400 567 356 q 603 417 596 407 q 621 443 610 428 q 635 458 632 454 q 656 475 639 461 q 678 494 668 486 q 700 509 688 501 q 729 525 713 517 q 772 546 746 533 m 718 469 q 708 467 714 468 q 696 458 703 465 q 665 406 678 443 q 651 314 651 368 q 667 206 651 258 q 721 114 683 154 q 765 80 744 90 q 800 69 785 69 q 813 72 806 69 q 829 82 819 74 q 850 116 843 94 q 860 158 857 138 q 864 193 864 178 q 864 208 864 208 q 840 347 864 292 q 794 425 815 401 q 762 455 783 439 q 718 469 740 471 z "},"&":{"ha":897,"x_min":54,"x_max":894,"o":"m 894 182 q 867 145 882 163 q 838 108 853 128 q 781 47 810 76 q 722 -12 753 18 q 708 -3 715 -8 q 694 6 701 1 q 681 18 688 13 q 665 31 674 24 q 643 52 654 42 q 621 74 632 63 q 592 104 606 89 q 567 135 579 119 q 540 113 553 124 q 513 93 528 103 q 453 58 496 82 q 346 10 410 35 q 311 -2 326 3 q 279 -12 296 -7 q 256 3 272 -8 q 217 39 240 14 q 196 60 206 50 q 178 82 186 71 q 158 107 167 94 q 142 133 150 119 q 122 163 136 142 q 92 215 107 185 q 66 280 78 246 q 54 347 54 314 q 56 367 54 356 q 63 394 57 379 q 81 426 69 408 q 115 460 93 443 q 157 487 132 472 q 208 515 182 501 q 259 540 235 528 q 299 560 283 551 q 288 584 296 567 q 273 624 281 601 q 260 674 265 647 q 254 726 254 700 q 271 801 254 771 q 303 853 288 832 q 319 871 311 863 q 333 886 326 879 q 390 922 353 901 q 476 943 426 943 q 511 940 499 943 q 533 933 524 936 q 559 919 544 929 q 588 895 574 910 q 610 859 601 881 q 619 811 619 838 q 603 744 619 775 q 562 688 588 714 q 504 638 536 661 q 440 593 472 614 q 472 535 456 564 q 506 476 488 506 q 567 381 536 426 q 635 283 599 335 q 650 310 640 293 q 669 347 660 326 q 684 392 678 368 q 690 444 690 417 q 678 509 690 483 q 638 572 665 535 q 663 587 650 579 q 690 606 676 594 q 751 665 728 633 q 781 708 774 696 q 781 692 781 704 q 785 663 782 679 q 793 626 788 646 q 808 586 799 606 q 828 553 819 565 q 846 531 838 540 q 828 519 836 524 q 811 508 819 514 q 789 490 801 501 q 764 458 776 478 q 735 403 746 431 q 713 347 725 375 q 688 298 701 322 q 661 250 675 274 q 702 201 685 218 q 735 171 719 183 q 762 149 749 158 q 789 139 775 139 q 822 156 807 139 q 865 206 838 172 l 894 182 m 422 625 q 445 642 433 633 q 469 660 457 651 q 543 728 513 693 q 574 807 574 763 q 572 822 574 811 q 563 850 571 833 q 522 888 549 878 q 472 899 496 899 q 440 894 456 899 q 408 876 425 889 q 394 864 403 872 q 379 842 385 856 q 369 792 369 825 q 376 738 369 765 q 392 688 383 711 q 410 649 401 665 q 422 625 418 632 m 313 526 q 268 503 292 515 q 224 474 244 490 q 189 440 203 458 q 175 401 175 422 q 183 365 175 392 q 207 302 190 339 q 252 222 224 265 q 322 135 281 178 q 329 127 322 135 q 347 110 336 119 q 369 94 357 101 q 394 86 382 86 q 417 90 401 86 q 452 104 432 94 q 496 129 472 114 q 542 165 519 144 q 525 192 535 181 q 504 218 515 203 q 468 272 485 246 q 443 309 456 290 q 417 350 431 328 q 367 433 388 396 q 356 452 361 443 q 344 472 350 461 q 330 501 336 486 q 313 526 324 515 z "},"'":{"ha":289,"x_min":99,"x_max":190,"o":"m 132 640 l 100 972 q 99 982 100 978 q 99 992 99 986 q 100 1006 99 997 q 107 1022 101 1014 q 122 1035 113 1029 q 147 1040 132 1040 q 157 1040 150 1040 q 172 1032 164 1039 q 186 1014 183 1025 q 190 990 189 1003 l 151 640 l 132 640 z "},"(":{"ha":579,"x_min":88,"x_max":574,"o":"m 571 969 q 525 950 543 958 q 494 934 507 942 q 469 919 481 926 q 442 901 457 911 q 384 857 419 886 q 313 774 349 828 q 274 705 293 744 q 239 615 254 665 q 213 503 224 564 q 203 374 203 443 q 204 328 203 360 q 211 256 206 297 q 228 165 217 214 q 260 67 239 115 q 290 6 272 36 q 316 -36 307 -24 q 338 -64 325 -49 q 410 -135 372 -107 q 479 -183 447 -164 q 536 -212 511 -201 q 574 -226 561 -222 l 572 -265 q 527 -252 546 -258 q 475 -231 508 -246 q 439 -214 453 -221 q 415 -201 425 -207 q 395 -189 404 -194 q 375 -176 386 -183 q 349 -159 360 -167 q 329 -145 338 -151 q 313 -132 321 -139 q 296 -117 306 -125 q 264 -85 278 -100 q 238 -57 250 -71 q 215 -27 226 -43 q 192 10 204 -11 q 156 71 178 31 q 118 163 135 111 q 103 217 108 190 q 94 272 97 244 q 89 322 90 297 q 88 372 88 347 q 90 426 88 390 q 101 510 92 463 q 132 615 111 558 q 189 729 153 671 q 220 776 206 757 q 244 806 235 794 q 293 855 267 832 q 343 896 319 878 q 385 926 367 914 q 411 942 403 938 q 461 967 435 956 q 510 986 488 978 q 550 1000 533 994 q 572 1008 567 1006 l 571 969 z "},")":{"ha":579,"x_min":3,"x_max":488,"o":"m 4 -225 q 131 -159 83 -193 q 208 -96 179 -125 q 231 -71 219 -83 q 251 -46 242 -58 q 278 -6 264 -29 q 308 56 292 18 q 351 180 329 104 q 372 371 372 256 q 371 419 372 388 q 364 492 369 450 q 347 583 358 533 q 313 683 335 632 q 298 717 306 700 q 279 750 290 733 q 232 815 258 786 q 193 857 206 844 q 156 888 176 874 q 114 915 135 903 q 74 938 93 928 q 40 956 54 949 q 22 963 32 960 q 3 971 13 967 l 3 1010 q 62 990 14 1007 q 172 938 110 974 q 194 924 183 931 q 215 911 204 918 q 236 897 226 904 q 257 881 246 889 q 276 865 267 874 q 294 846 285 856 q 323 816 310 831 q 349 785 336 801 q 375 749 361 769 q 404 700 389 728 q 433 644 418 675 q 460 572 447 613 q 480 483 472 532 q 488 375 488 435 q 486 328 488 357 q 478 261 485 299 q 460 179 472 224 q 425 86 447 135 q 383 8 407 44 q 363 -22 375 -6 q 326 -65 350 -37 q 272 -120 301 -93 q 186 -183 242 -147 q 94 -231 135 -215 q 3 -264 54 -247 l 4 -225 z "},"*":{"ha":521,"x_min":35,"x_max":488,"o":"m 281 981 l 296 831 l 407 928 l 433 903 l 339 789 l 488 774 l 488 738 l 340 724 l 435 608 l 410 583 l 296 675 l 281 528 l 246 528 l 228 672 l 114 583 l 93 606 l 186 722 l 35 739 l 35 771 l 181 788 l 89 904 l 114 928 l 229 833 l 246 981 l 281 981 z "},"+":{"ha":926,"x_min":89,"x_max":838,"o":"m 400 518 l 400 829 l 526 829 l 526 518 l 838 518 l 838 392 l 526 392 l 526 81 l 400 81 l 400 392 l 89 392 l 89 518 l 400 518 z "},",":{"ha":376,"x_min":40,"x_max":310,"o":"m 78 -189 q 97 -174 88 -182 q 115 -158 106 -167 q 178 -88 164 -118 q 192 -33 192 -58 q 185 10 192 -15 q 165 54 178 35 q 144 76 154 71 q 126 81 133 81 q 101 71 113 81 q 65 40 90 61 l 40 68 l 200 217 q 242 183 226 199 q 274 147 258 167 q 297 104 285 133 q 310 38 310 75 q 283 -55 310 -11 q 204 -144 257 -99 q 174 -168 189 -157 q 144 -190 160 -179 q 122 -206 133 -199 q 99 -221 110 -214 l 78 -189 z "},"-":{"ha":347,"x_min":72,"x_max":349,"o":"m 349 497 l 74 363 l 74 489 l 349 624 l 349 497 m 349 289 l 72 151 l 72 279 l 349 414 l 349 289 z "},".":{"ha":376,"x_min":82,"x_max":290,"o":"m 185 225 q 217 182 204 197 q 240 155 229 167 q 262 133 250 143 q 290 104 274 122 q 256 67 269 82 q 233 39 243 53 q 213 9 222 25 q 186 -29 203 -7 q 156 12 171 -8 q 125 53 142 32 q 102 77 114 65 q 82 103 90 89 q 109 131 99 119 q 130 153 119 142 q 153 181 140 165 q 185 225 165 197 z "},"/":{"ha":492,"x_min":6,"x_max":478,"o":"m 478 983 l 74 1 l 6 1 l 411 983 l 478 983 z "},":":{"ha":435,"x_min":138,"x_max":349,"o":"m 239 721 q 267 684 251 706 q 318 629 283 663 q 332 615 325 621 q 346 603 339 610 q 314 567 326 582 q 290 537 301 551 q 268 506 279 522 q 243 469 257 490 q 165 568 204 522 q 138 600 150 583 q 181 644 154 615 q 239 721 207 672 m 244 224 q 277 182 264 199 q 301 153 290 165 q 322 130 311 140 q 349 106 333 119 q 331 83 342 94 q 308 58 319 71 q 276 15 290 36 q 246 -29 261 -7 q 221 6 233 -11 q 193 40 208 24 q 167 72 181 56 q 142 103 154 88 q 163 123 153 113 q 185 147 174 133 q 211 179 197 161 q 244 224 225 197 z "},";":{"ha":435,"x_min":100,"x_max":369,"o":"m 260 725 q 297 676 275 704 q 364 603 319 647 q 330 567 343 582 q 306 538 317 551 q 285 508 296 524 q 260 472 274 493 q 251 483 256 478 q 243 494 247 488 q 224 522 233 508 q 203 549 214 535 q 179 576 192 563 q 156 603 167 590 q 188 636 169 618 q 222 672 207 654 q 242 698 233 685 q 260 725 250 711 m 136 -187 q 194 -140 172 -161 q 229 -100 217 -118 q 246 -65 242 -82 q 250 -31 250 -49 q 249 -18 250 -28 q 245 6 249 -8 q 235 34 242 19 q 218 61 229 49 q 199 77 207 74 q 185 81 192 81 q 160 71 174 81 q 124 42 147 61 l 100 69 q 184 149 147 117 q 260 217 221 182 q 285 198 275 206 q 301 183 294 190 q 322 161 310 175 q 344 130 333 147 q 362 90 354 113 q 369 39 369 67 q 360 -17 369 8 q 338 -62 351 -42 q 310 -100 325 -83 q 281 -129 294 -117 q 256 -151 268 -140 q 229 -171 243 -161 q 215 -181 222 -176 q 201 -190 208 -185 q 191 -199 196 -194 q 181 -206 186 -203 q 168 -213 174 -210 q 157 -219 163 -217 l 136 -187 z "},"<":{"ha":956,"x_min":43,"x_max":899,"o":"m 564 994 l 558 890 l 558 619 l 725 749 q 815 687 772 717 q 899 633 858 657 q 888 608 892 618 q 882 592 883 599 q 880 578 881 585 q 878 563 879 571 l 882 154 q 876 115 882 133 q 856 75 871 97 q 818 26 842 53 q 758 -40 794 -1 q 733 -68 746 -56 q 707 -94 719 -81 q 672 -128 689 -111 q 638 -160 654 -144 q 592 -201 614 -181 q 547 -240 571 -221 l 528 -219 q 608 -135 572 -172 q 676 -54 644 -99 q 707 3 696 -26 q 724 61 718 32 q 731 119 729 90 q 732 176 732 149 q 695 140 713 158 q 660 103 678 122 q 633 75 647 89 q 607 47 619 61 q 580 15 593 31 q 554 -15 567 0 q 517 13 535 -1 q 479 40 500 26 q 433 65 458 53 q 371 92 407 78 q 344 71 356 81 q 319 49 332 61 q 292 21 307 38 q 256 -21 276 4 q 206 10 231 -6 q 160 36 181 25 q 101 66 131 53 q 43 93 72 79 q 57 118 51 107 q 67 142 63 129 q 75 169 72 154 q 79 210 78 185 l 79 479 l 75 590 l 306 750 q 340 714 326 728 q 366 690 354 700 q 388 673 378 681 q 413 657 399 665 l 413 813 q 411 849 413 819 q 397 907 410 879 q 390 921 396 908 q 376 940 383 933 q 360 954 369 947 q 342 968 351 961 l 361 994 q 412 958 393 979 q 451 903 431 936 l 542 1003 l 564 994 m 732 474 q 728 526 731 500 q 711 578 726 553 q 700 594 704 589 q 692 603 696 599 q 674 617 686 608 q 649 626 663 626 q 609 611 631 626 q 576 578 588 596 q 565 547 568 564 q 560 510 561 529 q 558 474 558 492 q 558 443 558 457 q 557 415 557 429 q 557 386 557 401 q 556 336 557 361 q 557 286 556 311 q 558 265 557 275 q 558 244 558 256 q 558 209 558 232 q 564 174 558 186 q 595 146 575 151 q 619 140 615 140 q 627 141 622 140 q 639 146 632 142 q 662 162 649 151 q 689 184 675 172 q 714 207 703 196 q 732 225 725 218 l 732 474 m 381 119 q 390 129 383 122 q 400 143 396 136 q 408 178 407 157 q 413 232 410 200 l 413 610 q 383 585 397 597 q 353 561 368 574 q 331 542 339 550 q 317 533 324 533 q 309 537 313 535 q 297 546 306 539 q 285 553 290 550 q 274 563 281 557 q 263 571 268 567 q 253 578 258 575 q 240 588 247 583 q 226 600 233 593 q 228 501 228 547 q 228 401 228 454 q 227 342 228 376 q 228 276 226 308 q 228 249 228 261 q 229 226 229 238 q 232 199 231 211 q 240 177 233 188 q 264 156 247 167 q 313 132 281 146 q 342 122 333 124 q 364 119 350 119 l 381 119 z "},"=":{"ha":926,"x_min":89,"x_max":838,"o":"m 838 681 l 838 554 l 89 554 l 89 681 l 838 681 m 838 360 l 838 233 l 89 233 l 89 360 l 838 360 z "},">":{"ha":983,"x_min":44,"x_max":1029,"o":"m 590 993 q 585 948 588 971 q 582 896 583 925 l 582 618 l 743 732 q 756 730 750 731 q 768 726 761 729 q 783 724 771 726 q 810 714 794 721 q 842 695 825 707 q 872 665 858 683 q 894 622 889 644 q 899 592 899 600 q 860 516 897 549 q 779 456 822 483 q 812 441 796 449 q 846 425 828 433 q 867 413 857 418 q 883 399 878 407 q 890 381 889 390 q 892 354 890 372 q 893 337 893 346 q 894 319 893 328 q 900 265 897 292 q 906 211 903 238 q 913 167 908 185 q 931 142 918 149 q 936 140 932 142 q 944 139 940 139 q 972 154 960 139 q 999 196 983 169 l 1029 181 l 918 -21 q 891 -10 906 -15 q 858 3 876 -4 q 822 17 832 13 q 800 29 811 22 q 777 60 782 40 q 767 114 772 81 q 761 154 764 133 q 756 196 758 175 q 716 164 736 181 q 676 129 696 147 q 664 119 669 124 q 651 107 658 114 q 620 76 636 92 q 590 43 604 60 q 565 11 576 28 q 542 -19 553 -6 q 535 -8 539 -14 q 526 1 531 -3 q 492 35 518 13 q 432 72 465 58 q 408 81 418 79 q 390 85 397 83 q 331 51 367 74 q 256 -19 296 29 q 201 13 228 -3 q 151 42 175 29 q 99 69 125 57 q 44 94 72 81 q 58 119 51 107 q 71 144 65 132 q 82 207 82 174 q 82 300 82 240 l 82 482 q 81 536 82 510 q 79 589 79 563 l 299 743 q 337 711 321 724 q 367 688 353 699 q 397 668 382 678 q 436 646 413 658 q 436 721 436 683 q 435 794 436 758 q 434 840 435 821 q 431 872 433 858 q 422 898 428 886 q 407 924 417 910 q 390 946 396 939 q 368 964 383 953 q 374 979 371 975 q 383 994 376 983 q 439 953 421 975 q 476 903 457 931 q 499 931 488 918 q 524 960 511 944 q 544 981 535 971 q 565 1003 554 992 l 590 993 m 583 403 q 626 422 604 413 q 668 442 647 431 q 691 453 671 443 q 728 483 711 464 q 742 503 736 492 q 747 532 747 514 q 747 544 747 536 q 742 564 746 553 q 735 577 740 568 q 721 596 729 586 q 700 613 713 606 q 672 621 688 621 q 640 613 654 621 q 619 600 626 604 q 597 577 604 589 q 586 550 589 565 q 583 516 583 535 q 582 472 582 497 q 582 438 582 454 q 583 403 582 421 m 231 296 q 230 269 231 285 q 231 236 229 253 q 238 186 232 204 q 269 151 244 168 q 294 138 279 144 q 324 125 308 131 q 353 115 339 119 q 375 111 367 111 q 390 113 379 111 q 411 126 401 115 q 431 169 429 144 q 435 222 433 194 q 437 301 438 263 q 436 372 436 340 q 436 493 436 436 q 435 613 436 550 q 401 585 418 600 q 364 554 383 569 q 342 533 349 540 q 328 526 336 526 q 317 531 321 526 q 301 542 313 535 q 272 563 285 551 q 251 577 261 569 q 231 593 242 585 q 230 519 229 557 q 231 446 231 482 q 230 401 231 424 q 231 356 229 379 l 231 296 m 750 240 q 745 297 749 264 q 729 353 742 329 q 706 378 722 365 q 663 390 689 390 q 640 388 657 390 q 607 369 624 386 q 597 358 603 365 q 589 343 592 351 q 583 251 583 326 q 585 195 583 210 q 597 167 586 181 q 621 153 608 153 q 639 157 631 153 q 650 163 647 161 q 690 190 665 172 q 750 240 714 208 z "},"?":{"ha":636,"x_min":81,"x_max":575,"o":"m 471 375 q 465 355 468 364 q 458 342 461 346 q 428 306 450 326 q 372 286 407 286 q 315 310 338 286 q 292 368 292 333 q 321 451 293 413 q 381 535 349 490 q 420 592 408 572 q 432 632 432 613 q 431 643 432 638 q 425 660 431 649 q 403 693 421 671 q 363 739 386 715 q 340 763 353 749 q 311 789 326 776 q 281 810 296 801 q 256 819 267 819 q 248 818 254 819 q 235 813 242 817 q 226 807 233 813 q 210 793 218 801 q 194 774 201 785 q 188 754 188 764 q 189 744 188 747 q 192 738 190 740 q 203 722 196 731 q 218 707 210 714 q 235 694 226 700 q 250 689 243 689 q 265 694 258 689 q 288 711 272 699 q 300 722 294 718 q 311 732 306 726 l 336 707 q 196 571 269 638 q 176 589 186 581 q 156 608 167 597 q 133 631 144 619 q 113 654 122 643 q 88 685 94 675 q 81 707 81 696 q 85 722 81 714 q 100 744 89 729 q 108 753 104 749 q 115 761 111 757 q 179 825 144 793 q 246 883 214 857 q 301 926 278 908 q 331 949 325 944 q 401 899 376 919 q 450 854 425 878 q 513 792 482 824 q 536 763 528 775 q 550 744 543 753 q 563 724 557 735 q 575 679 575 703 q 565 640 575 660 q 540 600 556 619 q 505 561 524 581 q 468 524 486 542 q 434 490 451 507 q 401 456 417 472 q 356 401 369 421 q 344 365 343 382 q 346 352 344 360 q 358 336 347 344 q 367 331 361 333 q 379 329 372 329 q 403 338 393 329 q 421 358 414 347 q 431 377 428 368 q 435 386 435 386 l 471 375 m 256 113 q 322 183 300 154 q 358 233 343 211 q 367 223 363 228 q 374 214 371 218 q 388 194 381 204 q 406 174 396 185 q 429 149 413 167 q 465 114 446 132 q 435 76 450 94 q 404 40 419 58 q 383 10 393 25 q 361 -19 372 -4 l 256 113 z "},"@":{"ha":1274,"x_min":56,"x_max":1254,"o":"m 793 628 l 958 635 l 833 208 q 819 133 824 160 q 814 101 814 107 q 829 65 814 82 q 867 49 844 49 q 1050 161 954 49 q 1161 471 1161 293 q 1051 768 1161 649 q 726 899 931 899 q 282 703 450 899 q 126 272 126 525 q 282 -118 126 29 q 657 -262 431 -262 q 967 -179 822 -262 q 1213 113 1139 -79 l 1254 113 q 1138 -86 1211 0 q 656 -300 957 -300 q 229 -136 397 -300 q 56 296 56 33 q 235 751 56 568 q 711 940 419 940 q 1083 796 950 940 q 1199 483 1199 668 q 1092 151 1199 292 q 792 0 975 0 q 671 56 706 0 q 654 117 654 85 q 671 211 654 167 l 668 214 q 436 0 546 0 q 346 53 375 0 q 322 150 322 93 q 386 404 322 282 q 450 503 414 458 q 529 585 486 549 q 674 653 610 653 q 768 547 756 653 l 771 547 l 793 628 m 689 604 q 632 567 657 604 q 538 372 576 486 q 497 186 497 256 q 509 142 497 161 q 538 124 521 124 q 661 253 588 124 q 739 517 739 392 q 689 604 739 604 z "},"A":{"ha":983,"x_min":36,"x_max":1013,"o":"m 768 1003 l 788 994 l 783 882 l 783 324 q 785 274 783 299 q 789 226 786 250 q 821 174 797 186 q 829 171 824 172 q 838 169 835 169 q 850 172 842 169 l 850 1004 l 889 1004 l 889 193 l 983 299 l 1013 275 l 767 -18 q 711 9 731 -6 q 679 39 692 24 q 664 59 672 47 q 647 89 656 71 q 624 166 628 131 q 619 214 621 201 q 553 131 583 172 q 528 99 540 115 q 504 68 515 83 q 475 26 489 47 q 447 -17 461 4 q 406 15 425 0 q 365 44 388 29 q 342 59 354 51 q 318 74 331 67 q 244 113 282 94 q 171 131 206 131 q 126 118 147 131 q 61 68 106 106 l 36 99 q 60 122 47 110 q 86 144 74 133 q 108 165 97 156 q 129 183 118 174 q 160 211 144 197 q 190 240 175 225 q 215 263 203 251 q 239 286 226 275 q 295 343 268 314 q 351 403 322 372 q 321 406 342 404 q 274 416 300 408 q 219 439 249 424 q 163 482 190 454 q 135 513 144 500 q 121 532 125 526 q 92 596 106 556 q 78 693 78 636 q 88 780 78 746 q 111 838 99 814 q 125 863 118 850 q 142 886 132 875 q 170 920 154 904 q 201 949 186 936 q 228 969 217 961 q 243 981 240 978 q 258 990 247 983 q 285 1004 269 997 q 317 1017 300 1011 q 351 1022 335 1022 q 401 1015 371 1022 q 450 1001 432 1008 q 524 957 492 985 q 579 897 557 929 q 598 867 589 883 q 618 818 607 850 l 768 1003 m 321 697 q 344 690 328 694 q 382 686 361 686 q 410 690 394 686 q 438 700 425 693 q 461 719 451 707 q 471 750 471 732 q 460 790 471 767 q 432 833 450 813 q 413 852 422 844 q 401 863 404 860 q 387 874 399 865 q 363 889 375 882 q 308 905 335 903 q 278 907 282 907 q 265 906 274 907 q 244 903 256 906 q 198 874 224 896 q 157 828 172 853 q 133 774 144 808 q 121 692 121 739 q 133 608 121 647 q 175 529 144 569 q 196 507 182 521 q 229 480 210 493 q 272 458 249 467 q 319 449 294 449 q 348 452 335 449 q 375 467 361 456 q 405 507 401 486 q 408 535 408 528 q 392 599 408 572 q 360 638 375 625 q 335 657 349 649 q 308 674 322 665 l 321 697 m 625 732 q 609 693 617 710 q 594 661 601 676 q 576 629 586 646 q 551 590 565 613 q 516 538 533 563 q 480 490 499 514 q 440 442 461 467 q 393 390 418 418 q 340 333 367 361 q 286 276 314 306 q 313 269 300 274 q 338 261 325 265 q 405 231 372 249 q 447 207 438 214 q 485 183 467 196 q 522 158 503 171 q 569 216 546 186 q 618 278 593 246 q 619 440 619 367 q 622 571 619 513 q 624 620 622 594 q 625 672 625 646 q 626 702 626 688 q 625 732 625 717 z "},"B":{"ha":1071,"x_min":0,"x_max":1046,"o":"m 750 1046 l 721 1007 q 739 988 728 999 q 774 960 750 976 q 824 931 792 946 q 901 915 857 915 q 953 927 935 915 q 985 951 971 939 l 1008 925 l 763 690 q 851 663 810 679 q 938 607 892 647 q 986 553 968 579 q 1010 515 1004 526 q 1017 499 1014 507 q 1025 482 1021 490 q 1043 413 1040 440 q 1046 368 1046 386 q 1043 322 1046 356 q 1026 250 1040 289 q 1001 199 1019 231 q 935 122 982 167 q 892 87 922 111 q 820 39 861 63 q 731 -3 779 15 q 636 -21 683 -21 q 594 -17 617 -21 q 557 -8 572 -14 q 538 -1 549 -6 q 519 7 528 3 q 483 24 499 17 q 451 42 468 31 q 401 70 426 56 q 349 97 375 85 q 299 118 324 110 q 250 126 274 126 q 228 124 244 126 q 193 114 211 122 q 148 77 168 100 q 114 32 128 54 q 85 -24 97 6 l 54 -12 q 57 1 56 -6 q 61 15 58 8 q 86 70 68 32 q 136 156 104 108 q 179 211 156 183 q 220 259 201 238 q 258 310 239 281 q 271 332 267 322 q 278 344 275 342 q 286 394 285 363 q 288 446 288 426 l 174 481 l 174 507 l 292 589 q 290 642 290 617 q 289 694 290 668 q 287 725 288 710 q 283 756 286 740 q 276 785 281 771 q 268 813 272 799 q 238 789 253 801 q 208 764 224 776 l 171 731 l 142 760 q 130 772 135 767 q 119 783 125 778 q 106 794 113 789 q 93 806 100 799 q 65 829 82 817 q 38 842 49 842 q 18 831 31 842 l 0 851 q 24 876 11 863 q 50 903 36 889 q 66 917 58 910 q 81 931 74 924 q 110 960 100 949 q 129 971 119 971 q 138 967 133 971 q 149 961 143 964 q 176 942 163 951 q 206 919 190 932 q 240 890 221 907 q 282 850 258 872 q 304 868 293 860 q 325 886 315 876 q 378 952 363 922 q 400 997 393 982 l 418 1000 q 431 952 425 975 q 440 902 436 929 q 446 841 443 875 q 450 760 449 807 q 452 706 451 732 q 453 653 453 681 q 451 572 453 613 q 451 489 450 531 l 451 442 q 451 419 451 431 q 450 397 450 408 q 449 371 450 385 q 435 346 447 357 q 417 333 425 336 q 392 319 408 329 q 369 308 381 314 q 347 296 358 303 q 325 283 336 289 q 303 271 314 278 q 275 251 289 263 q 300 253 288 253 q 324 254 313 254 q 382 247 353 253 q 436 233 411 240 q 479 217 461 225 q 506 207 497 210 l 506 731 q 503 813 504 771 q 496 894 501 854 q 485 967 492 931 q 472 1040 479 1004 l 510 1049 q 526 967 519 1008 q 533 919 531 943 q 539 871 536 894 q 558 890 549 881 q 578 911 568 900 q 602 938 590 925 q 625 963 614 950 q 642 981 633 972 q 658 997 650 989 q 694 1034 678 1017 q 725 1068 710 1051 l 750 1046 m 543 818 l 546 550 q 571 570 558 560 q 599 592 583 581 q 636 625 618 608 q 671 657 654 642 q 690 674 681 665 q 710 693 699 683 q 751 732 733 714 q 792 772 769 750 q 763 778 776 775 q 735 788 750 782 q 649 836 681 808 q 600 879 617 864 l 543 818 m 546 188 q 587 169 565 179 q 639 146 608 160 q 685 124 664 133 q 729 103 706 114 q 760 91 753 93 q 776 89 768 89 q 810 97 794 89 q 832 111 825 106 q 880 174 860 135 q 900 271 900 213 q 896 316 900 286 q 875 386 892 346 q 867 403 874 389 q 849 435 861 417 q 817 476 836 454 q 772 515 799 497 q 710 546 743 536 q 657 556 676 556 q 590 536 617 556 q 546 501 563 517 l 546 188 z "},"C":{"ha":897,"x_min":89,"x_max":985,"o":"m 985 874 l 793 747 q 755 781 774 763 q 715 818 736 799 q 670 860 685 847 q 635 872 656 872 q 601 866 622 872 q 549 851 579 860 q 553 779 549 814 q 556 742 554 760 q 560 704 557 724 q 567 641 564 672 q 571 578 571 610 q 570 553 571 572 q 558 514 569 533 q 467 418 535 471 q 306 301 399 365 q 315 287 310 293 q 331 267 319 281 q 376 219 351 239 q 423 185 400 199 q 463 163 446 171 q 488 153 481 156 q 504 145 497 149 q 518 139 511 142 q 569 125 533 133 q 646 117 604 117 q 724 125 683 117 q 835 169 788 139 q 908 217 883 199 l 938 183 q 908 158 926 174 q 865 122 889 142 q 813 81 842 103 q 754 40 785 60 q 674 1 724 21 q 550 -19 625 -19 q 517 -18 539 -19 q 467 -11 496 -17 q 406 5 439 -6 q 338 32 372 15 q 297 54 317 42 q 260 79 278 67 q 200 133 231 101 q 144 208 169 165 q 104 306 119 251 q 89 428 89 361 q 92 478 89 442 q 110 562 94 514 q 160 663 125 610 q 257 764 194 715 q 325 808 285 785 q 428 858 365 831 q 463 909 447 888 q 494 947 479 931 q 521 975 508 963 q 547 1001 533 988 l 575 983 q 561 949 567 964 q 549 899 556 933 l 790 1021 q 819 960 804 988 q 831 944 822 956 q 851 922 839 933 q 878 901 863 910 q 914 893 894 893 q 935 896 924 893 q 965 906 946 899 l 985 874 m 399 793 q 354 762 369 774 q 325 735 339 750 q 268 649 293 703 q 243 517 243 596 q 245 467 243 489 q 253 426 247 446 q 266 384 258 406 q 285 336 274 363 q 345 381 325 364 q 378 418 365 399 q 395 460 390 438 q 400 524 400 483 q 394 613 400 568 q 388 704 388 658 q 391 749 388 726 q 399 793 394 771 z "},"D":{"ha":1186,"x_min":-1,"x_max":1164,"o":"m 208 990 q 192 971 203 983 q 182 947 182 958 q 197 930 182 936 q 219 922 213 924 q 272 916 235 918 q 353 914 308 914 q 464 917 408 914 q 575 921 519 921 q 714 914 646 921 q 844 887 782 907 q 963 831 907 867 q 1068 739 1019 796 q 1096 702 1079 725 q 1128 647 1113 679 q 1153 572 1143 614 q 1164 479 1164 529 q 1161 429 1164 458 q 1148 365 1158 400 q 1118 290 1138 329 q 1065 210 1099 250 q 1002 142 1029 165 q 956 104 975 119 q 918 76 933 88 q 890 56 903 64 q 867 41 878 47 q 843 28 856 35 q 765 -9 804 6 q 679 -24 725 -24 q 598 -13 649 -24 q 478 25 547 -3 q 378 64 425 46 q 274 82 332 82 q 250 81 268 82 q 213 78 232 81 q 118 47 153 67 q 63 13 83 28 l 40 39 q 74 74 54 53 q 114 135 93 94 q 144 210 131 165 q 158 332 158 254 q 158 367 158 350 q 156 404 157 385 q 155 413 156 404 q 151 431 154 421 q 144 452 149 442 q 131 469 139 463 q 107 476 122 476 q 79 472 92 476 q 51 464 67 468 l 39 494 q 99 526 69 510 q 160 558 129 543 q 227 593 193 576 q 294 628 261 610 q 418 696 354 660 q 478 729 449 713 q 539 764 508 746 q 503 765 524 767 q 451 761 483 764 q 311 757 382 757 q 272 757 299 757 q 212 761 246 757 q 139 775 178 765 q 63 803 100 785 q -1 840 32 818 q 28 872 14 858 q 60 900 43 885 q 90 928 75 915 q 121 956 106 942 q 152 985 136 971 q 185 1013 168 999 l 208 990 m 351 224 q 388 223 358 224 q 446 218 417 222 q 563 188 510 208 q 676 144 615 167 q 706 135 692 140 q 736 128 721 131 q 766 120 742 126 q 814 114 790 114 q 866 125 840 114 q 924 179 892 136 q 945 215 933 192 q 968 268 957 238 q 987 337 979 299 q 994 419 994 375 q 969 560 994 507 q 921 640 944 613 q 887 674 903 661 q 864 693 871 688 q 783 734 840 711 q 646 757 726 757 q 630 756 643 757 q 606 753 617 756 q 578 747 593 751 q 553 733 564 743 q 534 704 542 722 q 526 657 526 686 q 531 600 526 639 q 543 513 536 561 q 545 503 543 511 q 549 483 547 494 q 553 457 551 471 q 554 432 554 443 q 532 361 554 393 q 480 315 517 339 q 393 253 443 290 l 351 224 m 375 631 q 346 612 356 618 q 330 601 336 606 q 317 590 324 596 q 299 574 311 585 q 296 550 297 563 q 294 526 294 538 q 304 444 294 486 q 314 361 314 401 q 291 275 314 311 q 236 203 268 239 q 213 175 225 189 q 189 147 200 161 q 286 216 250 189 q 346 267 322 243 q 376 304 360 282 q 393 374 393 326 q 390 417 393 393 q 379 479 386 440 q 373 528 374 511 q 372 563 372 546 q 373 596 372 579 q 375 631 374 613 z "},"E":{"ha":983,"x_min":25,"x_max":1021,"o":"m 1021 921 q 984 879 1003 900 q 946 839 965 858 q 919 808 932 825 q 892 781 906 794 q 865 753 878 767 q 849 736 857 744 q 835 721 842 728 q 813 699 824 710 q 793 679 803 689 q 757 641 775 660 q 719 603 739 622 q 761 585 740 594 q 803 561 782 575 q 837 540 818 551 q 871 529 856 529 q 906 542 889 529 q 954 582 922 554 l 981 556 q 935 512 957 533 q 889 469 913 490 q 851 436 869 453 q 813 404 832 419 q 789 385 801 393 q 765 376 776 376 q 735 387 750 376 q 692 414 719 397 q 663 431 678 422 q 632 449 647 440 q 613 458 629 450 q 581 467 596 467 q 554 456 564 465 q 542 439 544 446 q 540 431 540 435 q 538 424 539 428 q 533 413 535 418 q 528 401 531 407 q 511 372 521 388 q 475 331 501 356 q 401 267 436 292 q 326 219 365 243 q 370 217 349 218 q 414 214 392 217 q 482 201 446 210 q 531 190 506 196 q 579 176 556 185 q 632 160 603 169 q 692 142 661 150 q 753 127 724 133 q 807 121 783 121 q 874 130 843 121 q 915 146 904 139 q 939 167 924 151 q 926 184 932 176 q 919 203 919 192 q 936 240 919 224 q 975 257 953 257 q 999 245 989 257 q 1010 218 1010 233 q 988 163 1010 196 q 911 86 965 129 q 871 57 897 75 q 809 22 844 39 q 732 -7 774 6 q 647 -19 690 -19 q 609 -17 628 -19 q 568 -9 590 -14 q 517 5 546 -4 q 451 26 489 14 q 403 44 428 35 q 356 60 379 53 q 272 85 301 79 q 215 90 243 90 q 170 85 190 90 q 131 67 150 79 q 94 37 113 56 q 54 -10 76 18 l 25 13 q 89 110 58 60 q 131 194 108 143 q 154 321 154 246 q 148 388 154 357 q 139 428 142 418 q 126 466 136 442 q 103 501 115 490 q 80 515 92 514 q 54 519 68 517 l 46 543 l 253 679 q 253 639 253 657 q 256 603 254 621 q 263 568 258 586 q 274 528 267 550 q 301 449 285 492 q 317 371 317 407 q 309 326 317 347 q 289 285 301 306 q 260 243 276 264 q 225 199 243 222 q 259 219 242 208 q 296 243 276 231 q 319 261 303 249 q 353 292 336 274 q 381 334 369 311 q 393 385 393 357 q 391 411 393 399 q 384 438 389 424 q 373 472 379 453 q 358 517 367 490 q 340 576 351 535 q 329 668 329 618 q 330 697 329 679 q 335 726 331 715 q 346 744 339 736 q 360 760 353 753 q 373 771 367 767 q 379 775 379 775 q 393 788 386 782 q 407 799 400 793 q 425 813 417 806 q 442 828 433 821 q 557 919 500 874 q 669 1004 614 964 q 696 983 683 993 q 722 964 708 974 q 763 938 739 951 q 811 913 786 925 q 860 894 836 901 q 901 886 883 886 q 931 893 921 886 q 967 916 954 903 q 994 946 979 929 l 1021 921 m 546 856 q 502 793 518 821 q 486 729 486 765 q 490 697 486 717 q 498 653 493 676 q 508 610 503 631 q 517 578 514 590 q 526 552 521 565 q 533 525 531 539 q 538 506 536 515 q 543 486 540 496 q 582 522 564 506 q 619 556 600 538 q 651 586 636 572 q 685 619 665 600 q 718 654 704 639 q 747 688 732 669 q 772 731 772 718 q 769 740 772 733 q 760 754 767 747 q 727 778 754 760 q 668 813 700 797 q 628 833 644 825 q 597 844 611 840 q 572 851 583 849 q 546 856 560 854 z "},"F":{"ha":636,"x_min":-82,"x_max":754,"o":"m 754 972 q 708 918 731 944 q 665 864 685 892 q 642 835 658 853 q 597 817 625 817 q 569 820 586 817 q 533 829 551 824 q 497 840 514 835 q 469 849 479 846 l 469 636 l 617 636 l 583 493 l 468 493 l 468 -100 l 431 -100 l 429 858 q 415 844 425 854 q 400 828 404 833 q 384 776 386 808 q 382 725 382 744 l 382 174 q 378 122 381 142 q 372 88 376 103 q 358 58 367 72 q 335 26 349 44 q 318 6 326 15 q 300 -15 310 -4 q 276 -38 289 -26 q 253 -61 264 -50 q 224 -87 238 -75 q 196 -112 211 -100 q 157 -144 176 -129 q 117 -175 138 -160 q 78 -162 97 -168 q 39 -144 58 -156 q 8 -129 24 -137 q -22 -121 -7 -121 q -46 -125 -33 -121 q -61 -129 -58 -129 l -82 -106 q -26 -61 -54 -82 q 29 -24 1 -40 q 60 -5 50 -11 q 82 1 71 1 q 110 -6 97 1 q 151 -26 124 -14 q 190 -40 179 -40 q 217 -37 201 -40 q 224 -26 221 -32 q 231 -14 228 -21 q 241 29 239 6 q 243 96 243 53 q 240 198 243 147 q 231 301 236 249 q 225 349 228 325 q 215 397 222 374 q 206 422 211 410 q 197 447 201 435 l 53 449 q 107 536 78 492 q 123 560 117 551 q 138 574 129 568 q 154 578 143 576 q 178 581 165 581 q 203 583 192 582 q 219 583 214 583 q 219 626 219 606 q 217 668 218 647 q 217 694 217 681 q 217 719 218 707 q 220 751 214 742 q 246 782 226 761 q 269 805 257 793 q 294 829 282 817 q 321 855 310 844 q 346 881 332 865 q 363 896 356 889 q 379 913 371 903 q 397 928 388 919 q 413 944 406 938 q 418 949 415 947 q 424 954 421 951 q 431 963 428 958 q 440 971 435 967 q 459 990 451 982 q 481 1010 467 997 q 592 978 546 990 q 665 965 638 965 q 693 970 682 965 q 732 996 704 975 l 754 972 z "},"G":{"ha":1042,"x_min":88,"x_max":1083,"o":"m 431 1015 q 437 996 435 1004 q 441 978 439 988 q 445 956 443 968 q 450 922 447 943 q 456 883 453 903 q 461 844 458 864 q 497 867 479 856 q 533 892 515 879 q 572 920 553 906 q 610 950 590 935 q 649 983 631 965 q 689 1015 668 1000 q 704 991 696 1003 q 721 968 713 979 q 729 958 725 963 q 738 949 733 954 q 752 931 749 935 q 768 917 756 928 q 803 888 781 906 q 861 853 825 871 q 901 838 876 846 q 942 829 925 829 q 949 830 946 829 q 961 833 953 831 q 963 844 963 842 q 963 851 963 846 q 947 889 960 869 q 924 922 935 908 l 1036 1013 l 1065 946 q 1078 920 1072 933 q 1083 893 1083 907 q 1075 872 1083 878 q 1046 851 1067 865 q 978 808 1013 829 q 910 768 944 788 q 858 738 888 753 q 846 730 851 733 q 833 724 840 726 q 809 708 814 713 q 790 700 804 704 q 665 785 726 740 q 635 808 647 797 q 612 824 622 818 q 591 834 601 831 q 568 838 581 838 q 523 828 546 838 q 464 794 500 818 l 468 707 l 468 553 q 551 602 511 579 q 635 644 590 625 q 688 665 665 658 q 744 681 710 672 q 763 678 747 681 q 793 669 778 675 q 847 647 810 664 q 921 592 885 629 q 953 553 940 572 q 969 528 965 535 q 985 493 979 511 q 999 449 992 476 q 1007 379 1007 422 q 1003 327 1007 357 q 986 264 999 297 q 950 194 974 231 q 886 122 926 158 q 854 96 875 113 q 803 63 833 79 q 757 39 786 53 q 688 12 728 25 q 598 -10 647 -1 q 493 -19 549 -19 q 452 -18 478 -19 q 392 -8 426 -17 q 310 23 363 -1 q 201 103 257 47 q 168 142 188 117 q 131 202 149 167 q 100 283 113 238 q 88 386 88 329 q 92 450 88 414 q 113 528 97 486 q 160 613 129 569 q 242 701 190 657 q 329 766 282 738 q 422 822 376 794 q 422 834 422 829 q 421 846 421 839 l 408 938 q 401 976 406 957 q 393 1015 397 996 l 431 1015 m 428 492 q 429 593 428 543 q 428 694 431 643 q 427 731 428 713 q 425 767 426 749 q 405 749 422 764 q 372 715 388 733 q 315 628 336 674 q 283 540 293 582 q 269 465 272 499 q 267 414 267 432 q 273 338 267 388 q 311 229 279 289 q 324 208 314 224 q 347 176 333 192 q 385 138 367 153 q 428 108 404 124 l 428 492 m 467 90 q 478 85 474 88 q 489 81 483 83 q 536 66 506 74 q 611 58 567 58 q 640 60 624 58 q 676 67 657 61 q 717 83 696 72 q 761 114 738 94 q 808 169 790 140 q 834 224 825 197 q 845 273 843 250 q 847 310 847 296 q 846 330 847 315 q 841 363 844 344 q 831 401 838 381 q 814 442 825 422 q 795 468 804 457 q 782 483 786 479 q 767 497 781 485 q 743 518 754 510 q 694 541 728 528 q 615 554 661 554 q 583 551 599 554 q 551 543 568 549 q 513 528 533 538 q 467 501 493 518 l 467 90 z "},"H":{"ha":1100,"x_min":0,"x_max":1081,"o":"m 433 985 l 426 893 l 426 299 q 421 282 424 285 q 405 266 417 274 q 379 251 393 258 q 352 239 365 244 q 332 231 339 233 q 365 224 350 226 q 397 215 381 221 q 433 201 413 210 q 483 178 453 193 l 483 994 l 522 994 l 522 703 l 721 851 q 744 849 728 850 q 781 843 761 847 q 810 835 790 840 q 853 819 829 829 q 903 794 876 808 q 953 758 929 779 q 969 744 957 756 q 992 718 981 733 q 1014 687 1001 707 q 1038 640 1026 667 q 1056 578 1049 613 q 1064 504 1064 544 q 1055 420 1064 472 q 1010 299 1046 368 q 949 203 982 244 q 879 117 917 163 q 847 76 864 97 q 817 31 831 54 q 794 -17 803 8 q 785 -69 785 -43 q 814 -144 786 -114 q 886 -175 842 -175 q 938 -162 914 -175 q 978 -134 961 -150 q 1006 -103 996 -118 q 1019 -86 1017 -89 q 1032 -66 1026 -76 q 1044 -44 1038 -56 l 1081 -64 q 1060 -100 1072 -83 q 1046 -121 1049 -117 q 1026 -147 1039 -131 q 992 -178 1013 -162 q 942 -206 971 -194 q 876 -218 914 -218 q 803 -202 831 -218 q 763 -174 776 -186 q 753 -165 760 -172 q 740 -151 747 -158 q 734 -142 738 -147 q 725 -126 731 -137 q 702 -83 714 -108 q 690 -10 690 -57 q 697 47 690 24 q 708 83 704 71 q 763 178 729 135 q 828 269 797 222 q 844 295 833 278 q 865 337 854 313 q 883 390 875 361 q 890 453 890 419 q 886 503 890 469 q 864 578 882 538 q 856 592 861 582 q 844 613 851 601 q 822 639 838 622 q 781 670 806 656 q 725 696 757 685 q 654 707 693 707 q 567 688 597 707 q 522 654 538 669 l 522 158 q 548 151 538 154 q 572 149 558 149 q 612 160 592 149 q 664 196 632 172 l 683 163 q 644 136 664 149 q 604 110 624 124 q 561 82 582 96 q 518 53 540 68 q 469 19 493 36 q 419 -17 444 1 q 406 5 413 -6 q 392 25 399 15 q 375 44 386 32 q 347 71 364 57 q 308 97 331 85 q 258 117 286 110 q 211 122 244 122 q 154 117 179 122 q 110 103 129 111 q 75 88 90 96 q 49 74 60 79 l 31 107 q 94 141 63 124 q 158 176 126 158 q 210 207 190 194 q 241 232 231 219 q 256 259 251 244 q 260 297 260 274 l 260 436 q 231 456 244 449 q 205 469 218 464 q 178 481 192 475 q 146 493 164 486 l 146 517 l 261 564 l 261 811 l 178 725 q 139 759 158 742 q 99 792 119 776 q 64 818 79 807 q 39 829 49 829 q 22 819 32 829 l 0 838 q 38 882 14 857 q 101 944 61 907 q 113 954 104 947 q 131 961 121 961 q 149 954 138 961 q 175 936 160 947 q 235 894 207 914 q 292 850 263 874 q 354 921 325 883 q 413 994 383 958 l 433 985 z "},"I":{"ha":694,"x_min":1,"x_max":621,"o":"m 621 997 q 613 878 615 939 q 611 745 610 811 q 613 613 613 679 q 612 377 613 494 q 611 142 611 260 q 565 113 586 126 q 520 82 544 100 q 465 40 496 64 q 390 -21 435 15 q 328 1 358 -10 q 267 22 299 13 q 209 38 229 33 q 169 42 189 42 q 95 24 126 42 q 47 -4 64 7 l 26 19 q 67 63 47 43 q 103 99 88 83 q 114 108 107 103 q 128 121 121 114 q 178 160 154 146 q 232 175 203 175 q 283 169 254 175 q 340 154 311 163 q 397 136 369 146 q 447 118 425 126 l 447 444 l 331 471 l 331 496 l 447 578 q 447 640 447 610 q 450 703 447 671 q 456 759 453 731 q 464 815 460 788 q 433 807 453 813 q 386 801 414 801 q 305 813 346 803 q 224 835 264 824 q 129 847 175 846 q 144 810 136 828 q 163 774 151 793 q 177 747 169 760 q 193 721 185 735 l 82 656 q 42 725 58 692 q 21 765 31 744 q 1 806 11 785 l 275 993 q 295 981 286 986 q 315 968 304 975 q 330 961 318 967 q 358 948 342 956 q 394 933 375 940 q 429 921 413 925 q 456 917 442 918 q 474 917 471 917 q 503 919 489 917 q 533 931 518 922 q 564 958 549 940 q 596 1007 579 976 l 621 997 z "},"J":{"ha":694,"x_min":6,"x_max":614,"o":"m 614 997 l 607 864 l 607 82 l 376 -143 q 319 -116 354 -132 q 229 -100 283 -100 q 192 -103 224 -100 q 135 -117 161 -106 q 116 -126 125 -121 q 99 -137 107 -132 l 78 -112 q 147 -30 119 -61 q 198 19 175 1 q 243 44 221 38 q 297 50 265 50 q 326 49 311 50 q 357 44 340 47 q 394 34 374 40 q 443 18 415 28 l 442 418 q 407 439 424 431 q 372 453 390 447 q 328 465 353 460 q 268 476 303 471 l 268 507 l 442 594 q 443 663 443 632 q 446 721 443 693 q 452 764 449 742 q 460 810 456 786 q 423 804 440 807 q 388 801 406 801 q 370 802 385 801 q 336 807 356 803 q 272 824 300 814 q 215 840 244 833 q 176 848 196 846 q 136 851 156 850 q 152 824 144 838 q 168 797 160 810 q 183 776 175 786 q 199 754 192 765 l 86 689 q 59 728 72 708 q 33 769 46 749 q 19 794 26 782 q 6 819 13 807 l 260 1008 q 336 958 301 978 q 397 931 364 943 q 458 918 431 918 q 476 919 465 918 q 501 926 486 921 q 543 950 525 935 q 592 1006 561 965 l 614 997 z "},"K":{"ha":897,"x_min":0,"x_max":939,"o":"m 350 996 l 371 986 l 367 904 l 367 235 q 368 218 368 226 q 369 201 368 210 q 380 176 371 183 q 417 153 389 169 l 417 996 l 453 996 l 454 694 q 526 737 490 715 q 597 778 561 758 q 644 805 629 794 q 676 815 658 815 q 703 809 690 815 q 728 794 717 803 q 748 778 740 786 q 758 767 756 769 q 775 738 767 757 q 783 696 783 719 q 776 658 783 685 q 739 601 769 631 q 706 576 725 589 q 667 552 688 564 q 628 531 647 540 q 594 515 608 522 q 621 508 607 511 q 649 497 635 504 q 669 487 651 496 q 703 460 688 478 q 720 427 713 447 q 733 386 728 407 q 743 346 739 365 q 750 313 747 326 q 760 269 754 290 q 769 226 765 249 q 774 201 771 215 q 785 173 778 186 q 803 151 792 160 q 833 142 815 142 q 865 160 853 142 q 886 194 878 179 q 897 213 892 204 q 907 229 901 221 l 939 210 l 806 -17 q 760 -10 783 -14 q 716 4 738 -6 q 676 31 694 14 q 643 76 657 49 q 623 131 632 99 q 606 197 614 164 q 592 263 599 231 q 579 318 585 294 q 572 342 576 331 q 563 367 568 354 q 551 392 557 382 q 535 415 546 403 q 504 438 519 431 q 454 447 489 444 l 454 167 l 508 249 l 539 229 l 390 -14 l 139 113 q 158 128 147 119 q 175 144 168 136 q 203 207 199 172 q 208 269 207 242 l 207 508 q 199 515 203 511 q 192 521 196 518 q 151 540 175 532 q 90 557 126 549 l 90 586 l 208 638 l 208 826 q 185 821 206 826 q 144 815 164 815 q 97 829 117 815 q 57 871 76 843 q 46 885 50 879 q 32 892 42 892 q 21 889 26 892 q 14 885 15 886 l 0 906 l 146 1000 q 151 985 147 997 q 164 956 156 972 q 185 923 172 940 q 215 893 199 906 q 228 885 222 888 q 246 876 233 882 q 261 893 257 888 q 269 902 265 897 q 278 913 272 907 q 289 925 283 919 q 300 938 294 931 l 350 996 m 454 476 q 520 507 485 489 q 583 550 556 525 q 606 576 592 558 q 619 622 619 594 q 617 642 619 633 q 611 656 614 650 q 592 680 607 663 q 554 697 578 697 q 514 686 538 697 q 454 656 490 675 l 454 476 z "},"L":{"ha":926,"x_min":19,"x_max":950,"o":"m 750 1000 q 740 969 744 983 q 733 938 736 954 q 728 899 731 921 q 725 847 726 878 l 725 415 q 724 401 725 413 q 721 379 724 390 q 699 340 715 360 q 647 285 683 321 q 610 249 628 267 q 575 215 593 232 q 599 209 586 213 q 624 201 611 206 q 658 190 640 196 q 693 178 675 185 q 705 173 693 178 q 733 163 717 168 q 768 153 750 157 q 801 149 786 149 q 822 151 808 149 q 856 168 836 154 q 899 228 890 194 q 911 292 908 261 l 950 290 q 950 263 950 279 q 943 224 950 247 q 913 160 935 196 q 828 72 890 125 q 786 38 807 54 q 744 8 765 22 q 713 -8 729 -1 q 682 -15 697 -15 q 638 -1 661 -15 q 563 40 614 13 q 485 78 532 57 q 379 99 438 99 q 327 94 351 99 q 274 78 303 89 q 208 49 244 67 q 122 8 172 32 l 104 46 q 140 63 119 53 q 181 85 160 74 q 222 112 201 97 q 258 142 242 126 q 284 171 269 153 q 313 219 299 189 q 326 256 321 238 q 335 294 332 274 q 338 342 338 315 q 338 406 339 369 q 327 413 332 408 q 317 419 322 417 q 262 446 286 438 q 215 460 238 454 l 215 492 l 336 547 q 336 585 336 564 q 335 626 336 606 q 332 663 335 646 q 325 689 329 681 q 302 710 317 706 q 285 714 288 714 l 285 742 l 421 811 q 374 828 397 819 q 328 847 351 836 q 310 856 324 849 q 276 872 296 864 q 233 888 256 881 q 190 896 211 894 q 174 896 182 896 q 157 894 165 896 q 157 878 157 892 q 164 851 157 864 q 179 828 168 844 q 190 792 190 811 q 174 753 189 768 q 150 733 158 739 q 108 717 135 725 q 44 699 81 708 l 35 721 q 43 734 39 728 q 47 751 47 740 q 41 776 47 764 q 29 801 35 789 q 24 817 26 808 q 19 832 22 825 q 91 892 57 864 q 161 950 125 919 l 253 1029 q 315 1021 283 1026 q 426 983 376 1008 q 500 944 475 957 q 544 926 524 933 q 585 913 564 919 q 612 929 599 921 q 638 947 625 938 q 684 981 661 963 q 729 1014 707 999 l 750 1000 m 493 340 q 485 303 490 318 q 469 273 481 289 q 435 237 457 257 q 381 185 414 217 q 447 206 413 196 q 535 219 481 217 q 551 249 544 235 q 560 278 557 263 q 566 313 564 293 q 568 363 568 333 l 568 744 l 583 849 q 538 808 556 825 q 511 776 521 792 q 498 742 501 760 q 493 697 494 724 l 493 340 z "},"M":{"ha":1563,"x_min":-21,"x_max":1553,"o":"m 897 878 l 897 749 q 970 824 933 786 q 1043 901 1007 863 q 1088 948 1065 925 q 1133 994 1110 971 q 1181 990 1157 992 q 1228 981 1204 988 q 1354 917 1303 958 q 1431 844 1406 875 q 1449 822 1439 835 q 1472 785 1458 808 q 1503 710 1488 756 q 1518 597 1518 664 q 1502 481 1518 536 q 1442 364 1486 426 q 1408 322 1422 338 q 1382 296 1393 307 q 1358 271 1371 283 q 1332 243 1346 258 q 1358 220 1344 232 q 1385 194 1372 208 q 1409 166 1399 179 q 1431 140 1419 153 l 1525 229 l 1553 203 l 1336 -26 q 1282 53 1311 13 q 1256 85 1269 69 q 1228 115 1243 100 q 1191 147 1213 129 q 1140 185 1169 164 q 1201 219 1175 201 q 1260 268 1228 236 q 1310 338 1293 304 q 1342 424 1328 371 q 1351 469 1346 439 q 1357 531 1357 499 q 1352 583 1357 557 q 1340 631 1347 608 q 1324 672 1332 654 q 1311 700 1317 690 q 1298 722 1308 707 q 1269 756 1288 738 q 1231 792 1250 776 q 1183 818 1211 807 q 1151 831 1172 824 q 1106 838 1129 838 q 1077 834 1103 838 q 1028 815 1051 831 q 1015 807 1021 813 q 999 792 1010 801 l 999 158 l 1083 239 l 1113 213 q 1044 138 1078 175 q 978 64 1010 100 q 940 20 958 43 q 903 -26 922 -3 q 872 3 888 -11 q 839 33 856 18 q 809 60 824 47 q 778 88 794 74 q 733 126 754 110 q 689 161 713 142 q 713 191 704 179 q 725 216 721 203 q 730 247 729 229 q 732 294 731 265 l 732 797 l 590 894 l 544 868 l 544 -46 l 508 -46 l 508 847 l 447 813 l 447 72 q 385 27 415 49 q 324 -17 356 6 q 174 -117 249 -69 q 99 -46 136 -83 q 71 -19 83 -32 q 43 -7 58 -7 q 21 -15 32 -7 q -1 -29 10 -22 l -21 0 q 29 33 4 17 q 78 68 54 50 q 115 93 101 85 q 142 101 129 101 q 176 82 158 101 q 219 39 194 63 q 258 10 246 15 q 282 4 269 6 l 282 453 q 241 478 263 468 q 178 501 219 488 l 178 532 l 283 572 l 283 764 q 367 812 325 788 q 453 860 410 836 q 531 903 493 882 q 607 947 568 924 q 657 978 632 963 q 707 1011 682 994 l 897 878 m 897 694 l 897 285 q 898 242 897 261 q 901 214 899 224 q 926 179 908 194 q 963 150 944 164 l 963 758 l 897 694 z "},"N":{"ha":1186,"x_min":-85,"x_max":1229,"o":"m 1229 246 q 1189 183 1210 214 q 1149 119 1168 151 q 1138 99 1143 108 q 1125 81 1132 90 q 1095 26 1110 53 q 1065 -29 1081 -1 q 1051 -15 1058 -22 q 1036 -1 1043 -8 q 993 31 1022 10 q 919 67 964 51 q 889 75 908 69 q 842 81 869 81 q 808 78 835 81 q 757 60 782 75 q 736 45 746 53 q 724 35 726 38 l 696 60 q 744 126 715 92 q 799 188 774 161 q 827 219 814 204 q 856 249 840 233 q 863 259 857 250 q 878 281 869 268 q 897 307 888 293 q 914 332 907 321 q 947 410 929 360 q 964 532 964 461 q 963 562 964 540 q 956 613 963 583 q 938 676 950 642 q 900 742 925 710 q 881 765 893 751 q 849 793 868 778 q 762 840 818 817 q 626 864 706 864 q 542 856 574 864 q 486 840 510 849 l 486 -140 l 446 -140 l 446 825 q 409 805 426 817 q 381 774 392 793 q 364 718 368 750 q 360 638 360 686 q 363 524 360 579 q 368 411 365 468 q 372 256 372 332 q 360 110 372 182 q 347 56 356 82 q 337 33 344 51 q 318 -6 329 14 q 275 -61 297 -39 q 239 -96 253 -83 q 227 -106 232 -101 q 215 -117 222 -111 l 178 -146 q 138 -183 158 -164 q 94 -222 117 -203 q 74 -208 88 -218 q 42 -188 60 -199 q 7 -170 25 -178 q -25 -162 -11 -162 q -44 -166 -36 -162 q -58 -176 -51 -169 l -85 -154 q -8 -61 -49 -107 q 17 -35 6 -46 q 43 -26 28 -25 q 60 -28 53 -26 q 69 -31 68 -31 q 122 -49 96 -37 q 193 -87 147 -61 q 208 -29 208 -56 q 208 19 208 -3 q 210 37 210 28 q 210 54 210 46 q 207 124 210 90 q 201 194 204 158 q 193 292 197 243 q 183 389 189 340 q 158 402 168 397 q 138 412 149 407 q 113 422 128 417 q 76 435 99 426 l 76 465 l 172 510 q 174 620 169 576 q 200 693 179 664 q 229 725 211 708 q 279 767 247 742 q 307 788 294 778 q 333 808 319 797 q 376 838 354 824 q 418 865 397 851 q 462 894 440 881 q 506 922 483 908 q 576 966 540 944 q 644 1008 611 988 q 681 1013 656 1010 q 757 1008 707 1015 q 854 985 811 1001 q 931 949 897 969 q 989 905 964 928 q 1032 860 1014 882 q 1058 824 1043 847 q 1088 771 1074 801 q 1111 704 1101 740 q 1121 626 1121 668 q 1113 554 1121 600 q 1069 442 1104 508 q 1047 401 1058 421 q 1018 358 1035 381 q 978 306 1001 335 q 919 236 954 276 q 973 226 947 231 q 1026 211 999 221 q 1077 192 1060 200 q 1113 185 1094 185 q 1121 185 1115 185 q 1136 193 1126 186 q 1161 220 1144 200 q 1197 268 1178 240 l 1229 246 z "},"O":{"ha":1244,"x_min":81,"x_max":1204,"o":"m 501 1033 l 482 961 q 514 974 497 968 q 547 985 531 979 q 617 1001 569 992 q 725 1011 664 1011 q 793 1007 746 1011 q 899 982 840 1003 q 925 971 911 976 q 975 946 950 960 q 992 935 983 940 q 1010 922 1000 929 q 1040 900 1025 911 q 1076 864 1054 889 q 1114 821 1099 842 q 1144 774 1128 801 q 1173 713 1160 747 q 1195 636 1186 678 q 1204 546 1204 594 q 1202 498 1204 528 q 1190 429 1200 468 q 1160 344 1181 390 q 1103 249 1139 299 q 1050 186 1075 211 q 1010 146 1025 161 q 956 100 982 119 q 921 75 929 81 q 892 58 907 65 q 863 43 878 50 q 848 35 856 39 q 832 26 840 31 q 810 18 821 22 q 789 10 800 14 q 720 -8 765 3 q 614 -19 675 -19 q 569 -18 597 -19 q 504 -10 540 -17 q 425 11 468 -3 q 336 50 382 25 q 291 78 322 58 q 228 126 260 97 q 183 176 207 146 q 144 228 158 206 q 103 317 125 258 q 81 456 81 376 q 99 588 81 528 q 147 694 118 647 q 209 775 175 740 q 272 835 243 810 q 328 878 304 863 q 383 914 351 893 l 429 993 q 449 1023 439 1008 q 469 1053 458 1038 l 501 1033 m 638 144 q 706 140 671 140 q 744 142 725 140 q 783 146 764 143 q 810 150 789 147 q 858 163 831 153 q 917 190 886 172 q 974 238 947 207 q 983 249 979 244 q 990 261 986 254 q 1008 294 1001 279 q 1025 339 1015 308 q 1037 388 1032 358 q 1042 463 1042 418 q 1040 498 1042 475 q 1033 550 1039 521 q 1017 614 1028 579 q 985 686 1006 649 q 977 700 983 689 q 960 725 971 711 q 937 754 950 739 q 910 782 924 769 l 893 799 q 869 816 886 804 q 846 833 853 828 q 785 863 828 843 q 693 890 743 883 q 636 894 665 894 l 638 144 m 600 894 q 575 892 586 893 q 551 890 564 892 q 522 883 539 888 q 481 869 506 878 q 483 825 481 847 q 488 779 485 803 q 492 729 490 754 q 497 679 494 704 q 500 650 499 664 q 503 621 501 636 q 506 591 506 606 q 507 561 506 576 q 508 538 508 550 q 508 514 508 526 q 506 476 508 492 q 497 445 503 460 q 479 415 490 431 q 453 376 468 399 q 411 319 433 349 q 384 283 396 300 q 358 250 372 267 q 378 233 367 242 q 411 211 389 224 q 472 181 442 193 q 528 163 503 169 q 572 153 553 157 q 601 149 592 150 l 600 894 m 346 801 q 319 776 331 786 q 297 750 308 765 q 271 713 285 735 q 245 661 257 690 q 225 597 233 632 q 217 522 217 561 q 218 493 217 513 q 225 448 219 474 q 242 392 231 422 q 274 332 253 363 q 294 306 285 317 q 324 276 304 294 q 343 304 335 290 q 356 338 349 314 q 363 390 363 361 q 361 422 363 406 q 358 453 360 438 q 355 486 356 469 q 351 519 354 503 q 342 610 346 564 q 338 700 338 656 q 346 801 338 751 z "},"P":{"ha":1215,"x_min":0,"x_max":1210,"o":"m 631 1001 q 689 949 668 964 q 731 919 710 933 q 769 894 749 906 q 810 875 792 883 q 846 858 828 867 q 883 842 865 850 q 919 825 901 833 q 960 806 939 815 q 1006 783 982 796 q 1045 760 1017 776 q 1106 717 1074 744 q 1128 694 1118 706 q 1142 679 1138 683 q 1194 588 1178 635 q 1210 493 1210 542 q 1187 372 1210 421 q 1144 293 1164 324 q 1126 265 1138 283 q 1092 219 1114 246 q 1024 148 1058 179 q 951 82 989 117 q 917 51 933 67 q 885 19 901 35 q 840 42 860 32 q 799 60 821 51 q 747 76 776 68 q 675 96 718 85 l 675 -228 l 519 -228 l 521 914 q 542 938 532 926 q 564 963 553 950 q 588 988 578 976 q 610 1010 597 999 l 631 1001 m 442 906 l 442 -228 l 289 -228 l 289 286 q 250 307 267 300 q 196 324 231 315 q 113 338 161 332 l 113 372 l 289 467 l 289 733 l 149 603 q 92 667 113 649 q 51 703 72 686 q 42 711 47 707 q 31 715 38 715 q 17 711 26 715 l 0 729 q 19 748 10 739 q 38 768 28 757 q 60 792 49 779 q 83 815 72 804 q 97 831 86 818 q 124 843 108 843 q 137 840 131 843 q 144 836 143 838 q 176 813 156 829 q 207 788 196 797 q 219 776 214 782 q 232 764 225 769 q 250 749 239 756 q 276 774 264 761 q 304 800 289 786 q 320 815 313 807 q 335 829 328 822 q 353 847 344 839 q 372 865 363 856 q 399 892 386 879 q 424 915 413 906 l 442 906 m 675 140 q 710 172 693 156 q 747 204 728 188 q 760 217 754 211 q 771 226 765 222 q 778 233 775 231 q 786 239 782 236 q 831 226 810 232 q 876 211 853 219 q 926 191 901 201 q 978 169 951 181 q 997 194 988 182 q 1013 219 1006 207 q 1044 288 1028 243 q 1061 396 1061 333 q 1033 520 1061 472 q 971 600 1004 568 q 915 642 947 622 q 849 681 883 663 q 781 717 815 700 q 719 751 747 735 q 697 765 708 758 q 675 778 686 771 l 675 140 z "},"Q":{"ha":1274,"x_min":92,"x_max":1342,"o":"m 525 1064 l 503 967 q 564 986 536 978 q 619 1000 592 994 q 674 1008 646 1006 q 736 1011 703 1011 q 781 1010 749 1011 q 859 997 814 1008 q 957 960 904 985 q 1061 890 1010 936 q 1103 849 1083 871 q 1147 786 1124 826 q 1191 694 1169 751 q 1213 554 1213 638 q 1210 510 1213 539 q 1200 444 1208 482 q 1174 363 1192 407 q 1124 271 1156 318 q 1108 250 1117 260 q 1092 229 1100 240 q 1129 206 1111 218 q 1167 179 1147 194 q 1201 153 1190 161 q 1225 144 1213 144 q 1253 156 1238 144 q 1278 178 1260 161 q 1313 215 1296 196 l 1342 188 q 1323 166 1332 176 q 1303 144 1314 156 q 1278 119 1292 132 q 1254 93 1265 106 q 1209 47 1231 69 q 1164 -1 1188 24 q 1151 -14 1157 -8 q 1138 -19 1144 -19 q 1126 -17 1132 -19 q 1115 -11 1119 -14 q 1087 9 1100 -1 q 1043 46 1074 19 q 1003 79 1024 64 q 964 108 983 94 q 931 85 947 97 q 897 64 914 74 q 851 38 879 53 q 788 11 824 24 q 710 -10 753 -1 q 619 -18 667 -18 q 516 -8 571 -18 q 415 19 461 1 q 385 33 401 26 q 353 50 368 40 q 328 63 344 54 q 290 87 311 72 q 247 121 269 101 q 201 167 224 140 q 165 215 185 186 q 129 282 146 244 q 102 364 113 319 q 92 460 92 408 q 96 521 92 481 q 119 614 100 561 q 181 727 139 667 q 297 847 222 788 q 359 892 332 875 q 417 926 386 908 q 438 978 429 957 q 456 1015 447 999 q 474 1044 465 1031 q 494 1075 483 1058 l 525 1064 m 649 142 q 697 138 674 139 q 744 136 721 136 q 797 140 768 136 q 855 153 826 144 q 909 174 883 161 q 954 201 935 186 q 999 255 981 222 q 1026 308 1018 288 q 1042 367 1033 328 q 1051 460 1051 406 q 1046 534 1051 481 q 1010 656 1040 588 q 967 728 994 688 q 892 808 940 769 q 861 829 886 813 q 801 861 836 846 q 764 875 794 864 q 692 892 733 886 q 670 894 681 894 q 649 894 660 894 l 649 142 m 503 753 q 507 683 506 717 q 511 614 508 649 q 516 560 514 586 q 518 507 518 535 q 515 476 518 490 q 506 447 513 463 q 485 412 499 432 q 450 363 471 392 q 435 343 443 353 q 421 322 428 333 q 392 285 407 304 q 367 250 378 267 q 388 233 378 240 q 410 218 399 225 q 473 185 440 199 q 533 163 506 171 q 582 151 561 154 q 608 146 603 147 l 608 894 q 583 892 596 893 q 560 889 571 892 q 529 882 544 886 q 497 874 514 878 q 497 849 497 861 q 499 824 497 836 l 503 753 m 378 817 q 342 787 363 804 q 297 735 322 769 q 253 652 276 703 q 229 528 229 601 q 231 482 229 515 q 246 411 233 449 q 255 388 250 399 q 274 353 260 376 q 303 310 288 328 q 318 293 310 301 q 336 275 326 285 q 351 298 344 288 q 361 321 357 308 q 368 349 365 333 q 371 386 371 364 q 369 424 371 406 q 367 463 368 443 q 363 510 364 486 q 360 557 363 533 q 356 644 356 600 q 356 680 356 664 q 359 715 357 696 q 365 758 361 733 q 378 817 369 782 z "},"R":{"ha":1013,"x_min":21,"x_max":1103,"o":"m 725 997 l 703 969 q 751 911 725 940 q 803 859 776 882 q 852 822 829 836 q 892 807 875 807 q 934 816 907 807 q 982 833 961 825 l 999 803 l 722 631 q 767 594 746 614 q 813 533 788 574 q 849 463 835 497 q 874 395 864 429 q 895 327 885 361 q 919 257 906 293 q 941 206 931 228 q 958 175 951 185 q 978 156 967 164 q 1003 147 990 147 q 1033 160 1017 147 q 1078 196 1050 172 l 1103 169 l 900 -6 q 848 33 868 15 q 806 83 828 51 q 787 113 794 99 q 772 143 779 126 q 757 181 765 160 q 738 232 749 203 q 709 204 722 218 q 682 176 696 190 q 648 143 665 160 q 614 110 631 126 q 592 88 603 99 q 571 65 582 76 q 544 40 557 53 q 518 15 531 28 q 500 0 508 7 q 481 -7 492 -7 q 461 -1 471 -7 q 433 15 451 4 q 405 32 418 24 q 378 49 392 40 q 352 66 364 57 q 328 82 340 75 q 269 113 306 97 q 176 129 232 129 q 151 128 163 129 q 125 122 139 126 q 94 110 111 118 q 51 90 76 103 l 33 124 q 71 146 53 135 q 107 171 89 157 q 115 176 111 174 q 122 182 118 179 q 158 211 133 190 q 197 261 182 232 q 210 308 208 285 q 213 336 213 332 l 211 482 q 192 494 201 489 q 171 504 182 499 q 139 518 156 513 q 107 531 122 524 l 106 557 l 213 599 l 213 722 q 212 735 213 725 q 201 758 211 744 q 169 783 190 772 q 125 793 149 793 q 92 786 107 793 q 47 750 78 779 l 21 776 q 140 904 79 840 q 170 936 156 919 q 199 964 185 953 q 240 944 219 954 q 282 924 261 935 q 331 888 313 907 q 358 849 349 869 q 371 807 368 829 q 375 760 374 785 l 375 381 q 374 364 375 376 q 368 340 374 351 q 342 309 361 322 q 303 281 322 296 q 236 231 265 253 q 277 241 265 239 q 306 243 289 243 q 353 239 326 243 q 425 218 381 235 l 425 806 q 424 849 425 828 q 419 893 422 871 q 410 951 415 922 q 397 1008 404 979 l 435 1017 q 447 963 442 989 q 457 908 453 936 q 463 852 461 881 q 465 796 464 824 q 499 827 482 811 q 533 858 517 843 q 556 880 544 869 q 578 901 567 890 q 608 931 593 917 q 639 960 624 944 q 662 983 650 971 q 686 1007 674 996 q 694 1015 690 1011 q 704 1024 699 1019 l 725 997 m 465 551 q 516 569 492 560 q 569 592 540 578 q 633 626 597 606 q 718 675 668 646 q 690 717 710 694 q 651 758 671 739 q 615 789 631 776 q 597 803 599 801 q 581 814 589 810 q 565 822 572 818 q 539 806 551 814 q 513 786 526 797 q 489 767 501 776 q 465 746 476 757 l 465 551 m 467 200 q 522 177 499 188 q 571 167 544 167 q 585 168 575 167 q 607 175 596 169 q 653 207 622 182 q 724 274 683 232 q 689 377 710 321 q 628 479 668 433 q 586 514 608 501 q 540 526 564 526 q 522 525 531 526 q 506 522 514 524 q 485 518 494 519 q 465 514 476 517 l 467 200 z "},"S":{"ha":1215,"x_min":25,"x_max":1172,"o":"m 864 39 q 894 69 879 54 q 922 100 908 85 q 949 135 932 113 q 981 188 965 157 q 1007 260 996 219 q 1018 347 1018 300 q 1010 416 1018 385 q 992 471 1003 447 q 967 512 981 494 q 944 539 954 529 q 899 572 931 551 q 818 592 867 592 q 797 591 814 592 q 764 585 779 590 q 742 572 753 579 q 713 547 732 564 q 707 542 710 544 q 701 536 704 539 q 749 543 724 539 q 799 547 775 547 q 846 540 818 547 q 904 501 874 533 q 913 492 906 500 q 925 476 919 483 q 948 428 936 461 q 960 346 960 394 q 949 262 960 315 q 892 147 938 208 q 856 106 876 126 q 831 83 835 86 q 782 49 815 71 q 700 8 749 28 q 628 -11 651 -11 q 603 -9 617 -11 q 578 -5 590 -7 q 558 -1 567 -3 q 549 1 550 1 q 463 24 506 13 q 379 49 421 35 q 363 53 379 49 q 324 64 347 58 q 276 74 301 69 q 229 79 250 79 q 173 69 197 79 q 122 44 149 60 q 138 22 129 31 q 146 -17 146 13 q 139 -53 146 -39 q 123 -76 132 -68 q 103 -88 114 -85 q 83 -92 92 -92 q 67 -89 76 -92 q 48 -79 57 -86 q 32 -60 39 -72 q 25 -31 25 -49 q 26 -15 25 -25 q 33 7 28 -4 q 59 42 43 26 q 90 71 75 57 q 126 99 110 88 q 158 122 142 111 q 191 142 174 132 q 231 165 208 153 q 300 204 267 186 q 331 221 319 215 q 353 226 342 226 q 374 223 358 226 q 406 215 389 219 q 438 205 424 210 q 458 199 453 200 q 494 187 476 193 q 529 174 511 181 q 578 157 554 165 q 628 139 603 149 q 687 119 658 128 q 725 110 715 110 q 740 114 732 110 q 760 129 749 118 q 794 189 775 144 q 814 296 814 233 q 813 328 814 307 q 801 378 811 350 q 791 403 797 389 q 772 433 785 418 q 740 458 760 447 q 690 475 721 469 q 674 477 688 475 q 647 479 660 479 q 639 478 643 479 q 631 478 635 478 q 573 431 601 454 q 515 383 544 407 q 476 353 496 368 q 438 319 457 338 q 413 297 425 307 q 383 288 400 288 q 353 292 375 288 q 301 305 331 296 q 241 329 272 314 q 182 367 210 344 q 169 377 175 372 q 153 393 164 382 q 125 425 133 413 q 110 450 117 438 q 96 476 100 465 q 89 494 92 486 q 81 526 86 506 q 76 575 76 547 q 90 658 76 619 q 120 728 103 697 q 154 780 138 758 q 178 810 171 801 q 192 826 185 818 q 208 843 200 835 q 251 881 229 863 q 294 916 274 900 q 331 942 315 932 q 351 957 346 953 q 380 975 367 967 q 408 993 393 983 l 429 963 q 412 949 425 960 q 381 924 399 939 q 344 890 364 908 q 310 854 325 872 q 265 790 282 821 q 240 731 249 758 q 229 681 232 704 q 226 640 226 657 q 233 581 226 608 q 256 526 239 554 q 263 513 258 519 q 272 501 268 507 q 297 477 281 490 q 337 452 314 464 q 390 432 360 440 q 456 424 419 424 q 480 425 472 424 q 494 429 488 426 l 557 481 q 523 475 535 476 q 489 474 511 474 q 442 477 476 474 q 371 504 407 481 q 347 524 360 511 q 322 555 333 536 q 301 599 310 574 q 293 658 293 625 q 296 697 293 675 q 308 746 299 719 q 335 801 318 772 q 381 858 353 829 q 424 899 404 883 q 456 922 444 914 q 501 949 471 933 q 575 982 531 964 q 597 990 583 985 q 627 999 611 994 q 658 1006 643 1003 q 682 1008 672 1008 q 731 1001 707 1008 q 800 978 756 993 q 844 962 824 969 q 888 946 865 954 q 942 926 915 935 q 1001 918 969 918 q 1035 924 1024 918 q 1053 938 1046 931 q 1060 949 1056 940 q 1065 969 1065 957 q 1060 990 1065 983 q 1049 1008 1056 997 q 1043 1033 1043 1017 q 1056 1068 1043 1054 q 1090 1082 1069 1082 q 1124 1069 1106 1082 q 1143 1019 1143 1057 q 1137 983 1143 1004 q 1111 933 1131 961 q 1078 890 1099 913 q 1033 844 1057 867 q 986 802 1010 822 q 944 767 963 782 q 914 750 924 750 q 886 763 903 751 q 849 790 869 775 q 794 824 824 808 q 726 858 760 844 q 663 880 692 872 q 609 891 633 888 q 571 894 585 894 q 524 883 549 894 q 474 831 499 871 q 449 786 463 815 q 436 711 436 757 q 453 633 436 665 q 495 581 471 601 q 543 549 519 560 q 579 536 567 539 q 603 532 590 533 q 617 531 615 531 q 674 577 644 554 q 731 624 703 600 q 758 646 746 635 q 785 669 771 657 q 811 692 799 679 q 834 710 822 703 q 861 718 846 718 q 877 717 865 718 q 902 713 889 715 q 926 709 915 711 q 942 706 938 707 q 1003 683 972 699 q 1060 647 1035 667 q 1082 628 1071 639 q 1103 606 1093 617 q 1124 579 1111 596 q 1147 540 1136 563 q 1165 487 1157 517 q 1172 419 1172 457 q 1162 343 1172 392 q 1113 236 1151 294 q 1056 164 1085 194 q 993 100 1028 133 q 941 55 968 76 q 886 11 914 33 l 864 39 z "},"T":{"ha":897,"x_min":1,"x_max":964,"o":"m 964 1006 q 942 958 953 976 q 919 926 931 940 q 851 855 883 882 q 804 815 819 828 q 763 811 783 813 q 722 810 743 810 q 675 811 699 810 q 628 815 651 813 q 624 756 624 786 q 627 703 624 729 q 633 650 631 676 l 642 571 q 646 544 644 557 q 647 515 647 531 q 638 472 647 496 q 589 407 629 447 q 551 374 569 389 q 509 342 532 358 q 458 307 486 326 q 394 263 431 288 q 425 225 411 239 q 462 194 439 210 q 515 163 485 178 q 580 140 544 149 q 657 131 615 131 q 681 131 663 131 q 725 138 700 132 q 779 157 750 144 q 835 194 808 169 q 876 239 854 213 q 928 306 897 265 l 960 285 q 935 246 950 268 q 904 201 921 224 q 869 158 888 179 q 836 119 851 136 q 753 42 794 74 q 736 30 749 39 q 711 14 724 21 q 651 -5 694 6 q 556 -15 608 -15 q 524 -14 547 -15 q 471 -6 501 -12 q 404 13 440 0 q 335 49 368 25 q 294 83 317 61 q 254 128 271 104 q 204 219 229 160 q 179 361 179 279 q 182 412 179 378 q 199 491 185 446 q 242 588 214 536 q 324 690 271 639 q 338 704 331 697 q 354 718 346 711 q 392 747 367 729 q 453 783 418 765 q 497 803 475 794 q 542 819 518 813 l 549 831 q 415 850 482 842 q 281 858 349 858 q 193 854 236 858 q 133 828 150 849 q 123 810 125 819 q 118 792 121 800 q 115 784 118 790 q 110 772 113 778 q 72 731 96 746 q 28 701 47 717 q 13 693 18 693 q 6 696 8 693 q 1 703 1 700 q 1 710 1 707 q 2 724 1 711 q 6 749 3 738 q 33 799 13 778 q 82 843 54 821 q 163 900 121 874 q 238 945 190 918 q 357 989 286 972 q 387 994 364 990 q 433 999 410 999 q 466 997 450 999 q 497 993 482 996 q 531 988 514 990 q 564 983 547 986 q 678 961 622 974 q 793 942 735 949 q 813 940 804 940 q 833 939 822 939 q 872 948 856 939 q 901 969 889 957 q 919 995 913 982 q 929 1015 925 1008 l 964 1006 m 497 760 q 477 748 494 758 q 444 725 460 738 q 402 686 424 708 q 363 634 381 664 q 335 566 346 604 q 325 482 325 528 q 330 423 325 467 q 354 332 335 379 q 374 293 363 313 q 388 302 375 293 q 418 326 401 311 q 450 359 435 340 q 472 397 465 378 q 477 417 476 408 q 478 439 478 426 q 472 535 478 488 q 467 632 467 583 q 470 673 467 643 q 489 738 474 703 q 496 750 494 749 q 497 760 497 751 z "},"U":{"ha":1071,"x_min":19,"x_max":1106,"o":"m 961 276 q 963 248 963 263 q 967 213 964 233 q 969 194 967 208 q 983 168 972 179 q 1000 161 990 161 q 1034 179 1015 161 q 1078 226 1053 197 l 1106 203 l 936 -17 q 869 27 894 0 q 829 81 843 54 q 810 132 815 108 q 803 165 804 156 q 668 84 735 124 q 533 6 601 44 q 510 -9 522 -1 q 485 -17 497 -17 q 470 -15 478 -17 q 456 -12 463 -14 q 378 4 408 -7 q 328 25 347 15 q 265 60 297 39 q 247 74 256 67 q 231 88 239 81 q 127 220 156 149 q 99 360 99 292 q 111 448 99 406 q 141 526 124 490 q 178 591 158 563 q 211 638 197 619 q 235 666 222 653 q 260 693 247 679 q 278 715 269 704 q 299 736 288 725 q 322 758 310 747 q 346 781 335 769 q 308 783 326 782 q 269 788 289 785 q 222 795 246 790 q 175 806 199 800 q 156 810 165 808 q 138 811 147 811 q 96 793 114 811 q 51 735 78 775 l 19 753 q 71 847 43 799 q 117 925 94 886 q 164 1004 140 964 q 187 987 175 994 q 211 972 199 979 q 278 943 235 958 q 382 928 322 928 q 494 949 451 928 q 569 996 536 969 l 592 968 q 564 942 578 956 q 536 914 550 929 l 536 819 q 549 830 543 825 q 563 840 556 835 q 581 858 567 844 q 612 888 594 871 q 649 926 629 906 q 688 967 669 946 q 707 991 699 979 q 725 1015 715 1003 q 775 981 750 996 q 899 915 833 944 q 1028 858 965 886 q 1006 837 1014 844 q 992 822 997 829 q 982 807 986 815 q 974 785 978 799 q 965 743 967 763 q 961 683 963 724 l 961 276 m 497 875 q 467 844 482 860 q 437 811 453 829 q 404 770 421 793 q 367 717 388 747 q 338 671 356 700 q 302 604 319 642 q 272 522 285 567 q 260 428 260 476 q 262 393 260 415 q 272 340 264 371 q 282 308 275 328 q 305 264 289 288 q 347 216 321 240 q 413 172 372 192 q 447 158 431 164 q 497 144 464 151 l 497 875 m 538 765 l 538 138 q 615 136 565 135 q 735 169 665 138 q 767 186 751 176 q 799 206 783 196 l 799 778 l 642 858 l 538 765 z "},"V":{"ha":1071,"x_min":8,"x_max":1053,"o":"m 325 354 q 328 305 326 324 q 339 272 329 286 q 357 255 346 263 q 371 244 368 247 q 403 224 388 233 q 435 207 418 215 q 460 194 447 200 q 488 181 474 188 l 488 829 l 439 792 l 415 818 q 511 918 464 867 q 600 1014 558 969 q 623 1008 613 1011 q 647 1000 633 1006 q 679 987 661 994 q 724 965 697 979 q 768 940 742 956 q 826 902 794 925 q 890 848 857 879 q 956 776 924 817 q 997 712 979 744 q 1021 664 1014 679 q 1035 622 1029 642 q 1042 594 1039 608 q 1049 565 1046 581 q 1052 530 1051 547 q 1053 493 1053 513 q 1051 456 1053 482 q 1041 394 1050 429 q 1013 317 1032 358 q 958 236 993 275 q 883 166 931 204 q 765 89 836 128 q 725 69 746 78 q 683 49 704 60 q 618 15 651 32 q 550 -19 585 -3 q 434 30 485 7 q 344 74 383 53 q 272 114 304 94 q 213 151 240 133 q 171 180 190 167 q 132 211 151 193 q 145 239 140 226 q 153 265 150 251 q 159 298 157 279 q 163 344 161 317 l 163 753 q 160 794 161 776 q 154 821 158 813 q 138 837 147 835 q 126 839 129 839 q 104 831 114 839 q 90 818 94 822 q 62 790 75 804 q 36 763 49 776 l 8 789 q 39 823 24 806 q 71 858 54 840 q 87 877 79 868 q 103 894 94 886 q 126 920 115 908 q 150 947 138 932 q 181 983 165 965 q 211 1017 196 1000 q 226 1007 214 1015 q 255 985 239 999 q 287 955 271 972 q 313 918 303 938 q 322 888 319 903 q 325 868 324 872 l 325 354 m 526 160 q 574 139 554 147 q 608 125 593 131 q 636 117 624 119 q 664 115 649 115 q 684 117 671 115 q 714 124 697 118 q 735 131 719 125 q 772 149 751 138 q 813 178 792 160 q 853 224 835 197 q 884 294 868 246 q 900 406 900 343 q 899 441 900 417 q 890 498 897 465 q 868 568 882 531 q 829 644 854 606 q 811 669 824 653 q 781 705 799 685 q 739 747 763 725 q 686 788 715 768 q 601 836 638 822 q 547 850 564 850 q 526 847 540 850 l 526 160 z "},"W":{"ha":1563,"x_min":4,"x_max":1536,"o":"m 286 547 q 285 437 286 492 q 288 326 285 382 q 290 305 289 315 q 296 283 290 294 q 328 248 306 264 q 389 210 350 232 q 417 194 404 201 q 446 181 431 188 l 446 744 l 418 721 l 393 751 q 410 767 401 758 q 428 783 419 775 q 460 813 444 799 q 492 839 476 826 q 514 859 503 850 q 538 879 525 868 q 574 910 557 896 q 611 944 592 925 q 630 960 622 953 q 646 975 638 968 q 656 985 651 981 q 668 994 661 989 q 681 1007 675 1001 q 693 1017 688 1013 q 728 994 714 1006 q 763 963 743 982 q 803 904 794 931 q 810 839 811 878 l 810 404 q 811 325 810 358 q 825 272 813 292 q 849 249 833 258 q 881 229 865 239 q 897 219 889 224 q 913 210 904 215 q 940 195 926 203 q 969 181 954 188 l 969 825 l 925 790 l 899 815 q 913 831 906 825 q 928 847 919 838 q 944 865 936 856 q 961 882 953 874 l 997 918 q 1005 928 1001 924 q 1014 938 1008 932 q 1025 950 1022 946 q 1040 966 1033 958 q 1053 981 1046 974 q 1068 997 1060 988 q 1085 1015 1076 1007 q 1114 1005 1100 1010 q 1143 993 1128 1000 q 1166 983 1150 990 q 1204 964 1182 975 q 1251 938 1226 953 q 1301 904 1276 922 q 1413 803 1375 851 q 1465 733 1451 756 q 1511 638 1486 699 q 1536 493 1536 576 q 1535 463 1536 482 q 1528 417 1533 443 q 1514 362 1524 392 q 1486 300 1504 332 q 1472 279 1481 293 q 1449 246 1464 265 q 1430 224 1444 239 q 1396 192 1415 208 q 1327 138 1363 161 q 1249 90 1292 114 q 1154 40 1207 67 q 1032 -21 1101 14 q 1022 -16 1026 -18 q 1013 -11 1018 -14 q 988 -1 1001 -6 q 963 8 975 3 q 947 16 954 13 q 931 24 939 19 q 912 31 921 28 q 893 39 903 35 q 860 56 876 47 q 828 72 844 64 q 792 91 810 82 q 756 111 775 100 q 722 133 739 122 q 690 153 706 143 q 666 124 678 138 q 642 99 654 111 q 624 80 633 89 q 606 61 615 71 q 585 42 594 51 q 567 25 576 33 q 539 1 553 13 q 511 -21 525 -10 q 493 -12 501 -17 q 475 -6 485 -8 q 456 2 465 -1 q 439 10 447 6 q 424 17 431 13 q 408 24 418 21 q 369 42 396 29 q 306 73 342 54 q 230 116 271 92 q 150 168 189 140 q 132 180 140 175 q 115 192 124 185 q 104 201 110 196 q 93 211 99 206 q 103 235 97 221 q 115 268 110 249 q 123 333 122 294 q 124 432 124 372 q 124 589 124 511 q 122 746 124 667 q 123 767 122 751 q 121 799 124 783 q 111 826 118 814 q 89 839 104 839 q 65 828 76 839 q 31 799 53 818 l 4 824 l 171 1017 q 181 1012 176 1014 q 194 1003 186 1010 q 210 990 200 999 q 229 972 219 981 q 247 953 239 963 q 260 940 256 944 q 285 874 283 910 q 286 808 286 839 l 286 547 m 488 778 l 488 161 q 547 138 524 146 q 585 131 569 131 q 615 139 600 132 q 658 174 631 146 l 646 185 q 647 342 647 264 q 646 499 646 419 q 648 585 647 542 q 649 672 649 628 q 647 713 647 692 q 646 753 646 733 q 644 783 646 765 q 638 817 643 800 q 621 847 632 833 q 590 867 610 860 l 488 778 m 1010 158 q 1052 140 1035 147 q 1083 126 1069 132 q 1109 119 1097 121 q 1133 117 1121 117 q 1150 117 1142 117 q 1165 119 1158 118 q 1184 124 1171 121 q 1215 135 1197 128 q 1254 155 1233 143 q 1294 186 1275 167 q 1324 217 1313 201 q 1339 239 1335 233 q 1353 269 1346 250 q 1368 313 1361 288 q 1376 351 1371 328 q 1381 408 1381 374 q 1378 447 1381 422 q 1369 506 1376 472 q 1347 577 1361 539 q 1306 656 1332 615 q 1288 680 1299 665 q 1257 715 1276 694 q 1215 756 1238 738 q 1190 778 1193 775 q 1099 831 1142 815 q 1036 847 1056 847 q 1023 846 1031 847 q 1010 843 1015 844 l 1010 158 z "},"X":{"ha":781,"x_min":1,"x_max":840,"o":"m 840 886 q 800 846 821 867 q 761 806 779 825 q 731 772 743 786 q 696 757 718 757 q 685 758 689 757 q 679 760 682 758 q 660 771 672 763 q 638 790 649 779 q 610 818 622 806 q 579 831 597 831 q 555 824 564 831 q 540 808 546 817 q 519 761 526 789 q 508 704 511 733 q 506 647 506 675 q 506 600 506 619 l 626 600 q 671 603 654 601 q 700 614 688 604 q 711 624 707 618 q 724 640 715 629 l 756 624 q 733 581 744 601 q 708 539 721 560 q 688 506 697 519 q 669 485 679 492 q 649 477 658 478 q 618 476 639 476 l 517 476 q 517 409 517 440 q 524 348 518 378 q 541 287 529 318 q 574 221 553 256 q 597 187 579 213 q 643 136 615 161 q 654 126 649 131 q 665 118 660 122 l 788 196 l 808 165 l 564 -15 l 556 -11 q 543 1 549 -4 q 533 9 538 6 q 529 14 529 13 q 490 56 507 33 q 469 82 474 78 q 438 128 456 101 q 401 200 421 156 q 397 213 399 207 q 392 226 394 219 q 388 238 388 238 q 383 247 389 239 q 370 217 376 232 q 356 188 364 203 q 344 167 353 182 q 323 132 336 153 q 293 88 310 111 q 258 42 276 64 q 232 13 246 26 q 203 -15 218 -1 q 160 14 182 0 q 119 34 140 25 q 79 43 97 43 q 58 38 68 43 q 28 15 47 33 l 1 40 q 69 124 35 81 q 135 204 104 168 q 180 195 164 199 q 210 185 196 192 q 237 173 221 181 q 264 165 253 165 q 276 167 271 165 q 285 171 282 169 q 297 184 290 175 q 310 203 304 193 q 322 224 317 214 q 331 238 328 233 q 348 295 342 264 q 356 358 354 326 q 358 419 358 389 q 357 476 357 450 q 314 476 335 476 q 272 476 293 475 q 263 476 271 476 q 244 475 256 476 q 221 471 233 474 q 199 463 208 468 q 176 444 186 456 q 157 419 167 432 l 126 439 q 150 483 138 461 q 174 528 163 506 q 194 566 186 551 q 213 589 203 581 q 241 600 226 600 q 260 600 256 600 l 292 600 q 321 600 307 600 q 350 601 335 600 q 351 630 350 604 q 347 692 353 656 q 327 769 342 729 q 282 842 313 810 q 258 861 275 849 q 218 874 242 874 q 178 860 199 874 q 117 815 157 846 l 93 844 l 296 1022 q 326 1007 300 1019 q 375 975 351 994 q 416 937 390 964 q 461 871 442 910 q 476 837 469 854 q 488 801 482 819 q 542 883 513 846 q 614 953 572 921 q 660 983 643 975 q 693 996 678 990 q 714 963 704 976 q 742 932 724 949 q 752 922 744 929 q 768 911 760 915 q 794 904 779 904 q 805 906 801 904 q 819 913 808 907 l 840 886 z "},"Y":{"ha":810,"x_min":1,"x_max":925,"o":"m 925 932 q 879 858 901 893 q 835 788 857 824 q 802 735 818 761 q 771 683 786 710 q 724 608 747 646 q 676 533 700 571 q 640 474 657 504 q 603 414 622 444 q 523 288 563 351 q 446 161 483 225 q 403 76 415 108 q 392 19 392 44 q 392 5 392 15 q 400 -18 393 -6 q 431 -51 410 -37 q 488 -65 451 -65 q 538 -56 515 -65 q 583 -35 561 -47 q 628 -7 606 -22 q 678 21 650 8 q 708 32 688 25 q 753 39 728 39 q 804 30 782 39 q 838 10 826 21 q 858 -22 847 0 q 869 -71 869 -43 q 844 -132 869 -111 q 836 -138 842 -135 q 825 -144 831 -142 q 806 -147 819 -147 q 788 -146 796 -147 q 778 -143 781 -144 q 756 -124 767 -137 q 744 -87 744 -111 q 751 -58 744 -69 q 774 -29 758 -46 q 760 -17 768 -24 q 736 -11 751 -11 q 709 -17 721 -11 q 693 -25 697 -22 q 635 -60 664 -40 q 578 -93 606 -81 q 563 -100 574 -96 q 539 -108 553 -104 q 509 -115 525 -112 q 479 -118 493 -118 q 447 -115 464 -118 q 428 -112 431 -112 q 408 -104 421 -110 q 381 -89 396 -99 q 352 -65 367 -79 q 325 -32 338 -51 q 308 7 314 -12 q 299 42 301 26 q 296 67 296 57 q 296 79 296 78 q 301 154 296 115 q 313 231 307 193 q 317 301 317 265 q 306 413 317 349 q 256 581 294 478 q 241 617 247 603 q 229 644 235 632 q 217 667 224 656 q 203 693 211 678 q 190 712 199 699 q 169 738 182 725 q 141 761 157 751 q 104 771 125 771 q 71 759 83 771 q 33 711 58 747 l 1 732 l 143 976 q 188 954 158 971 q 254 903 218 938 q 310 838 290 867 q 354 765 331 808 q 389 819 372 793 q 421 871 406 844 q 458 939 440 906 q 496 1007 476 972 q 572 953 539 975 q 629 917 604 932 q 676 893 654 903 q 719 875 697 883 q 759 862 744 865 q 785 858 774 858 q 799 860 789 858 q 821 869 810 863 q 852 901 835 881 q 893 951 869 922 l 925 932 m 374 722 q 393 678 383 700 q 410 635 403 657 q 421 597 417 615 q 431 560 425 579 q 451 461 444 504 q 461 383 458 418 q 463 320 464 349 q 463 265 463 292 q 551 406 507 336 q 639 546 594 475 q 656 574 647 560 q 672 601 664 588 q 690 638 685 624 q 694 661 694 651 q 688 683 694 674 q 670 701 681 693 q 649 716 660 710 q 629 726 638 722 q 520 778 567 761 q 449 796 474 796 q 413 778 429 796 q 396 756 410 775 q 374 722 382 738 z "},"Z":{"ha":665,"x_min":0,"x_max":729,"o":"m 729 924 q 628 841 678 883 q 531 754 579 799 q 444 672 486 714 q 360 586 403 629 q 392 581 372 585 q 434 571 411 578 q 483 550 457 564 q 535 514 510 536 q 563 485 547 503 q 592 443 578 468 q 615 385 606 418 q 625 308 625 351 q 619 251 625 286 q 593 168 614 215 q 551 97 575 131 q 494 28 528 64 q 414 -50 460 -8 q 308 -147 368 -92 q 283 -142 296 -144 q 249 -132 271 -140 q 211 -118 229 -125 q 174 -111 193 -111 q 149 -115 158 -111 q 133 -122 139 -119 q 103 -145 115 -132 q 78 -174 90 -158 l 47 -150 l 197 65 q 247 40 225 50 q 290 24 269 31 q 334 12 311 17 q 389 1 357 7 q 403 19 394 8 q 422 49 411 31 q 450 112 433 68 q 467 217 467 156 q 456 298 467 267 q 436 349 446 329 q 414 385 426 368 q 392 408 403 399 q 378 421 382 417 q 366 427 375 422 q 346 438 357 432 q 285 450 318 450 q 215 426 249 450 q 132 353 181 403 l 107 382 q 140 417 122 400 q 174 453 157 435 q 200 479 188 465 q 225 507 213 493 l 432 714 q 404 721 415 718 q 383 726 393 724 q 361 733 372 729 q 335 744 350 738 q 315 753 328 747 q 286 767 301 758 q 261 781 275 772 q 233 799 247 790 q 203 813 218 807 q 174 818 188 818 q 129 803 150 818 q 89 768 108 788 q 59 736 74 751 q 29 706 44 721 l 0 729 l 238 1008 q 328 947 288 972 q 403 906 368 922 q 468 881 438 889 q 529 874 499 874 q 558 875 546 874 q 586 881 571 876 q 636 906 611 889 q 703 956 661 924 l 729 924 z "},"[":{"ha":406,"x_min":114,"x_max":400,"o":"m 399 1004 l 399 969 l 253 969 l 253 -253 l 400 -253 l 400 -287 l 114 -287 l 114 1004 l 399 1004 z "},"\\":{"ha":406,"x_min":26,"x_max":525,"o":"m 453 844 q 437 828 444 836 q 422 811 429 819 q 415 801 418 806 q 404 796 411 796 l 403 796 q 401 797 401 796 q 399 797 400 797 q 359 815 379 806 q 319 832 339 824 q 292 847 306 839 q 263 861 278 854 l 263 219 q 263 201 263 215 q 269 171 263 186 q 289 149 278 154 q 307 144 300 144 q 333 159 321 146 q 365 197 346 172 q 384 224 375 211 q 404 251 393 236 l 432 232 l 258 -21 q 215 10 236 -6 q 169 39 193 25 q 126 65 147 53 q 81 89 104 78 q 93 115 88 104 q 102 139 99 126 q 108 167 106 151 q 110 208 110 183 l 110 583 l 26 619 l 26 651 l 111 699 l 107 803 q 150 839 131 822 q 177 862 163 850 q 204 885 192 874 q 228 904 215 894 q 251 924 240 914 q 258 929 254 926 q 264 935 261 932 q 301 967 282 950 q 339 1000 319 983 q 374 984 357 992 q 410 968 392 976 q 440 954 425 961 q 471 942 456 947 q 497 932 483 936 q 525 924 510 928 q 508 903 518 914 q 486 882 497 893 l 453 844 z "},"]":{"ha":406,"x_min":4,"x_max":292,"o":"m 292 -289 l 4 -289 l 4 -254 l 151 -254 l 151 968 l 6 968 l 6 1001 l 292 1001 l 292 -289 z "},"^":{"ha":810,"x_min":101,"x_max":710,"o":"m 379 1014 l 435 1014 l 710 526 l 601 526 l 401 874 l 204 526 l 101 526 l 379 1014 z "},"_":{"ha":694,"x_min":-8,"x_max":703,"o":"m 703 -104 l 703 -174 l -8 -174 l -8 -104 l 703 -104 z "},"`":{"ha":463,"x_min":81,"x_max":300,"o":"m 81 1026 l 239 1026 l 300 774 l 263 774 l 81 1026 z "},"a":{"ha":636,"x_min":65,"x_max":657,"o":"m 561 615 q 528 588 539 604 q 517 538 518 572 l 517 246 q 517 220 517 233 q 518 194 518 207 q 518 178 518 186 q 519 161 518 169 q 528 144 521 160 q 550 129 535 129 q 565 135 557 129 q 582 147 574 140 q 607 173 594 160 q 631 199 619 186 l 657 178 l 499 -19 q 469 -5 483 -12 q 440 11 456 3 q 401 40 415 25 q 381 70 388 54 q 370 104 374 86 q 365 143 367 122 l 226 -21 q 188 8 201 -3 q 161 27 175 18 q 126 47 147 36 q 65 78 106 58 q 73 97 68 88 q 81 117 78 107 q 85 148 83 132 q 88 179 86 164 l 88 350 l 210 400 q 194 403 206 401 q 169 411 183 406 q 140 426 156 417 q 113 451 125 436 q 90 494 93 475 q 88 521 88 513 q 90 547 88 528 q 110 588 93 565 q 146 623 125 607 q 208 661 167 639 q 239 677 224 669 q 269 693 254 685 q 308 717 289 704 q 347 744 328 731 q 376 725 363 735 q 403 707 389 715 q 497 659 457 674 q 561 638 538 644 l 561 615 m 365 496 q 360 548 365 522 q 322 593 354 574 q 290 607 311 600 q 240 614 269 614 q 211 611 235 614 q 165 592 188 608 q 142 567 156 585 q 128 525 128 550 q 133 496 128 511 q 151 468 139 481 q 163 459 158 461 q 171 454 167 457 q 200 442 182 447 q 244 436 218 436 q 317 445 289 436 q 365 463 346 454 l 365 496 m 365 421 q 325 408 346 414 q 283 396 304 403 q 250 381 264 389 q 232 361 236 372 q 226 334 228 354 q 225 290 225 314 q 226 218 225 250 q 233 171 226 186 q 254 147 240 156 q 283 138 268 138 q 302 140 290 138 q 329 157 314 143 q 352 185 344 171 q 363 213 360 200 q 365 236 365 226 q 365 250 365 246 l 365 421 z "},"b":{"ha":665,"x_min":28,"x_max":585,"o":"m 263 990 l 258 889 l 258 614 q 279 631 269 622 q 300 649 289 640 q 315 660 307 656 q 331 672 324 665 l 372 706 q 402 726 388 717 q 432 746 417 735 q 456 731 447 739 q 489 703 465 722 q 499 694 490 701 q 519 677 507 688 q 543 654 531 667 q 564 631 556 642 q 571 622 567 628 q 576 614 575 617 q 582 592 581 607 l 582 283 q 583 240 582 261 q 583 199 583 219 q 585 173 583 182 q 584 158 586 164 q 576 148 582 153 q 557 135 569 143 q 541 124 549 129 q 525 114 533 119 q 421 39 472 78 q 401 24 410 32 q 381 8 392 17 q 365 -4 374 1 q 350 -17 357 -10 q 323 1 336 -8 q 296 17 310 10 q 270 29 288 21 q 230 47 253 38 q 181 66 207 57 q 129 82 156 75 q 104 88 117 85 q 79 93 92 90 q 94 119 88 107 q 104 143 100 131 q 110 172 108 156 q 113 215 113 189 l 113 576 q 88 590 97 585 q 69 600 78 596 q 51 608 61 604 q 28 617 42 611 l 28 646 l 113 693 l 113 824 q 112 835 113 824 q 108 862 111 846 q 99 895 104 878 q 83 925 93 913 q 64 944 75 936 q 42 964 53 953 l 60 989 q 76 980 64 986 q 99 963 88 974 q 114 949 108 954 q 124 937 119 943 q 135 922 129 931 q 150 897 140 913 l 242 999 l 263 990 m 258 186 l 435 132 l 435 433 q 432 499 433 472 q 425 542 431 526 q 409 577 419 563 q 387 602 399 592 q 364 617 375 613 q 346 622 353 622 q 330 618 340 622 q 304 603 319 614 q 268 551 276 581 q 258 471 260 521 l 258 186 z "},"c":{"ha":435,"x_min":43,"x_max":454,"o":"m 231 232 q 233 208 232 218 q 237 188 233 197 q 249 168 240 178 q 274 149 257 158 q 290 140 278 146 q 315 135 301 135 q 344 144 329 135 q 378 172 356 150 q 429 221 401 193 l 454 197 l 254 -21 q 206 9 231 -6 q 157 38 181 24 q 100 67 129 53 q 43 94 71 81 q 59 120 53 108 q 70 146 65 132 q 77 177 75 160 q 81 221 79 194 l 81 508 l 78 592 q 149 640 118 618 q 203 679 179 661 q 246 713 226 697 q 282 746 265 729 q 294 739 283 744 q 322 726 306 733 q 355 710 338 718 q 388 699 372 703 q 419 692 407 692 q 442 688 432 693 q 450 674 450 685 q 442 653 450 663 q 422 626 435 644 q 406 603 414 615 q 392 581 399 592 q 384 567 388 574 q 375 554 381 561 q 370 545 374 551 q 360 539 367 539 q 333 547 357 539 q 290 561 310 554 q 231 585 263 571 l 231 232 z "},"d":{"ha":636,"x_min":32,"x_max":560,"o":"m 89 481 q 89 503 89 492 q 88 528 89 515 q 88 544 88 538 q 94 556 88 550 q 122 571 99 558 q 172 597 144 583 q 222 622 199 611 q 250 636 246 633 q 226 648 238 643 q 201 660 214 653 q 139 686 169 674 q 79 713 108 699 q 64 719 71 715 q 47 726 57 722 q 37 731 42 729 q 32 738 32 733 q 38 750 32 743 q 58 772 42 757 q 81 792 75 788 q 95 804 88 799 q 110 815 103 810 q 131 831 124 826 q 144 835 138 835 q 150 834 149 835 q 154 833 151 833 q 178 823 165 828 q 201 813 190 818 q 251 790 226 801 q 303 767 276 779 q 372 733 338 750 q 440 697 406 715 q 507 660 476 678 q 547 631 538 642 q 557 601 557 618 q 557 581 557 585 q 557 536 554 560 l 557 325 q 558 284 557 304 q 558 243 558 264 q 559 215 560 229 q 560 188 558 201 q 560 171 560 181 q 557 154 560 161 q 551 147 554 149 q 536 138 547 144 q 519 126 531 135 q 485 103 501 115 q 451 79 468 90 l 389 33 q 325 -18 354 8 q 303 -4 314 -11 q 282 10 293 3 q 197 51 247 32 q 107 81 147 69 q 81 86 94 83 q 56 92 68 89 q 64 108 57 94 q 76 133 71 121 q 89 201 89 165 q 89 272 89 238 l 89 481 m 235 186 l 411 133 l 411 499 q 408 538 410 518 q 390 571 407 557 q 351 592 379 579 q 289 618 322 604 q 260 600 276 611 q 238 575 244 589 q 235 565 235 571 q 235 558 235 560 l 235 186 z "},"e":{"ha":492,"x_min":54,"x_max":506,"o":"m 358 719 q 342 697 342 704 q 353 678 342 689 q 382 656 364 668 q 443 620 415 632 q 506 596 471 608 q 455 544 478 568 q 404 493 432 521 q 374 463 389 478 q 347 435 358 449 q 333 421 339 429 q 313 399 324 410 q 292 378 303 389 q 265 350 278 364 q 239 322 253 336 q 240 283 240 303 q 242 243 240 263 q 242 219 242 242 q 251 176 243 196 q 285 147 263 157 q 322 136 307 136 q 369 153 346 136 q 428 211 392 171 q 455 241 442 226 q 479 267 468 256 l 504 244 l 265 -19 q 209 14 238 -3 q 151 46 181 31 q 103 70 128 58 q 54 93 78 82 q 65 113 58 103 q 76 133 72 122 q 92 208 92 167 q 92 281 92 249 l 92 440 q 91 466 92 453 q 89 492 90 479 q 84 537 88 515 q 76 582 81 558 l 338 746 l 358 719 m 240 376 q 258 394 249 385 q 275 413 268 404 q 285 422 281 417 q 299 438 292 429 q 314 453 307 446 q 337 476 325 464 q 364 506 349 489 l 240 579 l 240 376 z "},"f":{"ha":435,"x_min":24,"x_max":522,"o":"m 260 701 l 425 701 l 371 583 l 260 583 l 260 215 q 261 199 261 213 q 267 174 261 186 q 287 151 275 157 q 306 144 299 144 q 322 151 313 146 q 336 163 331 157 q 344 172 338 164 q 360 193 351 181 q 380 221 369 206 q 401 251 390 236 l 429 233 l 258 -19 q 208 15 233 -4 q 156 49 182 33 q 118 69 138 60 q 79 90 99 79 q 88 105 83 97 q 96 121 93 113 q 108 183 107 146 q 110 278 110 219 l 110 579 q 90 590 99 585 q 71 599 81 594 q 47 610 60 606 q 24 618 35 614 l 24 644 l 108 696 l 106 803 q 154 844 129 824 q 203 885 179 865 q 269 942 235 913 q 336 1000 303 971 q 361 989 349 994 q 389 976 374 983 q 420 963 406 969 q 449 949 435 956 q 485 936 467 942 q 522 924 503 931 q 503 905 513 914 q 486 886 494 896 q 470 867 478 876 q 454 850 463 858 q 437 830 446 839 q 419 810 428 821 q 412 801 415 806 q 401 796 408 796 q 387 800 397 796 q 366 810 376 804 q 346 819 356 815 q 335 825 336 824 q 297 844 315 836 q 260 861 278 853 l 260 701 z "},"g":{"ha":636,"x_min":54,"x_max":675,"o":"m 675 685 q 669 663 672 674 q 663 638 667 651 q 656 615 660 626 q 649 589 651 603 q 645 570 646 576 q 643 560 644 564 q 638 557 642 557 q 626 557 635 557 q 597 555 613 557 q 571 553 582 553 q 544 553 556 553 q 522 556 533 554 l 522 215 q 524 198 522 213 q 532 171 526 183 q 563 129 543 147 q 611 82 583 111 q 644 41 631 61 q 658 -7 658 21 q 656 -27 658 -14 q 643 -58 654 -40 q 616 -89 633 -74 q 578 -119 599 -104 q 540 -145 558 -133 q 508 -165 521 -157 q 444 -208 476 -186 q 378 -250 411 -229 q 309 -217 342 -232 q 239 -187 276 -201 q 199 -173 217 -179 q 168 -167 182 -167 q 156 -167 164 -167 q 138 -174 149 -168 q 115 -193 126 -181 q 82 -228 103 -206 l 57 -206 l 238 26 l 200 43 q 127 69 164 58 q 54 93 90 81 q 65 117 60 107 q 72 138 69 126 q 77 165 75 150 q 79 203 79 179 l 79 597 q 81 603 79 599 q 85 610 82 607 q 106 621 88 613 q 142 639 124 629 q 185 661 167 650 q 225 685 204 672 q 256 704 243 696 q 279 720 269 713 q 297 735 289 728 q 314 750 304 742 q 347 725 328 739 q 411 700 365 711 q 451 692 433 694 q 489 688 469 689 q 531 685 508 686 q 586 685 554 685 l 675 685 m 221 199 q 222 190 221 196 q 224 182 222 185 q 251 163 231 168 q 288 153 272 157 q 308 145 299 149 q 326 139 317 142 l 376 204 l 376 572 q 341 582 358 578 q 304 592 324 586 q 221 625 263 606 l 221 199 m 226 -42 l 481 -126 q 504 -105 496 -114 q 519 -79 513 -96 q 522 -70 519 -76 q 524 -57 524 -64 q 497 -6 524 -29 q 431 54 471 18 q 419 65 424 60 q 407 76 414 69 q 394 92 399 85 q 388 106 390 99 q 382 123 385 114 q 374 147 379 132 l 226 -42 z "},"h":{"ha":665,"x_min":31,"x_max":604,"o":"m 267 997 q 263 838 263 915 l 263 619 l 429 750 q 497 703 467 726 q 522 685 510 694 q 546 669 533 676 q 574 650 560 658 q 604 633 589 642 q 590 603 593 614 q 583 572 586 592 q 581 535 581 553 q 583 497 582 517 l 583 442 q 584 347 583 394 q 585 253 585 300 l 585 171 q 585 140 586 154 q 578 109 585 125 q 558 72 572 93 q 518 21 544 51 q 495 -4 507 8 q 472 -31 483 -17 l 432 -71 q 421 -83 426 -78 q 408 -96 415 -89 q 393 -110 401 -103 q 376 -126 385 -118 q 345 -156 361 -142 q 314 -185 329 -171 q 283 -213 299 -200 q 251 -242 267 -226 l 232 -218 q 240 -209 236 -214 q 250 -200 244 -204 l 275 -175 q 295 -154 286 -164 q 315 -133 304 -144 q 376 -62 353 -93 q 414 11 399 -31 q 432 94 429 54 q 435 176 435 135 q 378 118 407 147 q 324 61 350 89 q 289 22 306 42 q 257 -17 272 3 q 213 18 243 -6 q 135 65 183 42 q 104 79 119 72 q 74 93 89 86 q 93 117 90 107 q 113 179 110 144 q 115 274 115 214 q 116 432 115 353 q 115 590 117 511 q 97 599 106 594 q 81 607 89 603 q 56 617 68 613 q 31 625 43 621 l 31 653 l 115 704 q 115 831 117 779 q 97 917 114 883 q 74 947 88 935 q 47 968 61 958 l 65 996 q 128 944 110 972 q 154 904 147 917 q 174 927 164 915 q 196 951 185 939 q 221 978 208 965 q 246 1004 233 992 l 267 997 m 436 225 q 437 317 436 271 q 438 410 438 364 q 438 443 438 426 q 436 478 438 460 q 435 506 436 482 q 426 553 433 531 q 398 600 419 576 q 351 624 376 624 q 305 606 326 624 q 272 561 283 589 q 263 496 265 540 q 260 396 260 451 q 260 324 260 360 q 261 251 260 288 q 261 228 261 240 q 263 204 261 217 q 266 178 264 188 q 276 160 268 169 q 294 147 281 156 q 322 139 307 139 q 336 142 329 139 q 375 169 350 147 q 436 225 400 190 z "},"i":{"ha":376,"x_min":28,"x_max":388,"o":"m 286 956 l 200 785 l 161 804 l 247 975 l 286 956 m 335 619 q 319 614 333 619 q 294 601 306 608 q 275 581 285 597 q 264 552 267 567 q 260 510 261 538 l 260 231 q 260 190 260 206 q 265 163 261 174 q 288 142 272 142 q 319 154 303 142 q 364 190 336 167 l 388 165 l 346 124 q 314 91 331 107 q 282 58 297 75 q 249 21 264 39 q 219 -15 235 3 q 165 34 196 7 q 79 93 135 61 q 89 110 83 101 q 99 128 94 118 q 114 191 113 156 q 115 254 115 226 l 115 494 q 115 523 115 510 q 114 550 115 536 q 110 574 113 563 q 93 586 108 586 q 75 579 83 586 q 49 558 67 572 l 28 582 l 175 742 q 236 678 208 700 q 288 649 264 656 q 309 646 299 646 q 331 646 319 646 l 335 619 z "},"j":{"ha":376,"x_min":-43,"x_max":333,"o":"m 271 957 l 183 786 l 143 807 l 232 978 l 271 957 m 333 618 q 303 599 318 611 q 276 554 288 586 q 265 491 267 526 q 264 428 264 456 l 264 343 q 264 273 264 307 q 267 203 264 239 q 269 177 268 190 q 272 151 271 164 q 273 135 272 143 q 274 119 274 126 q 276 106 275 113 q 278 93 278 100 q 275 85 278 88 q 264 76 272 83 q 253 69 258 74 q 243 61 249 65 q 194 17 218 40 q 146 -31 169 -7 q 108 -70 126 -50 q 68 -110 89 -90 q 22 -152 44 -133 q -24 -189 0 -171 l -43 -161 q -4 -123 -31 -149 q 49 -60 22 -97 q 82 -5 69 -31 q 101 47 94 21 q 110 99 107 72 q 115 154 113 125 l 115 542 q 115 556 115 544 q 107 578 114 567 q 96 591 104 582 q 72 600 88 600 q 53 595 64 600 q 24 578 43 590 l 3 604 l 157 743 q 231 681 204 700 q 281 656 257 663 q 306 649 293 651 q 332 644 319 647 l 333 618 z "},"k":{"ha":694,"x_min":31,"x_max":710,"o":"m 271 994 q 265 927 268 961 q 263 858 263 893 l 263 621 l 426 739 q 492 718 465 729 q 544 675 519 707 q 567 632 563 651 q 571 601 571 613 q 569 578 571 589 q 564 564 567 567 q 528 513 553 535 q 453 460 503 492 q 489 442 471 450 q 526 425 507 435 q 549 414 542 418 q 561 404 557 410 q 571 376 569 393 q 572 349 572 360 q 578 268 575 313 q 588 189 581 224 q 600 151 593 161 q 624 142 607 142 q 650 153 643 142 q 665 176 657 164 q 672 187 668 182 q 679 197 675 192 l 710 181 l 597 -19 l 510 14 q 477 31 488 24 q 460 50 467 39 q 449 92 451 68 q 443 135 446 115 q 438 165 440 150 q 433 194 436 179 q 395 163 414 179 q 357 132 376 147 q 316 96 333 113 q 283 62 299 79 q 253 26 268 44 q 219 -18 238 7 q 200 10 213 -7 q 164 46 188 26 q 123 75 142 65 q 76 92 104 85 q 88 111 79 97 q 103 144 97 125 q 112 194 108 165 q 116 253 115 222 q 116 312 117 283 q 115 361 115 340 l 115 582 l 31 619 l 31 649 l 115 694 l 115 792 q 113 861 115 828 q 90 924 110 894 q 65 953 79 942 q 47 969 51 965 l 64 997 q 87 984 76 990 q 108 968 97 978 q 129 944 118 958 q 156 907 140 929 q 172 927 164 918 q 190 947 181 936 q 218 977 204 963 q 246 1007 232 992 l 271 994 m 263 406 q 319 430 286 415 q 374 458 353 444 q 413 490 397 472 q 428 536 428 508 q 420 572 428 547 q 385 614 413 596 q 371 621 381 617 q 349 625 361 625 q 330 622 340 625 q 304 607 319 618 q 269 565 275 586 q 263 508 263 543 l 263 406 m 431 243 q 422 315 426 288 q 404 360 417 343 q 342 393 383 393 q 305 385 318 392 q 285 371 292 378 q 262 310 264 350 q 261 208 260 269 q 264 191 263 200 q 275 169 265 182 q 280 164 278 167 q 283 160 282 161 q 292 156 289 157 q 299 156 296 156 q 330 165 315 156 q 358 183 344 174 q 380 199 371 193 q 396 212 389 206 q 411 225 403 218 q 431 243 419 232 z "},"l":{"ha":376,"x_min":21,"x_max":411,"o":"m 254 1001 q 250 883 250 940 q 251 799 250 842 q 253 715 251 757 l 257 319 q 259 233 258 271 q 267 178 260 194 q 283 158 272 165 q 296 150 293 151 q 303 149 297 149 l 307 149 q 340 161 324 149 q 386 206 357 174 l 411 186 l 260 -15 q 198 25 229 4 q 133 65 167 46 q 106 79 119 72 q 79 93 93 86 q 88 107 82 97 q 100 129 94 117 q 109 173 107 149 q 111 236 111 197 q 110 407 111 311 q 110 590 110 503 l 21 626 l 21 654 l 106 706 l 106 819 q 105 833 106 826 q 104 846 104 839 q 78 931 99 903 q 51 958 67 947 q 33 969 35 969 l 51 997 q 81 981 63 993 q 118 944 99 968 q 128 929 122 938 q 142 907 135 921 q 154 922 149 915 q 167 935 160 928 q 174 945 171 940 q 183 954 178 950 q 196 968 190 961 q 208 982 201 975 q 220 995 214 989 q 233 1008 226 1001 l 254 1001 z "},"m":{"ha":983,"x_min":1,"x_max":1039,"o":"m 961 631 q 924 609 938 621 q 905 585 911 597 q 897 563 899 574 q 896 544 896 553 l 896 183 q 897 167 897 181 q 904 140 897 153 q 918 126 911 128 q 931 124 925 124 q 938 124 935 124 q 949 128 942 124 q 976 149 960 133 q 1015 186 993 164 l 1039 160 q 987 110 1014 136 q 936 57 960 83 q 903 21 919 39 q 872 -15 888 3 q 839 0 856 -8 q 806 19 822 8 q 792 28 797 25 q 779 38 786 31 q 751 97 756 61 q 747 189 747 133 q 748 308 747 249 q 749 429 749 368 q 747 504 749 474 q 739 553 746 535 q 714 583 732 571 q 681 596 696 596 q 660 591 674 596 q 626 572 646 586 q 602 550 611 561 q 588 526 593 539 q 581 494 582 513 q 579 451 579 476 l 579 240 q 581 176 579 210 q 608 115 583 143 q 619 105 614 110 q 632 94 625 100 q 575 57 606 79 q 504 -14 544 35 q 484 10 494 -1 q 460 33 474 21 q 426 60 446 46 q 378 93 407 75 q 391 103 381 96 q 408 121 401 110 q 429 183 428 144 q 431 279 431 221 l 431 474 q 428 533 431 510 q 415 571 426 556 q 392 593 407 583 q 365 603 376 603 q 340 595 354 603 q 315 581 326 588 q 285 552 296 565 q 269 525 274 539 q 263 496 264 511 q 260 464 261 481 l 260 232 q 265 156 260 176 q 288 116 272 131 q 313 94 303 101 q 287 81 303 89 q 250 54 271 72 q 215 20 226 35 q 188 -14 203 6 q 158 20 172 6 q 130 47 144 35 q 98 69 115 58 q 57 93 81 81 q 75 109 64 99 q 97 135 86 119 q 111 176 110 154 q 113 239 113 199 l 113 499 q 112 526 113 513 q 111 551 111 539 q 83 597 111 597 q 53 585 68 597 q 22 561 38 572 l 1 583 l 83 665 q 101 682 93 675 q 119 700 108 689 q 165 746 142 724 q 189 739 179 743 q 198 735 190 739 q 216 723 206 731 q 237 706 226 715 q 253 686 247 697 q 258 669 256 678 q 260 643 260 660 q 260 612 260 628 q 261 581 260 596 q 365 656 311 615 q 390 674 378 665 q 414 692 403 683 q 448 718 431 704 q 482 747 465 732 q 516 731 499 740 q 549 707 533 722 q 568 683 561 694 q 577 657 575 671 q 580 624 579 643 q 581 581 581 606 q 615 606 599 593 q 650 633 632 619 q 698 672 674 653 q 746 710 722 690 q 765 727 756 718 q 785 746 775 736 q 860 681 828 700 q 915 656 892 661 q 937 653 926 653 q 957 656 947 654 l 961 631 z "},"n":{"ha":694,"x_min":-1,"x_max":725,"o":"m 646 632 q 610 611 622 622 q 591 589 597 600 q 583 566 585 578 q 582 544 582 554 l 582 197 q 582 175 582 186 q 585 153 582 164 q 592 138 586 151 q 614 124 599 124 q 624 125 617 124 q 639 131 632 126 q 664 151 644 133 q 701 186 683 169 l 725 160 q 698 135 711 147 q 674 110 685 122 l 654 90 q 630 65 643 78 q 606 39 617 53 q 580 11 592 25 q 557 -17 568 -3 q 528 -3 540 -10 q 493 17 515 3 q 465 38 476 28 q 448 60 454 47 q 438 92 442 74 q 433 138 435 110 l 433 497 q 428 533 431 517 q 422 556 426 549 q 399 581 417 564 q 360 599 382 599 q 349 597 357 599 q 333 592 342 596 q 321 585 331 590 q 301 570 311 579 q 280 549 290 561 q 265 522 269 536 q 260 494 263 514 q 257 450 258 475 l 257 196 q 264 148 260 168 q 288 128 268 128 q 306 133 297 128 q 317 142 314 139 l 333 115 q 303 92 318 104 q 274 67 289 79 q 242 40 254 50 q 220 20 229 29 q 203 3 211 11 q 186 -15 196 -6 q 161 15 172 1 q 136 40 150 28 q 103 65 122 53 q 54 93 83 78 q 85 124 75 111 q 101 149 96 138 q 108 174 107 161 q 110 208 108 188 l 110 538 q 107 565 108 553 q 103 583 106 578 q 90 595 99 593 q 79 597 82 597 q 55 588 68 597 q 19 561 42 579 l -1 585 q 81 666 39 625 q 163 747 122 707 q 185 740 172 744 q 218 719 199 735 q 242 699 235 708 q 253 678 250 690 q 257 650 257 667 q 257 608 257 633 q 257 594 257 601 q 258 581 257 588 q 289 602 274 592 q 319 624 304 613 q 397 683 358 651 q 469 746 436 714 q 533 690 497 715 q 600 657 568 664 q 642 657 614 656 l 646 632 z "},"o":{"ha":607,"x_min":42,"x_max":551,"o":"m 551 126 l 307 -17 l 42 146 q 54 165 47 156 q 65 183 61 174 q 76 229 74 201 q 82 297 79 257 l 82 572 q 83 579 82 574 q 86 589 83 585 q 103 607 93 601 q 125 619 114 613 q 146 633 136 626 q 167 647 156 640 q 242 697 204 671 q 317 747 279 722 q 351 735 333 742 q 386 721 368 728 q 469 685 428 704 q 551 647 510 667 l 551 126 m 231 208 q 263 186 247 197 q 296 164 279 175 q 311 154 303 158 q 326 144 319 150 q 357 127 346 133 q 379 121 368 121 q 390 123 385 121 q 403 135 394 125 l 403 574 q 389 581 396 578 q 375 588 382 585 q 340 601 357 594 q 307 615 324 608 q 256 631 269 631 q 231 617 244 631 l 231 208 z "},"p":{"ha":665,"x_min":8,"x_max":586,"o":"m 583 278 q 584 238 583 258 q 585 197 585 218 q 585 172 585 181 q 584 158 586 164 q 577 149 582 153 q 560 136 572 144 q 551 131 556 133 q 543 125 547 128 q 500 95 522 110 q 457 65 478 81 q 404 25 431 46 q 351 -17 378 4 l 260 24 q 261 -12 261 6 q 261 -47 261 -29 q 264 -115 261 -79 q 288 -183 267 -151 q 308 -205 296 -194 q 331 -224 321 -215 l 314 -249 q 272 -221 294 -239 q 222 -158 249 -203 l 131 -260 l 113 -253 l 113 72 l 32 94 q 40 104 36 100 q 50 114 44 108 q 65 128 57 121 q 79 144 72 136 q 99 169 92 158 q 110 191 107 179 q 114 219 114 203 q 114 258 114 235 l 114 519 q 113 555 114 542 q 108 579 113 568 q 99 594 104 592 q 88 597 93 597 q 57 585 72 597 q 29 561 42 572 l 8 586 q 47 626 26 606 q 86 668 67 646 q 124 708 106 688 q 161 749 142 728 q 189 729 176 740 q 207 714 196 724 q 228 694 218 704 q 247 674 239 683 q 258 656 256 664 q 260 648 261 650 q 260 642 260 646 q 260 628 260 635 q 261 615 260 622 q 308 653 285 635 q 354 688 331 671 q 396 716 375 703 q 439 743 417 729 q 488 707 468 722 q 533 667 507 692 q 549 650 535 664 q 571 625 564 636 q 583 590 583 606 q 583 568 583 575 l 583 278 m 260 188 l 435 133 l 435 451 q 434 483 435 464 q 431 520 433 501 q 422 558 428 539 q 404 589 415 576 q 381 607 399 594 q 344 619 364 619 q 303 600 325 619 q 278 573 288 588 q 265 541 269 558 q 260 501 261 524 q 260 449 260 478 l 260 188 z "},"q":{"ha":607,"x_min":60,"x_max":619,"o":"m 550 -93 q 552 -124 550 -103 q 567 -174 554 -146 q 572 -184 569 -179 q 578 -194 575 -189 q 597 -215 585 -206 q 619 -233 608 -225 l 601 -260 q 585 -250 593 -254 q 571 -240 578 -246 q 531 -199 546 -221 q 513 -168 517 -176 l 419 -269 l 400 -261 l 404 -165 l 403 118 q 375 97 389 107 q 346 76 361 88 q 317 53 329 64 q 293 31 304 42 q 272 9 282 21 q 247 -18 261 -3 q 176 33 226 -1 q 60 96 126 68 q 76 139 72 124 q 79 182 79 154 l 79 567 q 87 584 79 579 q 113 600 94 589 q 133 614 124 607 q 151 628 142 621 q 174 642 163 635 q 196 658 185 650 q 219 674 207 665 q 242 692 231 683 q 278 720 260 706 q 313 747 297 735 q 343 728 329 738 q 373 710 357 719 q 409 692 389 701 q 460 672 429 683 q 491 661 475 667 q 522 651 507 656 q 552 644 538 647 q 582 638 567 642 q 568 611 574 622 q 559 590 563 600 q 553 570 556 581 q 550 543 551 560 l 550 -93 m 228 263 q 229 242 229 251 q 229 221 229 232 q 231 201 229 218 q 239 172 232 185 q 278 135 250 153 q 326 117 307 117 q 349 122 340 117 q 365 133 358 128 q 397 189 393 158 q 403 244 401 219 l 403 546 l 228 597 l 228 263 z "},"r":{"ha":492,"x_min":0,"x_max":529,"o":"m 467 699 q 511 654 488 676 q 524 641 518 647 q 529 628 531 635 q 523 614 529 621 q 510 600 517 607 q 492 582 500 590 q 476 567 485 574 q 467 557 472 561 q 457 549 463 553 q 433 526 442 533 q 418 518 425 518 q 407 523 411 518 q 393 540 403 528 q 338 581 360 581 q 323 576 332 581 q 301 560 314 572 q 264 503 268 529 q 258 446 260 476 l 258 292 q 260 260 260 276 q 260 226 260 243 q 262 199 260 214 q 271 172 264 185 q 301 147 282 153 q 324 140 319 140 q 369 163 343 140 q 432 219 396 185 l 454 196 q 422 165 438 181 q 392 132 407 149 q 342 81 367 107 q 293 26 317 54 q 274 5 283 15 q 256 -17 265 -6 q 242 -6 249 -11 q 229 6 236 0 q 206 22 221 13 q 176 42 192 32 q 144 60 160 51 q 117 74 128 68 q 72 93 93 86 q 94 119 90 111 q 101 138 99 126 q 110 181 110 164 q 111 210 111 199 l 111 538 q 110 565 111 553 q 106 583 108 576 q 95 596 103 593 q 85 599 88 599 q 59 585 74 597 q 22 554 44 574 l 0 579 l 161 747 q 200 728 182 740 q 225 710 218 717 q 248 683 240 696 q 258 656 256 671 q 260 620 261 640 q 260 571 260 600 q 294 605 276 588 q 331 640 313 622 q 379 688 358 667 q 429 740 400 710 l 467 699 z "},"s":{"ha":636,"x_min":36,"x_max":640,"o":"m 36 72 q 57 100 47 88 q 78 126 67 113 q 92 145 85 136 q 107 163 100 154 q 120 177 114 169 q 133 193 126 185 q 156 220 144 207 q 178 247 167 233 q 170 266 175 258 q 154 283 165 274 q 124 300 143 294 q 74 313 104 306 q 85 335 79 324 q 93 357 90 346 q 100 413 100 379 q 101 497 100 446 q 102 538 101 521 q 106 567 103 556 q 133 599 113 586 q 172 622 153 611 q 205 644 189 633 q 236 665 221 654 q 297 706 265 683 q 324 726 311 717 q 353 747 338 736 q 381 726 367 736 q 408 706 394 715 q 429 692 419 699 q 450 679 439 686 q 488 660 469 668 q 526 651 507 651 q 537 652 529 651 q 554 658 544 653 q 566 668 558 661 q 582 685 574 675 q 596 708 590 696 q 601 733 601 721 q 601 742 601 739 q 599 751 600 746 q 588 747 596 750 q 571 744 581 744 q 564 745 568 744 q 554 749 560 746 q 542 762 547 754 q 536 783 536 769 q 547 808 536 794 q 586 822 558 822 q 627 800 614 822 q 640 756 640 778 q 639 738 640 749 q 632 713 638 728 q 610 665 624 689 q 574 613 596 642 q 521 550 551 585 q 450 469 490 515 q 476 456 467 461 q 493 447 486 451 q 506 438 500 443 q 521 426 511 433 q 574 370 547 407 q 601 272 601 333 q 599 238 601 258 q 581 186 596 217 q 544 138 568 161 q 494 95 521 115 q 441 58 468 75 q 393 29 414 42 q 353 3 374 17 q 313 -22 333 -11 q 309 -19 310 -21 q 306 -17 308 -18 q 277 5 290 -6 q 249 26 264 15 q 231 38 240 32 q 213 49 222 43 q 200 56 210 50 q 177 69 190 63 q 148 80 164 75 q 117 85 132 85 q 82 74 94 85 q 60 51 69 63 l 36 72 m 251 625 q 243 567 246 596 q 240 507 240 538 q 244 440 240 467 q 263 394 249 413 q 273 383 265 390 q 292 376 281 376 q 327 394 310 376 q 360 425 344 411 q 376 440 371 436 q 394 458 386 450 q 411 478 401 467 q 427 497 419 488 q 442 514 435 506 q 333 572 385 539 q 323 579 328 575 q 313 586 318 583 q 302 593 307 589 q 292 600 297 597 q 272 615 278 610 q 251 625 265 619 m 197 214 q 229 200 207 207 q 242 194 236 197 q 254 189 247 192 q 308 161 282 176 q 363 129 335 146 q 392 110 378 119 q 421 93 407 100 q 427 101 424 97 q 433 108 431 104 q 454 151 444 125 q 464 215 464 178 q 463 237 464 221 q 457 269 463 253 q 449 288 456 275 q 432 315 443 301 q 404 340 421 329 q 365 350 388 350 q 349 349 357 350 q 339 346 342 347 q 303 326 321 339 q 272 299 286 313 q 247 274 257 285 q 235 260 238 263 q 215 237 225 249 q 197 214 206 225 z "},"t":{"ha":406,"x_min":38,"x_max":435,"o":"m 281 899 q 275 852 278 875 q 269 806 272 829 q 265 740 265 772 q 274 710 265 718 q 315 701 283 703 l 433 701 l 404 583 l 264 583 l 264 310 q 264 281 264 294 q 265 253 264 267 q 267 237 267 244 q 268 222 267 229 q 270 196 269 210 q 278 169 271 182 q 288 158 281 165 q 307 150 294 150 q 349 172 322 150 q 410 229 376 194 l 435 208 q 362 128 389 158 q 317 77 335 99 q 285 35 300 56 q 247 -18 269 14 q 208 9 228 -4 q 169 36 189 22 q 154 48 163 43 q 138 58 146 53 q 108 78 122 69 q 79 96 94 86 q 100 139 92 118 q 115 222 113 175 q 118 346 117 268 l 118 522 q 117 544 118 533 q 118 565 117 554 q 119 578 118 572 q 117 588 119 583 q 88 601 114 592 q 38 618 61 611 l 38 644 q 56 665 47 656 q 74 685 64 675 q 90 703 82 694 q 106 721 99 711 q 135 755 121 738 q 165 790 150 772 q 184 815 175 803 q 201 838 193 826 q 227 872 215 856 q 254 908 239 889 l 281 899 z "},"u":{"ha":665,"x_min":3,"x_max":733,"o":"m 578 181 q 579 162 578 172 q 584 142 581 151 q 594 127 588 133 q 614 121 601 121 q 625 122 621 121 q 639 129 629 124 q 669 153 649 135 q 713 190 689 171 l 733 165 q 644 76 689 121 q 556 -17 599 31 q 537 -6 546 -11 q 517 6 528 -1 q 476 31 499 15 q 442 64 453 46 q 431 100 433 78 q 431 157 429 122 l 260 -17 q 201 23 225 7 q 156 49 176 39 q 118 68 136 60 q 79 86 100 76 q 93 117 88 104 q 101 142 99 129 q 106 167 104 154 q 108 201 107 181 l 108 550 q 106 567 107 558 q 106 579 106 576 q 100 590 104 582 q 85 597 96 597 q 58 588 74 597 q 22 564 42 579 l 3 590 q 51 630 31 613 q 89 665 71 647 q 126 701 107 682 q 168 746 144 719 q 197 717 185 729 q 225 694 210 706 q 262 668 240 682 q 318 635 283 654 q 296 621 303 626 q 282 608 289 615 q 260 564 264 589 q 257 513 257 539 l 257 224 q 263 176 258 199 q 293 140 268 154 q 306 135 297 138 q 326 132 314 132 q 344 134 333 132 q 369 144 356 136 q 397 172 379 151 q 425 225 415 193 q 430 257 429 242 q 431 289 431 272 l 431 535 q 423 576 428 561 q 411 601 418 592 q 395 616 404 610 q 374 632 386 622 q 412 660 396 647 q 442 685 428 672 q 468 713 456 697 q 496 750 481 728 q 516 728 507 739 q 536 708 525 718 q 585 668 563 683 q 638 633 607 653 q 605 608 617 621 q 587 583 593 596 q 579 552 581 569 q 578 513 578 535 l 578 181 z "},"v":{"ha":636,"x_min":19,"x_max":579,"o":"m 264 914 q 228 887 247 901 q 192 856 208 872 q 166 823 176 840 q 156 788 156 806 q 164 746 156 772 q 183 691 172 719 q 206 636 194 663 q 225 593 218 610 q 246 613 236 604 q 265 632 256 622 q 278 644 272 638 q 292 658 285 651 q 304 670 299 665 q 315 681 310 675 q 327 692 321 685 q 340 706 333 699 q 370 735 356 721 q 399 763 385 749 l 579 618 q 567 581 571 599 q 562 549 564 568 q 558 510 560 531 q 556 472 557 490 q 556 442 556 454 q 557 376 556 408 q 560 310 558 343 q 564 229 561 269 q 569 149 567 189 q 545 135 563 144 q 504 110 528 125 q 453 75 481 94 q 399 33 425 56 q 369 8 383 22 q 339 -19 354 -6 q 277 17 303 3 q 215 43 251 31 q 181 54 197 49 q 147 65 165 60 q 105 74 128 69 q 49 82 82 78 q 61 101 56 93 q 72 121 67 110 q 91 174 85 146 q 100 232 97 203 q 103 290 103 261 q 103 344 103 319 q 99 456 103 413 q 89 532 96 500 q 69 593 82 564 q 40 664 57 622 q 29 692 39 668 q 19 740 19 717 q 28 776 19 754 q 64 825 36 797 q 156 894 108 867 q 253 946 204 922 l 264 914 m 243 421 l 243 189 l 413 125 q 415 231 415 178 q 415 338 415 285 q 415 415 415 376 q 411 494 414 454 q 409 529 410 517 q 403 553 408 542 q 365 592 393 575 q 319 608 338 608 q 303 605 311 608 q 293 599 296 601 q 263 579 275 589 q 236 550 251 569 l 243 421 z "},"w":{"ha":956,"x_min":29,"x_max":910,"o":"m 276 907 q 247 887 261 897 q 217 865 232 876 q 203 853 213 861 q 185 835 194 846 q 169 810 176 824 q 163 781 163 796 q 172 740 163 765 q 197 678 182 714 q 215 635 206 657 q 232 592 224 614 l 408 757 q 451 720 431 738 q 492 686 471 703 q 549 642 521 663 q 563 633 556 638 q 576 624 569 628 q 596 644 586 635 q 617 664 606 653 q 664 712 640 688 q 713 758 688 736 q 739 738 726 747 q 765 717 751 728 q 798 692 782 704 q 829 668 814 679 q 869 642 849 654 q 910 619 889 631 q 897 599 903 608 q 886 574 892 589 q 876 527 879 554 q 872 456 872 500 q 873 408 872 432 q 875 361 874 385 q 877 301 876 331 q 882 242 878 272 q 888 197 885 219 q 894 153 892 175 q 813 103 847 126 q 752 60 779 81 q 703 19 725 39 q 658 -22 681 -1 q 617 3 638 -10 q 575 28 596 17 q 551 40 563 35 q 528 51 539 44 q 497 66 513 58 q 467 79 482 74 q 407 36 435 57 q 374 8 390 22 q 340 -22 357 -7 q 306 -1 321 -10 q 278 15 292 8 q 249 28 264 22 q 213 43 233 35 q 169 58 186 53 q 138 67 153 64 q 103 74 122 71 q 53 81 83 76 q 65 99 60 90 q 75 117 69 108 q 94 170 88 142 q 104 229 101 199 q 107 288 107 260 q 107 342 107 317 l 107 392 q 107 415 107 397 q 105 459 107 433 q 99 514 103 485 q 86 569 94 543 q 71 611 81 590 q 52 653 61 632 q 36 694 43 674 q 29 736 29 715 q 47 794 29 772 q 81 829 65 815 q 171 892 121 865 q 263 939 221 919 l 276 907 m 249 188 l 418 118 l 418 507 q 411 544 415 532 q 377 585 401 568 q 331 603 353 603 q 293 592 319 603 q 242 543 267 581 q 247 468 244 506 q 250 392 250 431 q 249 338 250 364 q 249 283 249 311 l 249 188 m 563 186 l 732 121 l 732 396 q 730 488 732 449 q 718 547 728 528 q 676 590 703 576 q 638 604 650 604 q 624 603 629 604 q 617 599 619 601 q 583 578 596 590 q 563 557 569 565 l 563 186 z "},"x":{"ha":521,"x_min":-3,"x_max":553,"o":"m 258 306 q 267 232 260 263 q 314 176 274 201 q 349 159 333 163 q 375 156 364 156 q 414 165 400 156 q 443 190 428 175 q 487 238 467 214 q 526 285 507 261 l 553 265 q 522 224 538 244 q 490 183 506 204 q 469 156 479 169 q 449 128 460 142 q 434 108 442 118 q 419 88 426 99 q 383 36 400 63 q 350 -17 367 10 q 288 8 314 -3 q 240 32 263 19 q 194 61 217 44 q 143 103 172 78 q 80 -85 110 -10 q 29 -204 50 -160 l -3 -189 q 28 -108 11 -151 q 60 -20 44 -65 q 88 69 76 25 q 107 153 100 113 q 113 203 111 178 q 115 256 114 229 l 115 544 q 108 581 113 568 q 89 594 104 594 q 60 582 75 594 q 26 551 44 569 l 4 575 q 17 590 11 582 q 31 604 24 597 q 48 622 39 614 q 65 639 57 631 q 71 645 68 642 q 76 651 74 649 q 120 698 99 675 q 164 744 142 721 q 184 735 178 739 q 210 718 190 732 q 230 702 221 710 q 246 683 239 694 q 258 640 256 667 q 260 569 260 613 q 345 655 303 613 q 431 739 388 697 q 459 710 444 724 q 489 681 474 696 q 509 660 500 669 q 529 640 518 651 q 541 631 538 633 q 544 622 544 628 q 538 606 543 614 q 522 586 532 597 q 495 557 508 571 q 454 518 482 543 q 429 501 435 501 q 416 509 424 501 q 399 525 408 517 q 381 540 390 532 q 364 557 372 549 q 349 571 357 564 q 331 578 342 578 q 317 572 324 578 q 303 560 310 567 q 285 542 293 550 q 273 526 278 535 q 265 502 268 517 q 258 464 261 488 l 258 306 z "},"y":{"ha":579,"x_min":0,"x_max":556,"o":"m 0 579 q 14 596 7 588 q 28 613 21 604 q 40 625 35 619 q 51 638 44 631 q 57 644 54 640 q 63 650 60 647 q 103 697 82 672 q 144 742 125 721 q 153 736 150 739 q 158 731 156 733 q 172 716 160 731 q 190 692 183 701 q 213 650 204 672 q 224 625 222 628 q 233 600 229 613 q 240 576 236 588 q 262 598 251 586 q 283 621 272 610 q 299 636 292 629 q 313 651 306 643 q 326 667 319 658 q 340 685 333 675 q 365 714 353 700 q 390 743 378 728 q 434 724 400 740 q 503 674 468 708 q 537 629 518 658 q 556 551 556 600 q 553 524 556 540 q 543 482 551 507 q 527 442 536 463 q 504 396 518 421 q 472 340 490 371 q 428 268 453 308 q 358 156 392 211 q 293 43 325 100 q 242 -58 257 -21 q 228 -126 228 -96 q 231 -151 228 -140 q 236 -167 233 -161 q 269 -197 247 -186 q 308 -207 290 -207 q 353 -194 335 -207 q 378 -168 371 -181 q 382 -148 382 -157 q 386 -129 382 -139 q 400 -107 390 -117 q 424 -97 410 -97 q 447 -114 442 -97 q 453 -135 453 -131 q 448 -153 453 -142 q 432 -183 443 -165 q 371 -237 404 -224 q 306 -250 338 -250 q 290 -249 301 -250 q 265 -244 279 -249 q 236 -232 251 -240 q 207 -208 221 -224 q 183 -168 188 -186 q 176 -143 179 -150 q 175 -128 175 -136 q 175 -112 175 -119 q 178 -76 175 -93 q 183 -40 181 -58 q 188 1 186 -19 q 190 40 190 21 q 185 100 190 72 q 176 138 179 128 q 170 170 174 154 q 164 201 167 186 q 144 317 154 260 q 121 432 133 374 q 104 506 113 474 q 89 553 96 539 q 80 567 88 554 q 58 581 72 581 q 40 574 50 581 q 22 558 31 567 l 0 579 m 250 521 q 263 447 257 485 q 275 374 269 410 q 290 265 283 319 q 304 157 297 211 q 316 176 311 167 q 326 194 321 185 q 337 214 332 204 q 347 233 342 224 q 367 274 356 250 q 390 327 379 297 q 409 393 401 357 q 417 471 417 429 q 415 498 417 486 q 411 517 413 510 q 381 568 403 544 q 331 592 360 592 q 292 578 307 590 q 268 556 276 567 q 256 535 261 546 q 250 521 251 524 z "},"z":{"ha":492,"x_min":44,"x_max":521,"o":"m 521 643 q 479 612 497 626 q 444 583 461 597 q 410 551 428 568 q 369 513 393 535 q 333 478 350 496 q 301 443 317 461 q 331 429 314 438 q 374 400 347 421 q 393 383 386 389 q 407 371 400 376 q 413 363 410 367 q 418 356 415 358 q 426 347 422 351 q 433 338 431 343 q 465 282 447 319 q 482 196 482 244 q 472 131 482 174 q 415 32 463 89 q 376 -10 399 13 q 328 -53 353 -32 q 280 -95 304 -75 q 238 -132 256 -115 q 210 -157 218 -150 q 192 -164 203 -164 q 178 -162 185 -164 q 163 -157 171 -160 q 124 -153 143 -153 q 116 -153 121 -153 q 108 -154 111 -153 q 101 -156 104 -156 q 93 -157 97 -157 q 84 -155 92 -157 q 75 -144 76 -153 q 81 -129 76 -136 q 96 -108 86 -122 q 123 -74 107 -93 q 157 -43 139 -54 q 175 -35 168 -36 q 188 -33 182 -33 q 210 -37 199 -33 q 224 -42 222 -40 q 240 -48 232 -44 q 256 -51 247 -51 q 283 -35 269 -51 q 308 8 297 -18 q 324 64 318 33 q 331 122 331 94 q 330 143 331 128 q 324 178 329 158 q 308 220 319 197 q 278 267 297 243 q 265 281 274 272 q 247 297 257 290 q 212 319 228 313 q 188 326 196 326 q 178 325 181 326 q 172 322 175 324 q 146 300 165 317 q 104 263 126 283 l 82 289 q 123 326 103 307 q 164 364 143 344 q 197 395 182 381 q 229 425 213 410 q 244 439 238 433 q 260 453 251 444 l 278 471 q 295 487 286 478 q 313 503 304 496 q 291 512 303 508 q 268 519 279 515 q 179 556 225 533 q 160 564 168 560 q 140 568 151 568 q 118 560 124 565 q 96 538 103 550 q 74 503 89 525 l 44 518 l 163 742 q 223 702 192 722 q 311 658 254 682 q 334 649 322 654 q 357 642 346 644 q 389 635 375 636 q 410 633 403 633 q 457 642 436 633 q 506 667 478 651 l 521 643 z "},"{":{"ha":550,"x_min":113,"x_max":488,"o":"m 488 983 q 386 935 417 969 q 356 857 356 901 q 362 792 356 825 q 372 746 368 760 q 376 724 374 738 q 382 692 379 710 q 387 656 385 675 q 389 619 389 636 q 373 544 389 583 q 328 475 357 504 q 292 444 310 457 q 256 422 275 432 q 215 406 238 413 q 167 393 193 399 l 167 390 q 261 356 224 374 q 332 303 299 338 q 362 262 350 283 q 380 221 374 240 q 388 186 386 201 q 390 163 390 171 q 383 97 390 131 q 374 53 376 63 q 364 1 371 39 q 357 -71 357 -36 q 394 -162 357 -133 q 488 -203 432 -192 l 488 -235 q 352 -212 406 -236 q 267 -153 299 -187 q 222 -82 235 -119 q 208 -19 208 -44 q 211 19 208 -3 q 217 60 214 40 q 224 94 221 79 q 229 115 228 110 q 239 160 233 129 q 244 222 244 190 q 242 250 244 229 q 228 294 240 271 q 189 340 215 318 q 113 369 163 361 l 113 411 q 189 442 163 419 q 228 489 215 464 q 242 535 240 514 q 244 564 244 557 q 239 625 244 596 q 231 667 233 654 q 226 688 229 672 q 219 723 222 704 q 213 762 215 742 q 210 797 210 782 q 212 817 210 800 q 222 857 214 833 q 248 907 231 881 q 296 956 265 933 q 373 995 326 979 q 488 1014 419 1011 l 488 983 z "},"|":{"ha":782,"x_min":342,"x_max":440,"o":"m 440 1014 l 440 -140 l 342 -140 l 342 1014 l 440 1014 z "},"}":{"ha":550,"x_min":63,"x_max":438,"o":"m 63 1014 q 176 995 129 1011 q 254 956 224 979 q 302 907 285 933 q 328 857 319 881 q 338 817 336 833 q 340 797 340 800 q 338 762 340 782 q 331 723 335 742 q 324 688 328 704 q 319 667 321 672 q 311 625 317 654 q 306 564 306 596 q 308 535 306 557 q 322 489 310 514 q 361 442 335 464 q 438 411 388 419 l 438 369 q 361 340 388 361 q 322 294 335 318 q 308 250 310 271 q 306 222 306 229 q 311 160 306 190 q 321 115 317 129 q 326 94 322 110 q 333 60 329 79 q 339 19 336 40 q 342 -19 342 -3 q 328 -82 342 -44 q 283 -153 315 -119 q 197 -212 251 -187 q 63 -235 143 -236 l 63 -203 q 156 -162 118 -192 q 193 -71 193 -133 q 186 1 193 -36 q 176 53 179 39 q 167 97 174 63 q 160 163 160 131 q 162 186 160 171 q 170 221 164 201 q 188 262 176 240 q 218 303 199 283 q 289 356 251 338 q 383 390 326 374 l 383 393 q 294 422 331 406 q 222 475 257 439 q 177 544 193 504 q 161 619 161 583 q 163 656 161 636 q 168 692 165 675 q 174 724 171 710 q 178 746 176 738 q 188 792 182 760 q 194 857 194 825 q 164 935 194 901 q 63 983 133 969 l 63 1014 l 63 1014 z "},"~":{"ha":926,"x_min":90,"x_max":836,"o":"m 836 572 q 811 450 833 496 q 759 380 789 404 q 698 348 729 356 q 646 340 667 340 q 603 343 624 340 q 556 355 583 346 q 489 379 528 364 q 390 419 450 394 q 302 453 332 444 q 250 461 272 461 q 192 447 214 461 q 158 412 171 432 q 140 372 146 392 q 133 340 135 351 l 90 340 q 97 406 92 364 q 125 486 101 449 q 198 554 156 536 q 275 572 240 572 q 304 571 288 572 q 349 563 321 569 q 421 539 376 556 q 535 493 465 522 q 593 469 569 478 q 632 456 617 460 q 657 451 647 451 q 676 450 667 450 q 712 455 693 450 q 747 474 731 460 q 776 511 764 488 q 793 572 789 535 l 836 572 z "},"":{"ha":435,"x_min":135,"x_max":369,"o":"m 263 622 q 267 532 264 574 q 274 450 269 490 q 288 368 279 410 q 308 278 296 326 q 324 222 317 244 q 338 183 331 200 q 352 152 344 167 q 369 118 360 138 q 326 69 342 88 q 298 35 310 50 q 276 7 286 21 q 253 -29 267 -7 q 232 3 242 -11 q 210 32 222 17 q 179 67 197 47 q 135 115 161 86 q 152 153 143 135 q 168 192 161 172 q 184 241 178 217 q 197 290 190 265 q 218 398 211 347 q 228 492 225 449 q 233 567 232 535 q 233 621 233 600 l 263 622 m 250 686 q 224 722 235 708 q 202 749 213 736 q 178 774 192 761 q 146 807 165 788 q 160 824 153 817 q 175 842 168 832 q 197 867 186 854 q 218 892 207 879 q 235 915 226 903 q 251 939 243 926 q 276 902 265 918 q 299 872 288 886 q 322 842 310 857 q 354 806 335 826 q 320 772 333 785 q 297 747 307 758 q 275 721 286 735 q 250 686 264 707 z "},"":{"ha":521,"x_min":86,"x_max":479,"o":"m 86 100 q 103 113 96 106 q 117 132 111 119 q 126 165 122 144 q 129 218 129 185 l 129 604 q 158 618 142 610 q 195 640 175 626 q 240 673 215 653 q 296 724 265 693 l 371 681 l 424 865 l 468 865 l 408 658 l 472 622 l 401 517 l 372 532 l 267 161 l 401 100 l 472 151 l 479 122 l 311 0 q 269 24 285 15 q 232 40 253 32 l 175 -157 l 129 -157 l 190 57 q 138 74 163 68 q 86 85 113 79 l 86 100 m 267 324 l 269 324 l 333 554 l 267 593 l 267 324 z "},"":{"ha":940,"x_min":57,"x_max":889,"o":"m 110 517 l 289 517 q 272 572 279 542 q 264 650 264 601 q 272 724 264 699 q 289 771 279 750 l 625 939 l 871 785 l 772 667 l 493 839 q 475 813 486 829 q 454 776 464 797 q 438 726 444 754 q 431 661 431 697 q 435 602 431 629 q 456 532 440 575 q 459 524 457 531 q 461 517 461 518 l 736 517 l 694 397 l 485 397 q 476 306 488 365 q 417 175 465 247 q 497 192 454 185 q 593 200 539 200 q 744 184 669 200 q 889 140 818 168 l 814 0 q 624 52 725 29 q 426 75 524 75 q 322 67 374 75 q 223 49 269 60 q 136 24 176 38 q 68 0 96 11 l 57 18 q 102 44 71 26 q 175 81 133 61 q 267 123 217 101 q 372 161 318 144 q 373 177 372 165 q 374 199 374 189 q 362 283 374 228 q 325 397 350 339 l 68 397 l 110 517 z "},"":{"ha":956,"x_min":131,"x_max":825,"o":"m 742 803 l 825 719 l 736 631 q 772 564 754 604 q 790 454 790 524 q 771 344 790 386 q 736 279 751 301 l 825 192 l 742 110 l 654 196 q 628 181 644 190 q 590 163 613 172 q 539 148 568 154 q 475 142 510 142 q 415 147 442 142 q 367 161 388 153 q 330 179 346 169 q 301 196 314 189 l 214 110 l 131 192 l 218 279 q 183 344 203 303 q 164 456 164 386 q 184 566 164 524 q 218 631 204 608 l 131 719 l 213 803 l 301 714 q 367 749 324 729 q 478 768 410 768 q 588 749 546 768 q 654 714 631 729 l 742 803 m 478 650 q 402 635 438 650 q 340 593 367 619 q 297 531 313 567 q 282 456 282 496 q 297 379 282 415 q 339 317 313 343 q 401 275 365 290 q 478 260 438 260 q 554 275 518 260 q 617 317 590 290 q 658 379 643 343 q 674 456 674 415 q 658 531 674 496 q 616 593 643 567 q 553 635 589 619 q 478 650 518 650 z "},"":{"ha":1013,"x_min":33,"x_max":976,"o":"m 928 717 l 747 789 l 603 444 l 603 394 l 826 394 l 792 292 l 603 292 l 603 149 q 633 154 617 151 q 682 157 650 157 q 719 154 706 157 q 747 149 732 151 l 697 35 l 683 36 q 647 42 665 39 q 610 46 628 46 q 558 43 590 46 q 486 35 525 40 q 406 20 447 29 q 328 0 365 11 l 318 29 q 355 49 335 39 q 394 69 375 60 q 428 86 414 79 q 450 96 443 93 q 458 100 451 97 q 465 103 464 103 l 465 292 l 243 292 l 278 394 l 465 394 l 465 444 l 297 726 q 274 765 286 746 q 248 800 263 785 q 214 824 233 815 q 169 833 194 833 q 99 808 125 833 q 53 756 74 783 l 33 776 q 87 869 56 836 q 148 917 118 903 q 201 935 178 932 q 229 938 224 938 q 332 903 290 938 q 413 801 374 868 l 592 497 l 772 933 q 820 901 790 921 q 876 868 850 882 l 976 817 l 928 717 z "},"":{"ha":782,"x_min":342,"x_max":440,"o":"m 440 353 l 440 -140 l 342 -140 l 342 353 l 440 353 m 440 1014 l 440 521 l 342 521 l 342 1014 l 440 1014 z "},"":{"ha":694,"x_min":64,"x_max":626,"o":"m 485 765 q 443 797 464 781 q 400 828 422 813 q 375 844 388 836 q 350 863 363 853 q 323 877 332 874 q 304 881 314 881 q 283 875 296 881 q 250 850 269 869 q 217 808 231 831 q 204 767 204 786 q 239 706 204 735 q 331 638 274 678 q 367 610 350 624 q 404 583 385 597 q 436 562 419 572 q 468 540 453 551 q 487 527 478 533 q 506 514 496 521 q 553 480 531 496 q 591 447 575 464 q 617 409 607 429 q 626 364 626 389 q 625 346 626 356 q 618 321 624 336 q 585 256 608 294 q 543 190 563 218 q 526 168 535 179 q 510 146 518 157 q 533 123 525 131 q 547 109 542 115 q 557 97 553 103 q 567 83 561 92 q 587 45 582 61 q 592 7 592 29 q 576 -72 592 -33 q 533 -151 561 -111 q 495 -201 513 -181 q 468 -232 478 -221 q 440 -260 454 -247 q 410 -289 425 -274 q 388 -308 399 -299 q 365 -328 376 -318 q 349 -343 357 -336 q 331 -357 340 -350 q 302 -344 315 -350 q 274 -329 289 -337 q 239 -308 258 -319 q 204 -286 219 -297 q 144 -245 171 -264 q 83 -197 117 -226 q 64 -176 64 -182 q 68 -166 64 -171 q 74 -160 72 -161 q 83 -149 78 -154 q 92 -137 88 -144 q 113 -112 103 -125 q 133 -86 122 -99 q 165 -48 149 -67 q 197 -10 181 -29 l 222 -32 q 210 -51 219 -36 q 201 -82 201 -67 q 216 -118 201 -104 q 253 -147 231 -132 q 313 -186 282 -168 q 403 -226 344 -204 q 426 -211 418 -219 q 447 -187 435 -203 q 468 -162 456 -178 q 489 -124 481 -146 q 494 -108 492 -118 q 497 -85 497 -99 q 496 -69 497 -79 q 488 -46 494 -60 q 452 1 475 -19 q 390 51 429 21 q 333 97 363 74 q 278 138 303 119 q 227 176 256 156 q 169 219 199 196 q 133 249 151 233 q 99 283 114 265 q 74 319 83 300 q 64 358 64 338 q 66 380 64 368 q 76 410 68 392 q 97 444 82 422 q 127 488 111 465 q 158 530 143 510 q 183 561 174 550 q 147 593 164 578 q 122 621 131 608 q 109 651 114 633 q 104 679 104 668 q 113 720 104 697 q 134 767 121 743 q 164 814 147 790 q 196 857 181 838 q 267 934 228 897 q 349 1007 307 971 q 390 984 369 996 q 435 956 411 972 q 489 919 458 940 q 560 868 519 897 l 485 765 m 215 538 q 183 491 200 515 q 167 443 167 467 q 172 418 167 429 q 190 394 178 407 q 226 360 201 382 q 312 293 269 324 q 396 231 354 263 q 437 200 417 215 q 479 169 457 185 q 515 224 496 193 q 533 278 533 254 q 513 320 533 301 q 474 354 493 339 q 434 383 454 369 q 393 413 414 397 q 308 474 351 443 q 215 538 264 504 z "},"":{"ha":463,"x_min":21,"x_max":442,"o":"m 293 885 l 367 958 l 442 885 l 367 810 l 293 885 m 21 885 l 94 958 l 169 885 l 94 810 l 21 885 z "},"":{"ha":1056,"x_min":46,"x_max":1008,"o":"m 754 571 l 728 571 q 697 648 718 619 q 649 692 675 676 q 599 712 624 707 q 561 717 575 717 q 470 690 504 717 q 417 626 436 664 q 392 545 399 588 q 386 469 386 503 q 392 370 386 419 q 431 281 399 321 q 486 235 453 253 q 558 217 519 217 q 625 228 596 217 q 676 253 654 239 q 713 284 699 268 q 735 310 726 300 l 735 263 q 637 197 693 218 q 519 176 581 176 q 414 193 465 176 q 322 244 363 210 q 258 331 282 279 q 233 453 233 383 q 258 576 233 521 q 322 670 282 632 q 417 729 363 708 q 532 750 471 750 q 601 743 571 750 q 665 722 631 736 q 685 717 679 718 q 697 715 690 715 q 722 728 717 715 q 728 749 726 742 l 754 749 l 754 571 m 526 940 q 713 903 625 940 q 866 801 800 865 q 970 648 932 736 q 1008 460 1008 560 q 971 272 1008 360 q 867 119 933 185 q 714 15 801 53 q 526 -22 626 -22 q 339 15 426 -22 q 186 119 251 53 q 83 272 121 185 q 46 460 46 360 q 84 648 46 560 q 188 801 122 736 q 340 903 253 865 q 526 940 428 940 m 526 879 q 364 847 440 879 q 231 757 288 814 q 140 624 174 700 q 107 460 107 547 q 140 296 107 372 q 229 163 172 219 q 363 72 286 106 q 526 39 439 39 q 690 72 614 39 q 824 163 767 106 q 914 296 881 219 q 947 460 947 372 q 914 624 947 547 q 823 757 881 700 q 689 847 765 814 q 526 879 613 879 z "},"":{"ha":419,"x_min":28,"x_max":399,"o":"m 399 665 l 289 593 q 259 619 275 603 q 239 679 243 636 l 101 593 q 52 640 76 613 q 28 704 28 668 q 37 751 28 729 q 59 793 46 774 q 88 828 72 813 q 119 857 104 844 l 72 968 l 89 993 q 113 986 103 989 q 138 983 124 983 q 174 991 160 983 q 211 1013 189 999 l 226 1007 q 249 998 231 1004 q 272 989 267 992 q 277 988 274 989 q 286 985 281 986 q 297 981 292 981 q 306 977 300 979 q 317 975 311 975 q 338 985 328 975 q 354 1001 347 994 l 372 988 q 367 978 368 981 q 364 974 367 976 q 357 960 363 971 q 349 946 351 949 q 342 930 346 940 q 336 908 338 919 q 331 867 332 876 q 331 851 331 858 l 331 758 q 331 737 331 751 q 334 708 332 722 q 342 682 336 693 q 357 671 347 671 q 363 672 360 671 q 375 681 365 674 q 381 684 378 682 q 386 686 385 686 l 399 665 m 239 708 l 239 800 l 142 847 q 124 802 129 819 q 118 765 118 785 q 135 699 118 724 q 164 661 153 674 l 239 708 m 239 826 l 239 918 l 101 963 l 140 874 l 239 826 z "},"":{"ha":492,"x_min":54,"x_max":417,"o":"m 236 447 l 174 372 l 238 297 l 238 156 l 54 374 q 78 403 67 389 q 104 432 90 417 q 117 447 111 440 q 129 463 122 454 q 166 505 149 485 q 199 544 183 525 q 208 554 203 549 q 217 564 213 560 q 226 574 222 569 q 236 586 229 579 l 236 447 m 415 450 l 351 371 l 417 297 l 417 157 l 235 372 q 263 406 250 390 q 290 439 276 422 q 312 464 301 451 q 333 489 322 476 q 374 537 353 513 q 415 585 394 561 l 415 450 z "},"":{"ha":694,"x_min":33,"x_max":674,"o":"m 294 890 q 274 769 282 829 q 270 734 271 751 q 267 699 269 717 q 263 663 265 681 q 261 629 261 646 l 261 619 l 407 772 q 425 758 417 765 q 444 744 433 751 q 486 724 465 732 q 525 711 507 715 q 557 706 543 707 q 576 704 571 704 q 617 710 600 704 q 656 725 633 715 l 674 704 q 616 640 644 672 q 560 575 588 607 q 513 520 536 547 q 465 465 489 493 q 483 463 475 464 q 501 460 492 463 q 524 453 507 458 q 563 438 542 449 q 604 410 583 428 q 640 364 625 392 q 649 342 646 353 q 653 328 651 331 q 656 308 654 322 q 658 278 658 294 q 657 251 658 267 q 649 213 656 236 q 613 127 639 175 q 536 0 588 79 q 517 -29 526 -15 q 497 -58 507 -43 q 474 -98 485 -78 q 453 -137 464 -118 q 417 -127 429 -129 q 392 -125 406 -125 q 344 -132 363 -125 q 314 -144 326 -139 q 321 -101 317 -122 q 340 -58 325 -81 q 383 -22 360 -32 q 431 -12 407 -12 q 459 -15 447 -12 q 488 -22 471 -18 l 500 15 q 514 67 507 32 q 521 147 521 101 q 512 231 521 197 q 488 286 503 265 q 456 322 479 301 q 394 343 433 343 q 362 336 375 343 q 331 318 349 329 l 310 340 l 513 571 q 443 579 471 575 q 394 590 415 583 q 356 606 374 596 q 317 628 338 615 l 257 568 l 257 321 q 257 275 257 297 q 258 229 257 253 q 263 192 260 210 q 283 160 265 175 q 294 152 285 158 q 313 146 303 146 q 336 158 319 146 q 367 184 351 169 q 413 229 382 199 l 438 207 q 375 140 406 174 q 317 72 344 107 q 281 27 299 50 q 247 -18 264 4 q 228 -4 238 -11 q 210 10 219 3 q 149 49 182 29 q 88 86 117 69 l 58 103 q 88 156 78 132 q 104 201 99 179 q 110 244 110 224 q 111 289 111 265 l 111 601 l 33 621 l 35 647 q 74 685 54 667 q 114 724 94 704 q 136 748 125 736 q 158 772 147 760 q 192 808 175 790 q 224 844 208 825 q 247 873 235 858 q 269 903 258 888 l 294 890 z "},"":{"ha":926,"x_min":89,"x_max":838,"o":"m 838 518 l 838 392 l 89 392 l 89 518 l 838 518 z "},"":{"ha":1056,"x_min":46,"x_max":1008,"o":"m 515 739 q 591 736 561 739 q 641 728 621 733 q 673 717 661 724 q 694 704 685 711 q 713 689 703 699 q 733 665 724 679 q 749 633 742 651 q 756 590 756 614 q 753 565 756 583 q 740 526 751 547 q 705 483 729 504 q 635 450 681 463 l 728 281 q 760 233 744 250 q 799 213 776 217 l 799 190 l 635 190 l 496 440 l 464 440 l 464 306 q 467 260 464 278 q 478 233 469 243 q 502 218 486 222 q 546 213 518 214 l 546 190 l 258 190 l 258 213 q 288 215 275 213 q 310 226 301 217 q 324 253 319 235 q 329 306 329 272 l 329 625 q 327 669 329 651 q 319 695 325 686 q 301 708 313 704 q 269 715 289 713 l 269 739 l 515 739 m 464 474 q 481 472 469 474 q 503 471 492 471 q 538 477 519 471 q 573 498 557 483 q 599 536 589 513 q 610 593 610 560 q 594 660 610 636 q 560 694 579 683 q 520 706 540 704 q 490 708 500 708 l 464 708 l 464 474 m 526 940 q 713 903 625 940 q 866 801 800 865 q 970 648 932 736 q 1008 460 1008 560 q 971 272 1008 360 q 867 119 933 185 q 714 15 801 53 q 526 -22 626 -22 q 339 15 426 -22 q 186 119 251 53 q 83 272 121 185 q 46 460 46 360 q 84 648 46 560 q 188 801 122 736 q 340 903 253 865 q 526 940 428 940 m 526 879 q 364 847 440 879 q 231 757 288 814 q 140 624 174 700 q 107 460 107 547 q 140 296 107 372 q 229 163 172 219 q 363 72 286 106 q 526 39 439 39 q 690 72 614 39 q 824 163 767 106 q 914 296 881 219 q 947 460 947 372 q 914 624 947 547 q 823 757 881 700 q 689 847 765 814 q 526 879 613 879 z "},"":{"ha":463,"x_min":25,"x_max":438,"o":"m 25 844 l 25 936 l 438 936 l 438 844 l 25 844 z "},"":{"ha":550,"x_min":40,"x_max":510,"o":"m 275 939 q 366 921 324 939 q 440 871 408 903 q 491 796 472 839 q 510 704 510 753 q 491 613 510 656 q 440 539 472 571 q 366 488 408 507 q 275 469 324 469 q 184 488 226 469 q 110 539 142 507 q 59 613 78 571 q 40 704 40 656 q 59 796 40 753 q 110 871 78 839 q 184 921 142 903 q 275 939 226 939 m 275 850 q 219 839 246 850 q 172 808 192 828 q 141 761 153 788 q 129 704 129 735 q 140 647 129 674 q 172 601 151 621 q 218 571 192 582 q 275 560 244 560 q 332 571 306 560 q 378 602 358 582 q 409 649 397 622 q 421 704 421 675 q 409 761 421 735 q 378 808 397 788 q 332 839 358 828 q 275 850 306 850 z "},"":{"ha":926,"x_min":89,"x_max":838,"o":"m 400 638 l 400 949 l 526 949 l 526 638 l 838 638 l 838 511 l 526 511 l 526 200 l 400 200 l 400 511 l 89 511 l 89 638 l 400 638 m 838 126 l 838 0 l 89 0 l 89 126 l 838 126 z "},"":{"ha":463,"x_min":26,"x_max":428,"o":"m 26 443 q 38 483 31 464 q 63 523 46 501 q 109 569 81 544 q 183 626 138 594 q 222 655 201 639 q 260 692 243 671 q 290 742 278 714 q 301 808 301 771 q 292 846 301 832 q 274 869 283 860 l 107 765 l 26 836 l 185 939 l 422 842 q 426 821 424 832 q 428 797 428 810 q 405 714 428 749 q 350 655 382 679 q 283 615 318 631 q 222 589 247 599 q 158 558 182 574 q 107 507 133 542 l 110 504 q 155 522 131 514 q 204 535 179 529 q 253 544 229 540 q 297 547 278 547 q 342 544 304 547 q 428 525 381 542 l 350 431 q 274 451 307 443 q 197 458 240 458 q 114 449 144 458 q 64 431 83 440 l 26 443 z "},"":{"ha":463,"x_min":-6,"x_max":417,"o":"m -6 529 l 79 608 l 249 478 q 273 508 261 489 q 285 567 285 526 q 269 635 285 611 q 231 671 253 660 q 184 684 208 682 q 144 686 160 686 l 119 686 l 119 721 q 163 724 138 721 q 212 737 189 726 q 251 769 235 747 q 267 831 267 790 q 266 843 267 835 q 262 860 265 851 q 252 874 258 868 q 235 881 246 881 q 217 877 224 881 q 199 865 211 874 l 100 796 l 28 874 l 119 936 l 401 860 q 391 816 397 839 q 372 772 385 793 q 340 735 360 751 q 289 708 319 718 l 289 706 q 320 698 299 704 q 363 678 342 692 q 401 644 385 665 q 417 592 417 622 q 382 506 417 538 q 299 459 347 475 q 200 438 251 443 q 115 432 149 433 l -6 529 z "},"":{"ha":463,"x_min":163,"x_max":382,"o":"m 163 774 l 224 1026 l 382 1026 l 200 774 l 163 774 z "},"":{"ha":694,"x_min":47,"x_max":679,"o":"m 229 667 l 229 260 q 231 194 229 235 q 239 121 232 153 q 262 77 246 90 q 307 64 278 64 q 352 74 336 64 q 382 100 368 83 q 406 144 400 121 q 411 206 411 168 l 411 667 l 550 667 l 550 178 q 556 88 550 122 q 596 54 561 54 q 622 65 613 54 q 638 89 632 75 q 647 117 644 103 q 651 138 650 131 l 679 138 q 638 26 674 72 q 533 -19 603 -19 q 474 -8 497 -19 q 438 22 451 4 q 419 60 425 40 q 413 96 414 81 l 410 96 q 396 63 406 82 q 368 25 386 43 q 322 -6 350 7 q 256 -19 294 -19 q 186 0 207 -19 q 151 39 165 19 l 149 39 q 149 -1 149 17 q 152 -40 150 -19 q 159 -87 154 -61 q 172 -154 164 -114 q 178 -185 175 -165 q 182 -226 182 -206 q 178 -249 182 -236 q 165 -273 174 -261 q 142 -292 156 -285 q 113 -300 129 -300 q 81 -291 93 -300 q 60 -270 68 -282 q 50 -246 53 -258 q 47 -226 47 -233 q 48 -205 47 -214 q 52 -180 49 -196 q 61 -139 56 -164 q 78 -71 67 -114 q 87 6 83 -47 q 90 129 90 58 l 90 667 l 229 667 z "},"":{"ha":665,"x_min":79,"x_max":622,"o":"m 524 763 l 622 763 l 622 726 l 522 726 l 522 36 l 622 36 l 622 0 l 522 0 q 520 -81 521 -49 q 515 -132 519 -112 q 482 -201 507 -172 q 417 -262 457 -231 l 397 -237 q 428 -201 410 -224 q 458 -144 447 -179 q 469 -74 468 -114 q 469 -1 469 -33 q 435 1 451 1 q 400 1 418 0 q 320 8 360 3 q 244 30 281 14 q 176 76 208 46 q 122 156 144 106 q 94 242 108 183 q 79 376 79 301 q 80 408 79 385 q 85 465 81 432 q 98 535 89 497 q 124 607 107 572 q 135 628 128 615 q 157 660 142 640 q 172 677 163 665 q 197 700 182 689 q 216 712 206 707 q 235 721 226 717 q 281 742 257 733 q 357 757 314 753 q 471 764 400 761 l 471 906 l 532 949 q 526 884 529 917 q 524 819 524 851 l 524 763 m 469 725 q 422 720 442 726 q 390 704 403 714 q 365 675 372 692 q 357 656 358 658 q 348 615 353 642 q 340 552 343 588 q 333 475 336 517 q 331 390 331 433 q 331 346 331 368 q 333 300 332 324 q 338 223 335 260 q 347 154 340 186 q 362 99 353 122 q 386 63 371 75 q 412 49 397 53 q 439 42 426 44 q 469 39 454 39 l 469 725 z "},"":{"ha":260,"x_min":61,"x_max":199,"o":"m 131 335 q 81 355 101 335 q 61 406 61 375 q 62 415 61 411 q 65 428 63 419 q 85 456 71 440 q 131 472 99 472 q 140 472 133 472 q 156 468 147 471 q 187 440 175 460 q 199 403 199 421 q 179 355 199 374 q 131 335 160 336 z "},"":{"ha":260,"x_min":61,"x_max":199,"o":"m 131 335 q 81 355 101 335 q 61 406 61 375 q 62 415 61 411 q 65 428 63 419 q 85 456 71 440 q 131 472 99 472 q 140 472 133 472 q 156 468 147 471 q 187 440 175 460 q 199 403 199 421 q 179 355 199 374 q 131 335 160 336 z "},"":{"ha":463,"x_min":106,"x_max":383,"o":"m 203 -17 q 233 -6 215 -11 q 272 0 251 0 q 353 -31 324 0 q 383 -103 383 -62 q 380 -131 383 -111 q 358 -173 376 -151 q 304 -210 340 -194 q 204 -226 268 -226 q 170 -225 199 -226 q 106 -217 142 -224 l 117 -194 q 156 -198 143 -197 q 175 -199 168 -199 q 203 -195 186 -199 q 235 -183 219 -192 q 263 -162 251 -175 q 274 -129 274 -149 q 265 -101 274 -112 q 244 -81 257 -89 q 215 -70 231 -74 q 186 -67 200 -67 q 171 -67 178 -67 q 154 -69 164 -68 l 203 -17 z "},"":{"ha":463,"x_min":101,"x_max":368,"o":"m 253 435 l 150 494 l 174 522 l 174 788 q 172 841 174 821 q 156 861 169 861 q 140 855 149 861 q 118 839 131 849 l 101 865 l 213 939 q 258 915 242 929 q 282 883 275 901 q 290 841 289 864 q 292 793 292 818 l 292 576 q 293 541 292 549 q 306 522 294 533 q 310 517 308 519 q 314 515 313 515 l 350 540 l 368 515 l 253 435 z "},"":{"ha":390,"x_min":38,"x_max":351,"o":"m 351 658 q 312 646 328 651 q 281 633 296 640 q 250 617 265 626 q 214 596 235 608 q 158 619 181 610 q 119 633 136 628 q 85 639 101 638 q 49 640 69 640 l 38 658 q 58 690 50 672 q 65 756 65 707 l 65 953 q 108 963 90 958 q 139 973 125 967 q 167 989 153 979 q 203 1014 182 999 q 240 993 224 1001 q 273 980 257 985 q 308 972 289 975 q 351 967 326 968 l 351 658 m 261 672 l 261 899 q 210 919 235 913 q 157 931 185 926 l 157 710 l 261 672 z "},"":{"ha":492,"x_min":75,"x_max":439,"o":"m 258 376 l 76 163 l 76 299 l 142 376 l 75 453 l 75 593 l 258 376 m 439 375 l 256 161 l 256 303 l 318 375 l 254 453 l 254 594 l 439 375 z "},"":{"ha":724,"x_min":25,"x_max":751,"o":"m 563 997 l 586 989 q 583 958 583 974 q 581 922 582 942 q 578 854 579 890 q 578 782 578 818 q 578 740 578 764 q 590 708 579 717 q 615 701 599 701 q 640 700 632 700 l 749 700 l 719 579 l 579 579 l 579 397 q 580 335 579 365 q 582 274 581 306 q 583 242 582 258 q 585 211 583 226 q 588 194 586 204 q 593 174 589 183 q 604 157 597 164 q 624 150 611 150 q 634 151 631 150 q 640 154 638 153 q 725 229 667 168 l 751 207 q 706 158 728 182 q 663 110 685 135 q 642 85 651 97 q 624 63 633 74 q 593 22 608 42 q 563 -18 578 1 q 532 4 547 -7 q 501 26 517 15 q 481 40 490 33 q 460 54 472 46 q 442 66 451 60 q 424 78 432 72 q 410 87 417 83 q 396 94 403 90 q 406 117 401 107 q 415 138 411 126 q 422 163 418 149 q 429 199 425 176 l 261 -18 l 79 90 q 88 106 83 99 q 96 122 93 114 q 108 178 107 147 q 110 263 110 210 l 110 581 l 25 617 l 25 643 l 107 696 l 107 800 l 338 999 q 383 978 361 988 q 428 961 404 969 q 467 948 447 954 q 506 935 486 942 l 563 997 m 254 700 l 433 700 l 433 801 q 383 818 408 810 q 332 836 358 826 q 293 851 313 843 q 254 867 274 860 l 254 700 m 256 274 q 256 204 256 233 q 272 160 257 175 q 288 149 275 157 q 314 142 300 142 q 328 144 322 142 q 338 150 335 147 q 378 192 353 161 q 435 263 403 222 l 435 579 l 256 579 l 256 274 z "},"":{"ha":753,"x_min":21,"x_max":753,"o":"m 590 996 l 582 824 l 582 765 q 583 751 583 758 q 583 736 583 743 q 584 725 583 733 q 589 711 585 717 q 606 704 594 706 q 633 700 618 703 l 750 700 l 721 582 l 581 582 l 581 385 q 583 298 582 340 q 588 211 583 256 q 589 194 588 204 q 594 174 590 183 q 606 158 599 164 q 625 151 613 151 q 645 157 636 151 q 672 178 654 163 q 696 198 686 189 q 726 231 706 207 l 753 208 q 672 119 721 174 q 565 -17 624 64 q 522 13 546 -4 q 474 47 499 29 q 435 72 453 61 q 400 94 417 83 q 414 126 408 113 q 422 151 419 139 q 427 176 425 164 q 432 208 429 189 l 260 -19 q 221 6 242 -8 q 179 31 200 19 q 127 60 151 47 q 78 89 103 74 q 92 117 86 104 q 101 147 97 131 q 106 183 104 163 q 107 232 107 203 l 107 582 l 21 617 l 21 647 l 106 696 l 103 801 q 174 862 139 833 q 247 922 210 890 q 294 963 271 942 q 338 1003 318 985 q 430 967 389 985 q 507 939 471 949 l 568 1007 l 590 996 m 253 232 q 255 201 254 215 q 258 179 256 186 q 275 158 261 172 q 310 143 289 143 q 333 151 321 143 q 365 181 346 158 q 386 208 375 192 q 412 240 400 225 q 435 271 424 256 l 435 588 l 356 617 l 356 646 q 395 685 375 665 q 435 726 415 706 l 432 807 q 380 823 406 815 q 328 840 354 831 q 290 856 308 847 q 253 872 272 864 l 253 232 z "},"":{"ha":694,"x_min":24,"x_max":844,"o":"m 658 997 q 732 965 696 982 q 804 933 768 947 q 824 927 814 931 q 844 921 833 924 q 814 888 829 904 q 783 856 799 872 q 763 833 772 844 q 743 810 753 821 q 738 803 742 808 q 726 797 733 797 q 721 799 724 797 q 705 805 713 801 q 690 811 697 808 q 672 818 681 814 q 656 826 664 822 q 619 842 636 833 q 582 861 601 851 l 582 244 q 583 193 582 219 q 603 153 583 167 q 612 147 606 150 q 628 144 618 144 q 643 149 635 144 q 667 174 651 154 q 697 214 683 193 q 724 250 710 235 l 751 232 l 578 -21 q 551 -1 564 -10 q 526 15 539 8 q 508 28 517 22 q 488 40 499 33 q 446 65 467 53 q 404 88 425 76 q 419 117 414 106 q 426 142 424 129 q 431 172 429 154 q 435 218 432 189 l 260 -21 q 238 -6 249 -14 q 215 8 226 1 q 188 25 201 17 q 164 40 175 33 q 122 65 144 53 q 79 89 100 78 q 92 113 86 103 q 101 135 97 124 q 106 163 104 147 q 110 201 108 178 l 110 582 l 24 619 l 24 649 l 108 697 l 107 800 q 136 826 122 814 q 164 850 150 838 q 197 876 179 863 q 229 903 214 890 q 283 950 257 926 q 336 997 308 974 q 378 978 356 990 q 421 960 401 967 q 470 940 438 951 q 532 921 503 928 q 548 917 540 918 q 563 914 556 915 l 658 997 m 256 215 q 265 169 257 183 q 287 149 272 158 q 313 140 301 140 q 342 157 328 140 q 381 204 357 174 q 409 240 396 222 q 436 275 422 257 l 436 582 q 402 599 417 592 q 353 619 388 607 l 353 650 l 438 697 l 438 794 q 396 808 417 801 q 353 824 375 815 q 256 864 300 844 l 256 215 z "},"":{"ha":724,"x_min":25,"x_max":838,"o":"m 575 699 l 742 699 l 688 582 l 576 582 l 576 281 q 578 217 576 246 q 582 176 579 188 q 593 158 583 174 q 622 143 603 143 q 649 157 636 143 q 679 194 661 171 q 699 222 689 208 q 718 250 708 236 l 746 232 l 575 -21 q 524 14 550 -3 q 471 47 499 31 q 433 68 451 58 q 397 89 415 78 q 406 106 403 99 q 413 120 410 113 q 417 138 415 128 q 422 164 419 149 l 247 -21 l 201 13 q 140 51 171 32 q 78 90 108 71 q 86 103 82 97 q 93 117 90 110 q 106 173 104 144 q 108 229 108 201 l 108 581 l 25 615 l 25 642 l 110 694 l 107 800 q 148 835 128 818 q 188 868 168 851 q 214 890 201 879 q 240 913 226 901 q 289 954 264 933 q 338 996 314 975 q 411 962 381 975 q 465 939 442 949 q 510 923 489 929 q 554 911 531 917 l 651 997 q 704 974 681 985 q 751 953 728 963 q 794 937 772 944 q 838 921 815 929 q 788 866 814 893 q 739 811 763 839 q 731 801 735 807 q 719 796 726 796 q 702 802 714 796 q 676 815 690 808 q 626 838 651 826 q 575 861 601 849 l 575 699 m 254 699 l 431 699 l 431 794 q 394 808 415 800 q 356 822 372 815 q 254 867 308 840 l 254 699 m 254 582 l 254 249 q 256 208 256 224 q 260 181 256 192 q 283 147 265 167 q 319 128 301 128 q 340 134 329 128 q 360 150 350 140 q 379 169 371 160 q 393 186 388 179 q 412 206 403 196 q 431 226 421 215 l 431 582 l 254 582 z "},"":{"ha":983,"x_min":36,"x_max":1013,"o":"m 768 1003 l 788 994 l 783 882 l 783 324 q 785 274 783 299 q 789 226 786 250 q 821 174 797 186 q 829 171 824 172 q 838 169 835 169 q 850 172 842 169 l 850 1004 l 889 1004 l 889 193 l 983 299 l 1013 275 l 767 -18 q 711 9 731 -6 q 679 39 692 24 q 664 59 672 47 q 647 89 656 71 q 624 166 628 131 q 619 214 621 201 q 553 131 583 172 q 528 99 540 115 q 504 68 515 83 q 475 26 489 47 q 447 -17 461 4 q 406 15 425 0 q 365 44 388 29 q 342 59 354 51 q 318 74 331 67 q 244 113 282 94 q 171 131 206 131 q 126 118 147 131 q 61 68 106 106 l 36 99 q 60 122 47 110 q 86 144 74 133 q 108 165 97 156 q 129 183 118 174 q 160 211 144 197 q 190 240 175 225 q 215 263 203 251 q 239 286 226 275 q 295 343 268 314 q 351 403 322 372 q 321 406 342 404 q 274 416 300 408 q 219 439 249 424 q 163 482 190 454 q 135 513 144 500 q 121 532 125 526 q 92 596 106 556 q 78 693 78 636 q 88 780 78 746 q 111 838 99 814 q 125 863 118 850 q 142 886 132 875 q 170 920 154 904 q 201 949 186 936 q 228 969 217 961 q 243 981 240 978 q 258 990 247 983 q 285 1004 269 997 q 317 1017 300 1011 q 351 1022 335 1022 q 401 1015 371 1022 q 450 1001 432 1008 q 524 957 492 985 q 579 897 557 929 q 598 867 589 883 q 618 818 607 850 l 768 1003 m 321 697 q 344 690 328 694 q 382 686 361 686 q 410 690 394 686 q 438 700 425 693 q 461 719 451 707 q 471 750 471 732 q 460 790 471 767 q 432 833 450 813 q 413 852 422 844 q 401 863 404 860 q 387 874 399 865 q 363 889 375 882 q 308 905 335 903 q 278 907 282 907 q 265 906 274 907 q 244 903 256 906 q 198 874 224 896 q 157 828 172 853 q 133 774 144 808 q 121 692 121 739 q 133 608 121 647 q 175 529 144 569 q 196 507 182 521 q 229 480 210 493 q 272 458 249 467 q 319 449 294 449 q 348 452 335 449 q 375 467 361 456 q 405 507 401 486 q 408 535 408 528 q 392 599 408 572 q 360 638 375 625 q 335 657 349 649 q 308 674 322 665 l 321 697 m 625 732 q 609 693 617 710 q 594 661 601 676 q 576 629 586 646 q 551 590 565 613 q 516 538 533 563 q 480 490 499 514 q 440 442 461 467 q 393 390 418 418 q 340 333 367 361 q 286 276 314 306 q 313 269 300 274 q 338 261 325 265 q 405 231 372 249 q 447 207 438 214 q 485 183 467 196 q 522 158 503 171 q 569 216 546 186 q 618 278 593 246 q 619 440 619 367 q 622 571 619 513 q 624 620 622 594 q 625 672 625 646 q 626 702 626 688 q 625 732 625 717 m 397 1263 l 556 1263 l 617 1010 l 579 1010 l 397 1263 z "},"":{"ha":983,"x_min":36,"x_max":1013,"o":"m 618 818 q 598 867 607 850 q 579 897 589 883 q 524 957 557 929 q 450 1001 492 985 q 401 1015 432 1008 q 351 1022 371 1022 q 317 1017 335 1022 q 285 1004 300 1011 q 258 990 269 997 q 243 981 247 983 q 228 969 240 978 q 201 949 217 961 q 170 920 186 936 q 142 886 154 904 q 125 863 132 875 q 111 838 118 850 q 88 780 99 814 q 78 693 78 746 q 92 596 78 636 q 121 532 106 556 q 135 513 125 526 q 163 482 144 500 q 219 439 190 454 q 274 416 249 424 q 321 406 300 408 q 351 403 342 404 q 295 343 322 372 q 239 286 268 314 q 215 263 226 275 q 190 240 203 251 q 160 211 175 225 q 129 183 144 197 q 108 165 118 174 q 86 144 97 156 q 60 122 74 133 q 36 99 47 110 l 61 68 q 126 118 106 106 q 171 131 147 131 q 244 113 206 131 q 318 74 282 94 q 342 59 331 67 q 365 44 354 51 q 406 15 388 29 q 447 -17 425 0 q 475 26 461 4 q 504 68 489 47 q 528 99 515 83 q 553 131 540 115 q 619 214 583 172 q 624 166 621 201 q 647 89 628 131 q 664 59 656 71 q 679 39 672 47 q 711 9 692 24 q 767 -18 731 -6 l 1013 275 l 983 299 l 889 193 l 889 1004 l 850 1004 l 850 172 q 838 169 842 169 q 829 171 835 169 q 821 174 824 172 q 789 226 797 186 q 785 274 786 250 q 783 324 783 299 l 783 882 l 788 994 l 768 1003 l 618 818 m 308 674 q 335 657 322 665 q 360 638 349 649 q 392 599 375 625 q 408 535 408 572 q 405 507 408 528 q 375 467 401 486 q 348 452 361 456 q 319 449 335 449 q 272 458 294 449 q 229 480 249 467 q 196 507 210 493 q 175 529 182 521 q 133 608 144 569 q 121 692 121 647 q 133 774 121 739 q 157 828 144 808 q 198 874 172 853 q 244 903 224 896 q 265 906 256 906 q 278 907 274 907 q 308 905 282 907 q 363 889 335 903 q 387 874 375 882 q 401 863 399 865 q 413 852 404 860 q 432 833 422 844 q 460 790 450 813 q 471 750 471 767 q 461 719 471 732 q 438 700 451 707 q 410 690 425 693 q 382 686 394 686 q 344 690 361 686 q 321 697 328 694 l 308 674 m 625 732 q 626 702 625 717 q 625 672 626 688 q 624 620 625 646 q 622 571 622 594 q 619 440 619 513 q 618 278 619 367 q 569 216 593 246 q 522 158 546 186 q 485 183 503 171 q 447 207 467 196 q 405 231 438 214 q 338 261 372 249 q 313 269 325 265 q 286 276 300 274 q 340 333 314 306 q 393 390 367 361 q 440 442 418 418 q 480 490 461 467 q 516 538 499 514 q 551 590 533 563 q 576 629 565 613 q 594 661 586 646 q 609 693 601 676 q 625 732 617 710 m 622 1011 l 585 1011 l 646 1264 l 804 1264 l 622 1011 z "},"":{"ha":983,"x_min":36,"x_max":1013,"o":"m 768 1003 l 788 994 l 783 882 l 783 324 q 785 274 783 299 q 789 226 786 250 q 821 174 797 186 q 829 171 824 172 q 838 169 835 169 q 850 172 842 169 l 850 1004 l 889 1004 l 889 193 l 983 299 l 1013 275 l 767 -18 q 711 9 731 -6 q 679 39 692 24 q 664 59 672 47 q 647 89 656 71 q 624 166 628 131 q 619 214 621 201 q 553 131 583 172 q 528 99 540 115 q 504 68 515 83 q 475 26 489 47 q 447 -17 461 4 q 406 15 425 0 q 365 44 388 29 q 342 59 354 51 q 318 74 331 67 q 244 113 282 94 q 171 131 206 131 q 126 118 147 131 q 61 68 106 106 l 36 99 q 60 122 47 110 q 86 144 74 133 q 108 165 97 156 q 129 183 118 174 q 160 211 144 197 q 190 240 175 225 q 215 263 203 251 q 239 286 226 275 q 295 343 268 314 q 351 403 322 372 q 321 406 342 404 q 274 416 300 408 q 219 439 249 424 q 163 482 190 454 q 135 513 144 500 q 121 532 125 526 q 92 596 106 556 q 78 693 78 636 q 88 780 78 746 q 111 838 99 814 q 125 863 118 850 q 142 886 132 875 q 170 920 154 904 q 201 949 186 936 q 228 969 217 961 q 243 981 240 978 q 258 990 247 983 q 285 1004 269 997 q 317 1017 300 1011 q 351 1022 335 1022 q 401 1015 371 1022 q 450 1001 432 1008 q 524 957 492 985 q 579 897 557 929 q 598 867 589 883 q 618 818 607 850 l 768 1003 m 321 697 q 344 690 328 694 q 382 686 361 686 q 410 690 394 686 q 438 700 425 693 q 461 719 451 707 q 471 750 471 732 q 460 790 471 767 q 432 833 450 813 q 413 852 422 844 q 401 863 404 860 q 387 874 399 865 q 363 889 375 882 q 308 905 335 903 q 278 907 282 907 q 265 906 274 907 q 244 903 256 906 q 198 874 224 896 q 157 828 172 853 q 133 774 144 808 q 121 692 121 739 q 133 608 121 647 q 175 529 144 569 q 196 507 182 521 q 229 480 210 493 q 272 458 249 467 q 319 449 294 449 q 348 452 335 449 q 375 467 361 456 q 405 507 401 486 q 408 535 408 528 q 392 599 408 572 q 360 638 375 625 q 335 657 349 649 q 308 674 322 665 l 321 697 m 625 732 q 609 693 617 710 q 594 661 601 676 q 576 629 586 646 q 551 590 565 613 q 516 538 533 563 q 480 490 499 514 q 440 442 461 467 q 393 390 418 418 q 340 333 367 361 q 286 276 314 306 q 313 269 300 274 q 338 261 325 265 q 405 231 372 249 q 447 207 438 214 q 485 183 467 196 q 522 158 503 171 q 569 216 546 186 q 618 278 593 246 q 619 440 619 367 q 622 571 619 513 q 624 620 622 594 q 625 672 625 646 q 626 702 626 688 q 625 732 625 717 m 397 1053 l 525 1307 l 671 1307 l 796 1053 l 756 1053 l 597 1199 l 438 1053 l 397 1053 z "},"":{"ha":983,"x_min":36,"x_max":1013,"o":"m 768 1003 l 788 994 l 783 882 l 783 324 q 785 274 783 299 q 789 226 786 250 q 821 174 797 186 q 829 171 824 172 q 838 169 835 169 q 850 172 842 169 l 850 1004 l 889 1004 l 889 193 l 983 299 l 1013 275 l 767 -18 q 711 9 731 -6 q 679 39 692 24 q 664 59 672 47 q 647 89 656 71 q 624 166 628 131 q 619 214 621 201 q 553 131 583 172 q 528 99 540 115 q 504 68 515 83 q 475 26 489 47 q 447 -17 461 4 q 406 15 425 0 q 365 44 388 29 q 342 59 354 51 q 318 74 331 67 q 244 113 282 94 q 171 131 206 131 q 126 118 147 131 q 61 68 106 106 l 36 99 q 60 122 47 110 q 86 144 74 133 q 108 165 97 156 q 129 183 118 174 q 160 211 144 197 q 190 240 175 225 q 215 263 203 251 q 239 286 226 275 q 295 343 268 314 q 351 403 322 372 q 321 406 342 404 q 274 416 300 408 q 219 439 249 424 q 163 482 190 454 q 135 513 144 500 q 121 532 125 526 q 92 596 106 556 q 78 693 78 636 q 88 780 78 746 q 111 838 99 814 q 125 863 118 850 q 142 886 132 875 q 170 920 154 904 q 201 949 186 936 q 228 969 217 961 q 243 981 240 978 q 258 990 247 983 q 285 1004 269 997 q 317 1017 300 1011 q 351 1022 335 1022 q 401 1015 371 1022 q 450 1001 432 1008 q 524 957 492 985 q 579 897 557 929 q 598 867 589 883 q 618 818 607 850 l 768 1003 m 321 697 q 344 690 328 694 q 382 686 361 686 q 410 690 394 686 q 438 700 425 693 q 461 719 451 707 q 471 750 471 732 q 460 790 471 767 q 432 833 450 813 q 413 852 422 844 q 401 863 404 860 q 387 874 399 865 q 363 889 375 882 q 308 905 335 903 q 278 907 282 907 q 265 906 274 907 q 244 903 256 906 q 198 874 224 896 q 157 828 172 853 q 133 774 144 808 q 121 692 121 739 q 133 608 121 647 q 175 529 144 569 q 196 507 182 521 q 229 480 210 493 q 272 458 249 467 q 319 449 294 449 q 348 452 335 449 q 375 467 361 456 q 405 507 401 486 q 408 535 408 528 q 392 599 408 572 q 360 638 375 625 q 335 657 349 649 q 308 674 322 665 l 321 697 m 625 732 q 609 693 617 710 q 594 661 601 676 q 576 629 586 646 q 551 590 565 613 q 516 538 533 563 q 480 490 499 514 q 440 442 461 467 q 393 390 418 418 q 340 333 367 361 q 286 276 314 306 q 313 269 300 274 q 338 261 325 265 q 405 231 372 249 q 447 207 438 214 q 485 183 467 196 q 522 158 503 171 q 569 216 546 186 q 618 278 593 246 q 619 440 619 367 q 622 571 619 513 q 624 620 622 594 q 625 672 625 646 q 626 702 626 688 q 625 732 625 717 m 381 1071 q 388 1110 382 1083 q 408 1166 393 1138 q 448 1215 422 1194 q 517 1236 474 1236 q 540 1234 529 1236 q 565 1227 551 1232 q 599 1214 579 1222 q 649 1192 618 1206 q 680 1181 656 1189 q 724 1174 704 1174 q 753 1181 742 1174 q 773 1197 765 1188 q 785 1217 781 1207 q 793 1236 790 1228 l 818 1236 q 777 1119 811 1167 q 675 1071 743 1071 q 638 1076 663 1071 q 569 1101 614 1081 q 519 1123 542 1114 q 474 1132 496 1132 q 446 1125 457 1132 q 427 1108 435 1118 q 415 1088 419 1099 q 408 1071 411 1078 l 381 1071 z "},"":{"ha":983,"x_min":36,"x_max":1013,"o":"m 456 1246 q 489 1210 471 1228 q 525 1178 507 1193 q 502 1156 514 1167 q 479 1133 490 1144 q 452 1104 464 1118 q 425 1074 440 1090 q 409 1089 414 1082 q 399 1101 404 1096 q 385 1115 392 1108 q 372 1129 379 1122 q 362 1140 367 1135 q 351 1149 357 1144 q 335 1163 343 1156 q 321 1176 328 1169 l 422 1283 l 456 1246 m 692 1281 q 703 1267 699 1274 q 715 1253 708 1260 q 729 1238 722 1246 q 743 1224 736 1231 q 755 1211 750 1217 q 765 1200 760 1206 q 777 1189 771 1196 q 790 1176 783 1182 q 759 1147 775 1161 q 728 1115 743 1132 q 708 1094 717 1104 q 690 1074 700 1085 q 670 1097 679 1086 q 650 1118 661 1107 q 624 1143 639 1129 q 586 1176 608 1157 q 608 1197 597 1188 q 631 1218 619 1207 q 651 1238 640 1228 q 669 1257 661 1247 q 680 1268 675 1263 q 692 1281 685 1274 m 768 1003 l 788 994 l 783 882 l 783 324 q 785 274 783 299 q 789 226 786 250 q 821 174 797 186 q 829 171 824 172 q 838 169 835 169 q 850 172 842 169 l 850 1004 l 889 1004 l 889 193 l 983 299 l 1013 275 l 767 -18 q 711 9 731 -6 q 679 39 692 24 q 664 59 672 47 q 647 89 656 71 q 624 166 628 131 q 619 214 621 201 q 553 131 583 172 q 528 99 540 115 q 504 68 515 83 q 475 26 489 47 q 447 -17 461 4 q 406 15 425 0 q 365 44 388 29 q 342 59 354 51 q 318 74 331 67 q 244 113 282 94 q 171 131 206 131 q 126 118 147 131 q 61 68 106 106 l 36 99 q 60 122 47 110 q 86 144 74 133 q 108 165 97 156 q 129 183 118 174 q 160 211 144 197 q 190 240 175 225 q 215 263 203 251 q 239 286 226 275 q 295 343 268 314 q 351 403 322 372 q 321 406 342 404 q 274 416 300 408 q 219 439 249 424 q 163 482 190 454 q 135 513 144 500 q 121 532 125 526 q 92 596 106 556 q 78 693 78 636 q 88 780 78 746 q 111 838 99 814 q 125 863 118 850 q 142 886 132 875 q 170 920 154 904 q 201 949 186 936 q 228 969 217 961 q 243 981 240 978 q 258 990 247 983 q 285 1004 269 997 q 317 1017 300 1011 q 351 1022 335 1022 q 401 1015 371 1022 q 450 1001 432 1008 q 524 957 492 985 q 579 897 557 929 q 598 867 589 883 q 618 818 607 850 l 768 1003 m 321 697 q 344 690 328 694 q 382 686 361 686 q 410 690 394 686 q 438 700 425 693 q 461 719 451 707 q 471 750 471 732 q 460 790 471 767 q 432 833 450 813 q 413 852 422 844 q 401 863 404 860 q 387 874 399 865 q 363 889 375 882 q 308 905 335 903 q 278 907 282 907 q 265 906 274 907 q 244 903 256 906 q 198 874 224 896 q 157 828 172 853 q 133 774 144 808 q 121 692 121 739 q 133 608 121 647 q 175 529 144 569 q 196 507 182 521 q 229 480 210 493 q 272 458 249 467 q 319 449 294 449 q 348 452 335 449 q 375 467 361 456 q 405 507 401 486 q 408 535 408 528 q 392 599 408 572 q 360 638 375 625 q 335 657 349 649 q 308 674 322 665 l 321 697 m 625 732 q 609 693 617 710 q 594 661 601 676 q 576 629 586 646 q 551 590 565 613 q 516 538 533 563 q 480 490 499 514 q 440 442 461 467 q 393 390 418 418 q 340 333 367 361 q 286 276 314 306 q 313 269 300 274 q 338 261 325 265 q 405 231 372 249 q 447 207 438 214 q 485 183 467 196 q 522 158 503 171 q 569 216 546 186 q 618 278 593 246 q 619 448 619 372 q 622 586 619 524 q 624 628 624 607 q 625 671 625 649 q 626 701 626 686 q 625 732 625 717 z "},"":{"ha":983,"x_min":36,"x_max":1013,"o":"m 768 1003 l 788 994 l 783 882 l 783 324 q 785 274 783 299 q 789 226 786 250 q 821 174 797 186 q 829 171 824 172 q 838 169 835 169 q 850 172 842 169 l 850 1004 l 889 1004 l 889 193 l 983 299 l 1013 275 l 767 -18 q 711 9 731 -6 q 679 39 692 24 q 664 59 672 47 q 647 89 656 71 q 624 166 628 131 q 619 214 621 201 q 553 131 583 172 q 528 99 540 115 q 504 68 515 83 q 475 26 489 47 q 447 -17 461 4 q 406 15 425 0 q 365 44 388 29 q 342 59 354 51 q 318 74 331 67 q 244 113 282 94 q 171 131 206 131 q 126 118 147 131 q 61 68 106 106 l 36 99 q 60 122 47 110 q 86 144 74 133 q 108 165 97 156 q 129 183 118 174 q 160 211 144 197 q 190 240 175 225 q 215 263 203 251 q 239 286 226 275 q 295 343 268 314 q 351 403 322 372 q 321 406 342 404 q 274 416 300 408 q 219 439 249 424 q 163 482 190 454 q 135 513 144 500 q 121 532 125 526 q 92 596 106 556 q 78 693 78 636 q 88 780 78 746 q 111 838 99 814 q 125 863 118 850 q 142 886 132 875 q 170 920 154 904 q 201 949 186 936 q 228 969 217 961 q 243 981 240 978 q 258 990 247 983 q 285 1004 269 997 q 317 1017 300 1011 q 351 1022 335 1022 q 401 1015 371 1022 q 450 1001 432 1008 q 524 957 492 985 q 579 897 557 929 q 598 867 589 883 q 618 818 607 850 l 768 1003 m 321 697 q 344 690 328 694 q 382 686 361 686 q 410 690 394 686 q 438 700 425 693 q 461 719 451 707 q 471 750 471 732 q 460 790 471 767 q 432 833 450 813 q 413 852 422 844 q 401 863 404 860 q 387 874 399 865 q 363 889 375 882 q 308 905 335 903 q 278 907 282 907 q 265 906 274 907 q 244 903 256 906 q 198 874 224 896 q 157 828 172 853 q 133 774 144 808 q 121 692 121 739 q 133 608 121 647 q 175 529 144 569 q 196 507 182 521 q 229 480 210 493 q 272 458 249 467 q 319 449 294 449 q 348 452 335 449 q 375 467 361 456 q 405 507 401 486 q 408 535 408 528 q 392 599 408 572 q 360 638 375 625 q 335 657 349 649 q 308 674 322 665 l 321 697 m 625 732 q 609 693 617 710 q 594 661 601 676 q 576 629 586 646 q 551 590 565 613 q 516 538 533 563 q 480 490 499 514 q 440 442 461 467 q 393 390 418 418 q 340 333 367 361 q 286 276 314 306 q 313 269 300 274 q 338 261 325 265 q 405 231 372 249 q 447 207 438 214 q 485 183 467 196 q 522 158 503 171 q 569 216 546 186 q 618 278 593 246 q 619 440 619 367 q 622 571 619 513 q 624 620 622 594 q 625 672 625 646 q 626 702 626 688 q 625 732 625 717 m 621 1193 q 701 1161 667 1193 q 735 1081 735 1129 q 702 1000 735 1033 q 621 967 669 967 q 541 1000 574 967 q 508 1081 508 1033 q 517 1125 508 1104 q 542 1161 526 1146 q 578 1185 558 1176 q 621 1193 599 1193 m 622 1154 q 569 1133 592 1154 q 547 1079 547 1111 q 569 1027 547 1049 q 622 1006 590 1006 q 674 1027 653 1006 q 696 1079 696 1049 q 674 1133 696 1111 q 622 1154 653 1154 z "},"":{"ha":1685,"x_min":36,"x_max":1733,"o":"m 308 674 l 321 697 q 344 690 328 694 q 382 686 361 686 q 410 690 394 686 q 438 700 425 693 q 461 719 451 707 q 471 750 471 732 q 460 790 471 767 q 432 833 450 813 q 413 852 422 844 q 401 863 404 860 q 387 874 399 865 q 363 889 375 882 q 308 905 335 903 q 278 907 282 907 q 265 907 274 907 q 244 903 256 907 q 198 874 224 896 q 157 828 172 853 q 133 774 144 808 q 121 692 121 739 q 133 608 121 647 q 175 529 144 569 q 196 507 182 521 q 229 480 210 493 q 272 458 249 467 q 319 449 294 449 q 348 452 335 449 q 375 467 361 456 q 405 507 401 486 q 408 535 408 528 q 392 599 408 572 q 360 638 375 625 q 335 657 349 649 q 308 674 322 665 m 625 732 q 609 693 617 710 q 594 661 601 676 q 576 629 586 646 q 551 590 565 613 q 516 538 533 563 q 480 490 499 514 q 440 442 461 467 q 393 390 418 418 q 340 333 367 361 q 286 276 314 306 q 313 269 300 274 q 338 261 325 265 q 405 231 372 249 q 447 207 438 214 q 485 183 467 196 q 522 158 503 171 q 569 216 546 186 q 618 278 593 246 q 622 571 621 458 q 624 620 624 594 q 625 672 624 646 l 625 732 m 783 508 l 783 324 q 784 274 783 299 q 789 226 785 250 q 821 174 794 186 q 829 171 824 172 q 838 169 835 169 l 850 203 l 850 425 q 836 461 846 440 q 815 493 826 482 q 799 504 807 501 q 783 508 792 507 m 1707 938 l 1733 913 q 1697 871 1715 892 q 1658 831 1678 850 q 1632 800 1644 817 q 1604 772 1618 786 q 1578 744 1590 758 q 1562 728 1569 736 q 1547 713 1554 719 q 1526 691 1536 701 q 1506 671 1515 681 q 1469 633 1488 651 q 1432 594 1451 614 q 1474 576 1453 586 q 1515 553 1494 567 q 1549 532 1531 543 q 1583 521 1568 521 q 1618 533 1601 521 q 1667 574 1635 546 l 1693 547 q 1647 503 1669 525 q 1601 461 1625 482 q 1563 428 1582 444 q 1525 396 1544 411 q 1501 376 1514 385 q 1478 368 1489 368 q 1447 378 1463 368 q 1404 406 1432 389 q 1375 423 1390 414 q 1344 440 1360 432 q 1325 450 1342 442 q 1293 458 1308 458 q 1267 447 1276 457 q 1254 431 1257 438 q 1252 423 1253 426 q 1250 415 1251 419 q 1245 404 1247 410 q 1240 393 1243 399 q 1224 363 1233 379 q 1188 322 1214 347 q 1113 259 1149 283 q 1039 211 1078 235 q 1083 209 1061 210 q 1126 206 1104 208 q 1194 193 1158 201 q 1243 181 1218 188 q 1292 168 1268 175 q 1344 151 1315 161 q 1405 133 1374 142 q 1466 119 1436 125 q 1519 113 1496 113 q 1586 122 1556 113 q 1628 138 1617 131 q 1651 158 1636 143 q 1638 176 1644 168 q 1632 194 1632 183 q 1649 232 1632 215 q 1688 249 1665 249 q 1712 237 1701 249 q 1722 210 1722 225 q 1700 154 1722 188 q 1624 78 1678 121 q 1583 49 1610 67 q 1522 14 1557 31 q 1444 -15 1486 -3 q 1360 -26 1403 -26 q 1322 -24 1340 -26 q 1281 -17 1303 -22 q 1230 -3 1258 -11 q 1164 18 1201 6 l 1068 51 q 985 76 1014 69 q 928 82 956 82 q 857 68 886 82 q 797 18 828 54 l 767 -17 q 711 10 731 -4 q 679 39 692 24 q 664 59 672 47 q 647 89 656 71 q 624 166 628 131 q 619 214 621 201 q 553 131 583 172 q 528 99 540 115 q 504 68 515 83 q 475 26 489 47 q 447 -15 461 4 q 406 15 425 0 q 365 44 388 29 q 342 59 354 51 q 318 74 331 67 q 244 113 282 94 q 171 131 206 131 q 126 118 147 131 q 61 68 106 106 l 36 99 q 60 122 47 110 q 86 144 74 133 q 108 165 97 156 q 129 183 118 174 q 160 211 144 197 q 190 240 175 225 q 215 263 203 251 q 239 286 226 275 q 295 343 268 314 q 351 403 322 372 q 321 406 342 404 q 274 416 300 408 q 219 439 249 424 q 163 482 190 454 q 135 513 144 500 q 121 532 125 526 q 92 596 106 556 q 78 693 78 636 q 88 780 78 746 q 111 838 99 814 q 126 863 118 850 q 142 886 133 875 q 171 920 154 904 q 202 949 188 936 q 228 969 217 961 q 243 981 240 978 q 258 990 247 983 q 285 1004 269 997 q 317 1017 300 1011 q 351 1022 335 1022 q 401 1015 371 1022 q 450 1001 432 1008 q 524 957 492 985 q 579 897 557 929 q 598 867 589 883 q 618 818 607 850 l 768 1003 l 788 994 l 783 882 l 783 551 l 850 594 l 850 1004 l 889 1004 l 889 621 l 965 671 q 966 631 965 649 q 969 595 967 613 q 975 560 971 578 q 986 519 979 542 q 1013 441 997 483 q 1029 363 1029 399 q 1022 320 1029 339 q 1004 282 1015 301 l 1013 275 l 944 194 q 976 213 960 203 q 1008 235 992 224 q 1032 253 1015 240 q 1065 284 1049 265 q 1094 326 1082 303 q 1106 376 1106 349 q 1103 403 1106 390 q 1097 430 1101 415 q 1085 463 1092 444 q 1071 508 1079 482 q 1053 568 1064 526 q 1042 660 1042 610 q 1042 689 1042 671 q 1047 718 1043 707 q 1058 736 1051 728 q 1072 751 1065 744 q 1085 763 1079 758 q 1092 767 1092 767 q 1106 779 1099 774 q 1119 790 1113 785 q 1138 805 1129 797 q 1154 819 1146 813 q 1269 910 1213 865 q 1382 996 1326 956 q 1408 975 1396 985 q 1435 956 1421 965 q 1475 930 1451 943 q 1524 905 1499 917 q 1572 885 1549 893 q 1614 878 1596 878 q 1643 885 1633 878 q 1679 908 1667 894 q 1707 938 1692 921 m 1258 847 q 1215 785 1231 813 q 1199 721 1199 757 q 1202 688 1199 708 q 1210 645 1206 668 q 1220 602 1215 622 q 1229 569 1225 582 q 1237 544 1232 557 q 1246 517 1242 531 q 1251 497 1249 507 q 1256 478 1253 488 q 1294 513 1276 497 q 1332 547 1313 529 q 1363 578 1349 564 q 1397 611 1378 592 q 1431 646 1417 631 q 1460 679 1444 661 q 1485 722 1485 710 q 1482 732 1485 725 q 1472 746 1479 739 q 1440 770 1467 751 q 1381 804 1413 789 q 1340 823 1357 815 q 1310 835 1324 831 q 1284 843 1296 840 q 1258 847 1272 846 z "},"":{"ha":897,"x_min":89,"x_max":985,"o":"m 399 793 q 354 762 369 774 q 325 735 339 750 q 268 649 293 703 q 243 517 243 596 q 245 467 243 489 q 253 426 247 446 q 266 384 258 406 q 285 336 274 363 q 345 381 325 364 q 378 418 365 399 q 395 460 390 438 q 400 524 400 483 q 394 613 400 568 q 388 704 388 658 q 391 749 388 726 q 399 793 394 771 m 422 -68 l 471 -15 q 481 -11 476 -12 q 413 3 450 -6 q 338 32 376 13 q 297 55 317 43 q 260 79 278 67 q 200 133 231 101 q 144 208 169 165 q 104 306 119 251 q 89 428 89 361 q 92 478 89 442 q 110 562 94 514 q 160 663 125 610 q 257 764 194 715 q 325 808 285 785 q 428 858 365 831 q 463 909 447 888 q 494 947 479 931 q 521 975 508 963 q 547 1001 533 988 l 575 983 q 561 949 567 964 q 549 899 556 933 l 790 1021 q 819 960 804 988 q 831 944 822 956 q 851 922 839 933 q 878 901 863 910 q 914 893 894 893 q 935 896 924 893 q 965 906 946 899 l 985 874 l 793 747 q 755 781 774 763 q 715 818 736 799 q 670 860 685 847 q 635 872 656 872 q 601 866 622 872 q 549 851 579 860 q 550 815 549 833 q 553 779 551 797 q 556 742 556 760 q 560 704 557 724 q 567 641 564 672 q 571 578 571 610 q 570 553 571 572 q 558 514 569 533 q 467 418 535 471 q 306 301 399 365 q 315 287 310 293 q 331 267 319 281 q 376 219 351 239 q 423 185 400 199 q 463 163 446 171 q 488 153 481 156 q 504 145 497 149 q 518 139 511 142 q 569 125 533 133 q 646 117 604 117 q 724 125 683 117 q 835 169 788 139 q 908 217 883 199 l 938 183 q 908 158 926 174 q 865 122 889 142 q 813 81 842 103 q 754 40 785 60 q 692 8 729 25 q 601 -15 654 -8 q 638 -52 625 -29 q 651 -101 651 -75 q 648 -130 651 -110 q 626 -172 644 -150 q 572 -209 608 -193 q 472 -225 536 -225 q 438 -224 467 -225 q 374 -215 410 -222 l 385 -193 q 424 -197 411 -196 q 443 -197 436 -197 q 471 -194 454 -197 q 503 -182 488 -190 q 531 -160 519 -174 q 542 -128 542 -147 q 533 -99 542 -111 q 512 -80 525 -87 q 483 -69 499 -72 q 454 -65 468 -65 q 439 -66 446 -65 q 422 -68 432 -67 z "},"":{"ha":983,"x_min":25,"x_max":1021,"o":"m 1021 921 q 984 879 1003 900 q 946 839 965 858 q 919 808 932 825 q 892 781 906 794 q 865 753 878 767 q 849 736 857 744 q 835 721 842 728 q 813 699 824 710 q 793 679 803 689 q 757 641 775 660 q 719 603 739 622 q 761 585 740 594 q 803 561 782 575 q 837 540 818 551 q 871 529 856 529 q 906 542 889 529 q 954 582 922 554 l 981 556 q 935 512 957 533 q 889 469 913 490 q 851 436 869 453 q 813 404 832 419 q 789 385 801 393 q 765 376 776 376 q 735 387 750 376 q 692 414 719 397 q 663 431 678 422 q 632 449 647 440 q 613 458 629 450 q 581 467 596 467 q 554 456 564 465 q 542 439 544 446 q 540 431 540 435 q 538 424 539 428 q 533 413 535 418 q 528 401 531 407 q 511 372 521 388 q 475 331 501 356 q 401 267 436 292 q 326 219 365 243 q 370 217 349 218 q 414 214 392 217 q 482 201 446 210 q 531 190 506 196 q 579 176 556 185 q 632 160 603 169 q 692 142 661 150 q 753 127 724 133 q 807 121 783 121 q 874 130 843 121 q 915 146 904 139 q 939 167 924 151 q 926 184 932 176 q 919 203 919 192 q 936 240 919 224 q 975 257 953 257 q 999 245 989 257 q 1010 218 1010 233 q 988 163 1010 196 q 911 86 965 129 q 871 57 897 75 q 809 22 844 39 q 732 -7 774 6 q 647 -19 690 -19 q 609 -17 628 -19 q 568 -9 590 -14 q 517 5 546 -4 q 451 26 489 14 q 403 44 428 35 q 356 60 379 53 q 272 85 301 79 q 215 90 243 90 q 170 85 190 90 q 131 67 150 79 q 94 37 113 56 q 54 -10 76 18 l 25 13 q 89 110 58 60 q 131 194 108 143 q 154 321 154 246 q 148 388 154 357 q 139 428 142 418 q 126 466 136 442 q 103 501 115 490 q 80 515 92 514 q 54 519 68 517 l 46 543 l 253 679 q 253 639 253 657 q 256 603 254 621 q 263 568 258 586 q 274 528 267 550 q 301 449 285 492 q 317 371 317 407 q 309 326 317 347 q 289 285 301 306 q 260 243 276 264 q 225 199 243 222 q 259 219 242 208 q 296 243 276 231 q 319 261 303 249 q 353 292 336 274 q 381 334 369 311 q 393 385 393 357 q 391 411 393 399 q 384 438 389 424 q 373 472 379 453 q 358 517 367 490 q 340 576 351 535 q 329 668 329 618 q 330 697 329 679 q 335 726 331 715 q 346 744 339 736 q 360 760 353 753 q 373 771 367 767 q 379 775 379 775 q 393 788 386 782 q 407 799 400 793 q 425 813 417 806 q 442 828 433 821 q 557 919 500 874 q 669 1004 614 964 q 696 983 683 993 q 722 964 708 974 q 763 938 739 951 q 811 913 786 925 q 860 894 836 901 q 901 886 883 886 q 931 893 921 886 q 967 916 954 903 q 994 946 979 929 l 1021 921 m 546 856 q 502 793 518 821 q 486 729 486 765 q 490 697 486 717 q 498 653 493 676 q 508 610 503 631 q 517 578 514 590 q 526 552 521 565 q 533 525 531 539 q 538 506 536 515 q 543 486 540 496 q 582 522 564 506 q 619 556 600 538 q 651 586 636 572 q 685 619 665 600 q 718 654 704 639 q 747 688 732 669 q 772 731 772 718 q 769 740 772 733 q 760 754 767 747 q 727 778 754 760 q 668 813 700 797 q 628 833 644 825 q 597 844 611 840 q 572 851 583 849 q 546 856 560 854 m 397 1263 l 556 1263 l 617 1010 l 579 1010 l 397 1263 z "},"":{"ha":983,"x_min":25,"x_max":1021,"o":"m 994 946 q 967 916 979 929 q 931 893 954 903 q 901 886 921 886 q 860 894 883 886 q 811 913 836 901 q 763 938 786 925 q 722 964 739 951 q 696 983 708 974 q 669 1004 683 993 q 557 919 614 964 q 442 828 500 874 q 425 813 433 821 q 407 799 417 806 q 393 788 400 793 q 379 775 386 782 q 373 771 379 775 q 360 760 367 767 q 346 744 353 753 q 335 726 339 736 q 330 697 331 715 q 329 668 329 679 q 340 576 329 618 q 358 517 351 535 q 373 472 367 490 q 384 438 379 453 q 391 411 389 424 q 393 385 393 399 q 381 334 393 357 q 353 292 369 311 q 319 261 336 274 q 296 243 303 249 q 259 219 276 231 q 225 199 242 208 q 260 243 243 222 q 289 285 276 264 q 309 326 301 306 q 317 371 317 347 q 301 449 317 407 q 274 528 285 492 q 263 568 267 550 q 256 603 258 586 q 253 639 254 621 q 253 679 253 657 l 46 543 l 54 519 q 80 515 68 517 q 103 501 92 514 q 126 466 115 490 q 139 428 136 442 q 148 388 142 418 q 154 321 154 357 q 131 194 154 246 q 89 110 108 143 q 25 13 58 60 l 54 -10 q 94 37 76 18 q 131 67 113 56 q 170 85 150 79 q 215 90 190 90 q 272 85 243 90 q 356 60 301 79 q 403 44 379 53 q 451 26 428 35 q 517 5 489 14 q 568 -9 546 -4 q 609 -17 590 -14 q 647 -19 628 -19 q 732 -7 690 -19 q 809 22 774 6 q 871 57 844 39 q 911 86 897 75 q 988 163 965 129 q 1010 218 1010 196 q 999 245 1010 233 q 975 257 989 257 q 936 240 953 257 q 919 203 919 224 q 926 184 919 192 q 939 167 932 176 q 915 146 924 151 q 874 130 904 139 q 807 121 843 121 q 753 127 783 121 q 692 142 724 133 q 632 160 661 150 q 579 176 603 169 q 531 190 556 185 q 482 201 506 196 q 414 214 446 210 q 370 217 392 217 q 326 219 349 218 q 401 267 365 243 q 475 331 436 292 q 511 372 501 356 q 528 401 521 388 q 533 413 531 407 q 538 424 535 418 q 540 431 539 428 q 542 439 540 435 q 554 456 544 446 q 581 467 564 465 q 613 458 596 467 q 632 449 629 450 q 663 431 647 440 q 692 414 678 422 q 735 387 719 397 q 765 376 750 376 q 789 385 776 376 q 813 404 801 393 q 851 436 832 419 q 889 469 869 453 q 935 512 913 490 q 981 556 957 533 l 954 582 q 906 542 922 554 q 871 529 889 529 q 837 540 856 529 q 803 561 818 551 q 761 585 782 575 q 719 603 740 594 q 757 641 739 622 q 793 679 775 660 q 813 699 803 689 q 835 721 824 710 q 849 736 842 728 q 865 753 857 744 q 892 781 878 767 q 919 808 906 794 q 946 839 932 825 q 984 879 965 858 q 1021 921 1003 900 l 994 946 m 546 856 q 572 851 560 854 q 597 844 583 849 q 628 833 611 840 q 668 813 644 825 q 727 778 700 797 q 760 754 754 760 q 769 740 767 747 q 772 731 772 733 q 747 688 772 718 q 718 654 732 669 q 685 619 704 639 q 651 586 665 600 q 619 556 636 572 q 582 522 600 538 q 543 486 564 506 q 538 506 540 496 q 533 525 536 515 q 526 552 531 539 q 517 578 521 565 q 508 610 514 590 q 498 653 503 631 q 490 697 493 676 q 486 729 486 717 q 502 793 486 765 q 546 856 518 821 m 519 1008 l 482 1008 l 543 1261 l 701 1261 l 519 1008 z "},"":{"ha":983,"x_min":25,"x_max":1021,"o":"m 1021 921 q 984 879 1003 900 q 946 839 965 858 q 919 808 932 825 q 892 781 906 794 q 865 753 878 767 q 849 736 857 744 q 835 721 842 728 q 813 699 824 710 q 793 679 803 689 q 757 641 775 660 q 719 603 739 622 q 761 585 740 594 q 803 561 782 575 q 837 540 818 551 q 871 529 856 529 q 906 542 889 529 q 954 582 922 554 l 981 556 q 935 512 957 533 q 889 469 913 490 q 851 436 869 453 q 813 404 832 419 q 789 385 801 393 q 765 376 776 376 q 735 387 750 376 q 692 414 719 397 q 663 431 678 422 q 632 449 647 440 q 613 458 629 450 q 581 467 596 467 q 554 456 564 465 q 542 439 544 446 q 540 431 540 435 q 538 424 539 428 q 533 413 535 418 q 528 401 531 407 q 511 372 521 388 q 475 331 501 356 q 401 267 436 292 q 326 219 365 243 q 370 217 349 218 q 414 214 392 217 q 482 201 446 210 q 531 190 506 196 q 579 176 556 185 q 632 160 603 169 q 692 142 661 150 q 753 127 724 133 q 807 121 783 121 q 874 130 843 121 q 915 146 904 139 q 939 167 924 151 q 926 184 932 176 q 919 203 919 192 q 936 240 919 224 q 975 257 953 257 q 999 245 989 257 q 1010 218 1010 233 q 988 163 1010 196 q 911 86 965 129 q 871 57 897 75 q 809 22 844 39 q 732 -7 774 6 q 647 -19 690 -19 q 609 -17 628 -19 q 568 -9 590 -14 q 517 5 546 -4 q 451 26 489 14 q 403 44 428 35 q 356 60 379 53 q 272 85 301 79 q 215 90 243 90 q 170 85 190 90 q 131 67 150 79 q 94 37 113 56 q 54 -10 76 18 l 25 13 q 89 110 58 60 q 131 194 108 143 q 154 321 154 246 q 148 388 154 357 q 139 428 142 418 q 126 466 136 442 q 103 501 115 490 q 80 515 92 514 q 54 519 68 517 l 46 543 l 253 679 q 253 639 253 657 q 256 603 254 621 q 263 568 258 586 q 274 528 267 550 q 301 449 285 492 q 317 371 317 407 q 309 326 317 347 q 289 285 301 306 q 260 243 276 264 q 225 199 243 222 q 259 219 242 208 q 296 243 276 231 q 319 261 303 249 q 353 292 336 274 q 381 334 369 311 q 393 385 393 357 q 391 411 393 399 q 384 438 389 424 q 373 472 379 453 q 358 517 367 490 q 340 576 351 535 q 329 668 329 618 q 330 697 329 679 q 335 726 331 715 q 346 744 339 736 q 360 760 353 753 q 373 771 367 767 q 379 775 379 775 q 393 788 386 782 q 407 799 400 793 q 425 813 417 806 q 442 828 433 821 q 557 919 500 874 q 669 1004 614 964 q 696 983 683 993 q 722 964 708 974 q 763 938 739 951 q 811 913 786 925 q 860 894 836 901 q 901 886 883 886 q 931 893 921 886 q 967 916 954 903 q 994 946 979 929 l 1021 921 m 546 856 q 502 793 518 821 q 486 729 486 765 q 490 697 486 717 q 498 653 493 676 q 508 610 503 631 q 517 578 514 590 q 526 552 521 565 q 533 525 531 539 q 538 506 536 515 q 543 486 540 496 q 582 522 564 506 q 619 556 600 538 q 651 586 636 572 q 685 619 665 600 q 718 654 704 639 q 747 688 732 669 q 772 731 772 718 q 769 740 772 733 q 760 754 767 747 q 727 778 754 760 q 668 813 700 797 q 628 833 644 825 q 597 844 611 840 q 572 851 583 849 q 546 856 560 854 m 338 1051 l 465 1306 l 611 1306 l 736 1051 l 696 1051 l 538 1197 l 378 1051 l 338 1051 z "},"":{"ha":983,"x_min":25,"x_max":1021,"o":"m 1021 921 q 984 879 1003 900 q 946 839 965 858 q 919 808 932 825 q 892 781 906 794 q 865 753 878 767 q 849 736 857 744 q 835 721 842 728 q 813 699 824 710 q 793 679 803 689 q 757 641 775 660 q 719 603 739 622 q 761 585 740 594 q 803 561 782 575 q 837 540 818 551 q 871 529 856 529 q 906 542 889 529 q 954 582 922 554 l 981 556 q 935 512 957 533 q 889 469 913 490 q 851 436 869 453 q 813 404 832 419 q 789 385 801 393 q 765 376 776 376 q 735 387 750 376 q 692 414 719 397 q 663 431 678 422 q 632 449 647 440 q 613 458 629 450 q 581 467 596 467 q 554 456 564 465 q 542 439 544 446 q 540 431 540 435 q 538 424 539 428 q 533 413 535 418 q 528 401 531 407 q 511 372 521 388 q 475 331 501 356 q 401 267 436 292 q 326 219 365 243 q 370 217 349 218 q 414 214 392 217 q 482 201 446 210 q 531 190 506 196 q 579 176 556 185 q 632 160 603 169 q 692 142 661 150 q 753 127 724 133 q 807 121 783 121 q 874 130 843 121 q 915 146 904 139 q 939 167 924 151 q 926 184 932 176 q 919 203 919 192 q 936 240 919 224 q 975 257 953 257 q 999 245 989 257 q 1010 218 1010 233 q 988 163 1010 196 q 911 86 965 129 q 871 57 897 75 q 809 22 844 39 q 732 -7 774 6 q 647 -19 690 -19 q 609 -17 628 -19 q 568 -9 590 -14 q 517 5 546 -4 q 451 26 489 14 q 403 44 428 35 q 356 60 379 53 q 272 85 301 79 q 215 90 243 90 q 170 85 190 90 q 131 67 150 79 q 94 37 113 56 q 54 -10 76 18 l 25 13 q 89 110 58 60 q 131 194 108 143 q 154 321 154 246 q 148 388 154 357 q 139 428 142 418 q 126 466 136 442 q 103 501 115 490 q 80 515 92 514 q 54 519 68 517 l 46 543 l 253 679 q 253 639 253 657 q 256 603 254 621 q 263 568 258 586 q 274 528 267 550 q 301 449 285 492 q 317 371 317 407 q 309 326 317 347 q 289 285 301 306 q 260 243 276 264 q 225 199 243 222 q 259 219 242 208 q 296 243 276 231 q 319 261 303 249 q 353 292 336 274 q 381 334 369 311 q 393 385 393 357 q 391 411 393 399 q 384 438 389 424 q 373 472 379 453 q 358 517 367 490 q 340 576 351 535 q 329 668 329 618 q 330 697 329 679 q 335 726 331 715 q 346 744 339 736 q 360 760 353 753 q 373 771 367 767 q 379 775 379 775 q 393 788 386 782 q 407 799 400 793 q 425 813 417 806 q 442 828 433 821 q 557 919 500 874 q 669 1004 614 964 q 696 983 683 993 q 722 964 708 974 q 763 938 739 951 q 811 913 786 925 q 860 894 836 901 q 901 886 883 886 q 931 893 921 886 q 967 916 954 903 q 994 946 979 929 l 1021 921 m 546 856 q 502 793 518 821 q 486 729 486 765 q 490 697 486 717 q 498 653 493 676 q 508 610 503 631 q 517 578 514 590 q 526 552 521 565 q 533 525 531 539 q 538 506 536 515 q 543 486 540 496 q 582 522 564 506 q 619 556 600 538 q 651 586 636 572 q 685 619 665 600 q 718 654 704 639 q 747 688 732 669 q 772 731 772 718 q 769 740 772 733 q 760 754 767 747 q 727 778 754 760 q 668 813 700 797 q 628 833 644 825 q 597 844 611 840 q 572 851 583 849 q 546 856 560 854 m 375 1196 q 386 1207 381 1203 q 397 1218 392 1211 q 408 1229 403 1224 q 418 1242 413 1235 q 458 1286 442 1265 q 468 1276 464 1281 q 478 1264 472 1271 q 491 1249 485 1256 q 504 1235 497 1242 q 531 1209 517 1222 q 561 1181 546 1196 q 538 1157 550 1169 q 514 1133 525 1144 q 487 1106 500 1121 q 460 1076 474 1090 q 433 1107 446 1092 q 407 1133 419 1122 q 383 1156 396 1144 q 358 1179 371 1168 l 375 1196 m 826 1181 l 726 1076 q 713 1092 719 1085 q 699 1107 706 1100 q 683 1125 690 1117 q 667 1142 675 1133 q 644 1162 656 1153 q 624 1179 633 1171 q 644 1198 632 1188 q 664 1218 656 1208 q 694 1248 681 1233 q 728 1283 708 1263 q 751 1258 739 1271 q 775 1232 763 1246 l 826 1181 z "},"":{"ha":694,"x_min":1,"x_max":621,"o":"m 621 997 q 613 878 615 939 q 611 745 610 811 q 613 613 613 679 q 612 377 613 494 q 611 142 611 260 q 565 113 586 126 q 520 82 544 100 q 465 40 496 64 q 390 -21 435 15 q 328 1 358 -10 q 267 22 299 13 q 209 38 229 33 q 169 42 189 42 q 95 24 126 42 q 47 -4 64 7 l 26 19 q 67 63 47 43 q 103 99 88 83 q 114 108 107 103 q 128 121 121 114 q 178 160 154 146 q 232 175 203 175 q 283 169 254 175 q 340 154 311 163 q 397 136 369 146 q 447 118 425 126 l 447 444 l 331 471 l 331 496 l 447 578 q 447 640 447 610 q 450 703 447 671 q 456 759 453 731 q 464 815 460 788 q 433 807 453 813 q 386 801 414 801 q 305 813 346 803 q 224 835 264 824 q 129 847 175 846 q 144 810 136 828 q 163 774 151 793 q 177 747 169 760 q 193 721 185 735 l 82 656 q 42 725 58 692 q 21 765 31 744 q 1 806 11 785 l 275 993 q 295 981 286 986 q 315 968 304 975 q 330 961 318 967 q 358 948 342 956 q 394 933 375 940 q 429 921 413 925 q 456 917 442 918 q 474 917 471 917 q 503 919 489 917 q 533 931 518 922 q 564 958 549 940 q 596 1007 579 976 l 621 997 m 208 1263 l 367 1263 l 428 1010 l 390 1010 l 208 1263 z "}}}
